<?xml version="1.0" encoding="utf-8"?>
<!-- Generator: Adobe Illustrator 18.0.0, SVG Export Plug-In . SVG Version: 6.00 Build 0)  -->
<!DOCTYPE svg PUBLIC "-//W3C//DTD SVG 1.1//EN" "http://www.w3.org/Graphics/SVG/1.1/DTD/svg11.dtd">
<svg version="1.1" id="Layer_1" xmlns="http://www.w3.org/2000/svg" xmlns:xlink="http://www.w3.org/1999/xlink" x="0px" y="0px"
	 viewBox="262.5 -0.2 529.8 611.7" enable-background="new 262.5 -0.2 529.8 611.7" xml:space="preserve">
<g>
	<path fill="#C78C1C" d="M792,530c-0.4-0.3-0.8-0.2-1.3-0.2c-6.3,0-12.6,0-18.8,0c-0.4,0-0.9,0-1.3,0c-1,0.1-1.5-0.2-1.4-1.3
		c0-0.4,0-0.9,0-1.3c0-4.5,0-8.9,0-13.4c0-1.7,0-1.8,1.8-1.8c3.3,0,6.6,0,9.9,0c1.1,0,1.6,0.2,1.5,1.4c-0.1,1.7,0,3.4,0,5
		c0,0.8-0.3,1-1,1c-2.1,0.2-2.2,0.1-2.2-2.1c0-1.9,0-1.9-1.9-2c-1.2,0-2.5,0-3.7,0c-0.7,0-1.1,0.3-1.1,1c0,2.9,0,5.8,0,8.8
		c0,0.8,0.4,1.1,1.2,1.1c4.5,0,9.1,0,13.6,0c1.2,0,1.3-0.6,1.3-1.5c0-4.6,0-9.2,0-13.8c0-1.5,0-3.1,0-4.6c0-1.9,0-1.9-1.9-1.9
		c-4.7,0-9.5,0-14.2,0c-0.4,0-0.9,0-1.3,0c-1.5,0-1.6,0-1.6-1.6c0-4.3,0-8.6,0-12.9c0-2.3,0-4.5,0-6.8c0-1.1,0.3-1.5,1.5-1.5
		c4.9,0.1,9.8,0,14.7,0c1.1,0,1.6,0.2,1.6,1.4c-0.1,3.5,0,7,0,10.5c0,0.9-0.3,1.3-1.3,1.3c-1.7,0-3.4-0.1-5,0
		c-1.4,0.1-1.2-0.9-1.2-1.8c-0.1-0.9,0.1-1.5,1.3-1.5c2.8-0.1,2.8-0.2,2.8-3c0-3.5,0-3.5-3.6-3.5c-1.9,0-3.8,0-5.7,0
		c-1.1,0-1.6,0.2-1.6,1.4c0.1,4.4,0,8.8,0,13.1c0,1,0.3,1.4,1.4,1.4c5.9-0.1,11.8,0.1,17.7-0.1C792,510.7,792,520.4,792,530z"/>
	<path fill="#C78C1C" d="M792,378.8c-5.4,0-10.8,0-16.2,0c-1.5,0-1.6,0-1.6-1.6c0-3.4,0-6.7,0-10.1c0-1.7,0-1.7,1.7-1.8
		c1.5,0,2.9,0,4.4,0c1.1,0,1.6,0.3,1.6,1.5c0,1.8,0,1.9-1.7,1.9c-2.6,0-2.5-0.3-2.5,2.5c0,0.9,0,1.9,0,2.8s0.2,1.4,1.2,1.3
		c2.8,0,5.7,0,8.5,0c1,0,1.2-0.5,1.2-1.4c0-4.2,0-8.5,0-12.7c0-1.1-0.5-1.3-1.5-1.3c-2.6,0-5.1,0-7.7,0c-2.8,0-5.5,0-8.3,0
		c-1.6,0-1.6,0-1.6-1.5c0-6.6,0-13.1,0-19.7c0-1.5,0.1-1.5,1.7-1.5c4.8,0,9.6,0,14.5,0c1.6,0,1.6,0,1.6,1.6c0,3.4,0,6.9,0,10.3
		c0,1.2-0.4,1.5-1.5,1.5c-1.6-0.1-3.2,0-4.8,0c-0.8,0-1.1-0.4-1.2-1.2c-0.1-2.1-0.1-2.2,2.1-2.2c2.1,0,2,0.1,2-2.1
		c0-1.2,0-2.3,0-3.5c0-0.8-0.3-1-1-1c-2.9,0-5.8,0-8.8,0c-0.7,0-1,0.4-1,1.1c0,4.6,0,9.2,0,13.8c0,0.8,0.4,1.2,1.2,1.2
		c0.4,0,0.9,0,1.3,0c4.9,0,9.8,0,14.7,0c0.6,0,1.3,0.2,1.9-0.2C792,363.9,792,371.3,792,378.8z"/>
	<path fill="#C78C1C" d="M792,475.2c-5.3,0-10.7,0-16,0c-1.8,0-1.8,0-1.8-1.8c0-3.3,0-6.6,0-9.9c0-1.7,0-1.7,1.7-1.8
		c1.5,0,3.1,0,4.6,0c0.9,0,1.4,0.3,1.3,1.3c0,0.3,0,0.6,0,0.9c0.1,0.9-0.2,1.3-1.2,1.3c-0.9,0-2.1-0.4-2.7,0.3c-0.6,0.8-0.2,2-0.2,3
		c0,3.4,0,3.4,3.3,3.4c2,0,4.1-0.1,6.1,0c1.2,0,1.5-0.4,1.5-1.5c0-4.1,0-8.2,0-12.3c0-1.5,0-1.6-1.6-1.6c-5,0-10.1,0-15.1,0
		c-0.5,0-1,0-1.5,0s-0.8-0.3-0.8-0.8c0-0.4,0-0.7,0-1.1c0-6.3,0-12.6,0-18.8c0-2,0-2,2-2c4.6,0,9.2,0,13.8,0c1.9,0,1.9,0,1.9,2
		c0,3.1,0,6.3,0,9.4c0,1.9,0,1.9-2,1.9c-1.4,0-2.8-0.1-4.2,0c-1.3,0.1-1.4-0.6-1.4-1.6c0-0.9-0.2-1.7,1.3-1.7c2.8,0,2.8-0.1,2.8-3
		c0-3.5,0-3.5-3.6-3.5c-1.9,0-3.8,0-5.7,0c-1.1,0-1.6,0.2-1.6,1.4c0.1,4.4,0,8.8,0,13.2c0,0.8,0.1,1.4,1.2,1.4
		c6-0.1,12,0.2,17.9-0.1C792,460.3,792,467.8,792,475.2z"/>
	<path fill="#C78C1C" d="M792,162.2c-0.7-0.4-1.4-0.2-2.1-0.2c-4.7,0-9.3,0-14,0c-1.6,0-1.6-0.1-1.6-1.6c0-3.5,0-7,0-10.5
		c0-0.9,0.2-1.3,1.2-1.3c1.8,0.1,3.5,0,5.3,0c0.9,0,1.1,0.4,1.1,1.2c0.1,2.1,0,2.2-2.1,2.2c-0.4,0-0.7,0-1.1,0c-0.6,0-1,0.2-1,0.9
		c0,1.6,0,3.2,0,4.8c0,0.6,0.3,0.9,0.9,0.9c3,0,6,0,9,0c0.8,0,1-0.4,1-1.1c0-4.4,0-8.8,0-13.1c0-1.3-0.8-1.1-1.6-1.1
		c-4.9,0-9.8,0-14.7,0c-3,0-2.8,0.6-2.8-2.8c0-6.1,0-12.1,0-18.2c0-1.8,0-1.8,1.8-1.8c4.8,0,9.6,0,14.5,0c1.1,0,1.5,0.4,1.5,1.5
		c-0.1,3.4-0.1,6.9,0,10.3c0,1.2-0.5,1.5-1.5,1.4c-1.5-0.1-3.1-0.1-4.6,0c-1,0-1.4-0.3-1.4-1.4c0-1.9,0-2,1.9-2c0.4,0,0.7,0,1.1,0
		c0.7,0,1.1-0.2,1.1-1c0-0.1,0-0.1,0-0.2c-0.1-1.7,0.7-3.7-0.3-4.9c-0.9-1.1-3-0.3-4.6-0.4c-1.5-0.1-3.1,0-4.6,0
		c-0.9,0-1.3,0.3-1.3,1.3c0,4.5,0,9.1,0,13.6c0,0.8,0.3,1.3,1.1,1.2c0.2,0,0.4,0,0.7,0c5.8,0,11.5,0,17.3,0
		C792,147.3,792,154.8,792,162.2z"/>
	<path fill="#C78C1C" d="M792,114c-4.7-0.3-9.3-0.1-14-0.1c-3.8,0-3.8,0-3.8-3.8c0-2.7,0-5.4,0-8.1c0-1.1,0.2-1.6,1.5-1.5
		c1.6,0.1,3.2,0.1,4.8,0c0.9,0,1.3,0.2,1.4,1.2c0.1,2.1,0,2.2-2.1,2.2c-0.4,0-0.9,0-1.3,0c-0.5,0-0.8,0.3-0.8,0.8c0,1.6,0,3.2,0,4.8
		c0,0.8,0.4,1,1.1,1c2.8,0,5.7,0,8.5,0c0.9,0,1.3-0.3,1.3-1.3c0-4.2-0.1-8.5,0-12.7c0-1.2-0.5-1.4-1.6-1.4c-4.6,0-9.2,0-13.8,0
		c-1.2,0-2.6,0.5-3.4-0.2c-0.9-0.8-0.3-2.4-0.3-3.6c0-5.7,0-11.4,0-17.1c0-1.8,0-1.8,1.8-1.8c4.7,0,9.5,0,14.2,0
		c1.7,0,1.7,0,1.7,1.6c0,3.4,0,6.7,0,10.1c0,1.1-0.3,1.6-1.5,1.5c-1.6-0.1-3.2-0.1-4.8,0c-1.2,0.1-1.2-0.7-1.2-1.5s-0.3-1.8,1.2-1.8
		c0.9,0,1.9,0.4,2.5-0.2c0.7-0.7,0.3-1.8,0.3-2.7c0-3.6,0-3.6-3.6-3.6c-1.9,0-3.8,0-5.7,0c-1.1,0-1.6,0.3-1.6,1.5
		c0,4.4,0.1,8.8,0,13.1c0,1.2,0.6,1.4,1.6,1.4c5.8,0,11.7,0,17.5-0.1C792,99.1,792,106.5,792,114z"/>
	<path fill="#C78C1C" d="M792,89.9c-5-0.3-10.1-0.1-15.1-0.1c-2.8,0-2.7,0.4-2.7-2.7s0-6.1,0-9.2c0-1.1,0.2-1.6,1.5-1.5
		c1.6,0.1,3.2,0.1,4.8,0c0.9,0,1.3,0.2,1.3,1.2c0.1,2.1,0,2.2-2.1,2.2c-0.4,0-0.9,0-1.3,0c-0.5,0-0.8,0.3-0.8,0.8c0,1.6,0,3.2,0,4.8
		c0,0.8,0.4,1,1.1,1c2.9,0,5.8,0,8.8,0c0.9,0,1.1-0.5,1-1.2c0-4.2,0-8.5,0-12.7c0-1.2-0.5-1.4-1.6-1.4c-4.7,0-9.3,0-14,0
		c-0.8,0-1.6,0-2.4,0c-0.7,0-1.1-0.2-1.1-1c0-0.2,0-0.4,0-0.7c0-6.6,0-13.1,0-19.7c0-1.2,0.4-1.5,1.5-1.5c4.9,0.1,9.8,0,14.7,0
		c1.5,0,1.5,0,1.5,1.6c0,3.4,0,6.7,0,10.1c0,1.1-0.3,1.6-1.5,1.5c-1.6-0.1-3.2,0-4.8,0c-0.8,0-1.2-0.2-1.2-1.1c0-2.5,0-2.3,2.1-2.2
		c2.1,0,2,0,2-2.1c0-1.4,0.6-3.1-0.3-4c-0.9-1.1-2.7-0.3-4.2-0.4c-1.6-0.1-3.2,0-4.8,0c-1.1,0-1.6,0.3-1.6,1.5c0,4.4,0.1,8.8,0,13.1
		c0,1.2,0.6,1.4,1.6,1.4c5.8,0,11.7-0.1,17.5-0.1C792,75,792,82.4,792,89.9z"/>
	<path fill="#C78C1C" d="M792,138.1c-3.4-0.3-6.8-0.1-10.3-0.1c-2,0-4.1,0-6.1,0c-1.1,0-1.4-0.4-1.4-1.4c0-3.6,0-7.2,0-10.7
		c0-0.9,0.2-1.4,1.2-1.3c1.8,0.1,3.5,0,5.3,0c0.9,0,1.1,0.4,1.1,1.2c0.1,2.1,0,2.2-2.1,2.2c-0.4,0-0.7,0-1.1,0c-0.7,0-1.1,0.4-1,1.1
		c0,0.1,0,0.3,0,0.4c0.1,1.6-0.7,3.7,0.4,4.8c0.9,0.9,2.9,0.2,4.4,0.3c1.6,0,3.2,0,4.8,0c1,0,1.3-0.3,1.3-1.3c0-4.2-0.1-8.5,0-12.7
		c0-1.3-0.6-1.4-1.6-1.4c-4.7,0-9.5,0-14.2,0c-3.3,0-3.3,0-3.3-3.2c0-5.9,0-11.8,0-17.7c0-1.8,0-1.8,1.8-1.8c4.8,0,9.6,0,14.5,0
		c1.1,0,1.6,0.3,1.5,1.5c-0.1,3.5-0.1,7,0,10.5c0,1-0.3,1.3-1.3,1.3c-1.7,0-3.4-0.1-5,0c-1.3,0.1-1.2-0.7-1.2-1.6
		c0-0.8-0.3-1.8,1.2-1.8c0.9,0,1.9,0.4,2.5-0.2c0.7-0.7,0.3-1.8,0.3-2.7c0-3.6,0-3.6-3.6-3.6c-1.9,0-3.8,0-5.7,0
		c-1.1,0-1.6,0.3-1.6,1.5c0,4.4,0.1,8.8,0,13.1c0,1.2,0.6,1.4,1.6,1.4c5.8,0,11.7,0,17.5,0C792,123.2,792,130.6,792,138.1z"/>
	<path fill="#C78C1C" d="M792,65.8c-5,0-9.9-0.1-14.9-0.1c-0.6,0-1.2,0-1.8,0c-0.9,0-1.2-0.4-1.2-1.2c0-3.7,0-7.4,0-11.2
		c0-0.9,0.4-1.1,1.2-1.1c1.8,0,3.5,0,5.3,0c0.9,0,1.1,0.4,1.1,1.2c0.1,2.1,0,2.2-2.1,2.2c-0.4,0-0.9,0-1.3,0c-0.5,0-0.8,0.3-0.8,0.8
		c0,1.7,0,3.4,0,5c0,0.6,0.4,0.7,0.9,0.7c3.1,0,6.1,0,9.2,0c0.7,0,0.8-0.4,0.8-1c0-4.5,0-8.9,0-13.4c0-1.2-0.8-1-1.5-1
		c-4.9,0-9.8,0-14.7,0c-0.5,0-1,0-1.5,0c-1.1,0.1-1.4-0.4-1.4-1.4c0-2.1,0-4.2,0-6.4c0-4.5,0-8.9,0-13.4c0-1.6,0-1.7,1.7-1.7
		c4.8,0,9.6,0,14.5,0c1.5,0,1.6,0,1.6,1.6c0,3.4,0,6.7,0,10.1c0,1.1-0.2,1.6-1.4,1.6c-1.7-0.1-3.4,0-5,0c-0.7,0-1-0.3-1-1
		c-0.1-2.1,0-2.2,2-2.3c2.2,0,2.1-0.1,2-2.1c-0.1-1.4,0.7-3.2-0.4-4.2c-0.9-0.8-2.7-0.2-4-0.3c-1.6,0-3.2,0-4.8,0
		c-1.1,0-1.6,0.2-1.6,1.4c0,4.4,0,8.8,0,13.1c0,1,0.3,1.4,1.4,1.4C780.3,43,786.1,43,792,43C792,50.9,792,58.3,792,65.8z"/>
	<path fill="#C78C1C" d="M262.9,318.7c5.5,0,10.9,0,16.4,0c1.6,0,1.6,0,1.6,1.5c0,3.5,0,7,0,10.5c0,1-0.3,1.5-1.4,1.4
		c-1.6-0.1-3.2,0-4.8,0c-0.9,0-1.3-0.2-1.3-1.2c0-2.6,0.1-2.1,2.1-2.2c1.9,0,1.9,0,2-1.9c0-1.2,0-2.5,0-3.7c0-0.7-0.3-1.1-1-1.1
		c-2.9,0-5.8,0-8.8,0c-0.8,0-1,0.4-1,1.1c0,4.4,0,8.8,0,13.1c0,1.3,0.8,1.1,1.6,1.1c4.7,0,9.5,0,14.2,0c3.1,0,3.1,0,3.1,3.1
		c0,5.9,0,11.8,0,17.7c0,1.9,0,1.9-1.9,1.9c-4.7,0-9.5,0-14.2,0c-1.1,0-1.6-0.3-1.5-1.5c0.1-3.5,0-7,0-10.5c0-1.1,0.4-1.4,1.4-1.4
		c1.6,0.1,3.2,0,4.8,0c0.9,0,1.3,0.3,1.3,1.3c0.1,2,0.1,2.1-2,2.1c-0.4,0-0.7,0-1.1,0c-0.7,0-1.1,0.3-1,1c0,0.1,0,0.1,0,0.2
		c0.1,1.7-0.6,3.7,0.3,4.9c0.9,1.1,3,0.3,4.6,0.4c1.6,0.1,3.2,0,4.8,0c0.9,0,1.1-0.4,1.1-1.2c0-4.5,0-9.1,0-13.6
		c0-0.7-0.1-1.3-1-1.3c-6.1,0.1-12.1-0.2-18.2,0.1c-0.1,0-0.1,0.1-0.2,0.1C262.9,333.6,262.9,326.2,262.9,318.7z"/>
	<path fill="#C78C1C" d="M262.9,270.5c5.4,0,10.8,0,16.2,0c1.8,0,1.8,0,1.8,1.8c0,3.4,0,6.9,0,10.3c0,1-0.3,1.5-1.4,1.4
		c-1.6-0.1-3.2,0-4.8,0c-0.9,0-1.4-0.3-1.3-1.3c0-0.3,0-0.6,0-0.9c-0.1-0.9,0.3-1.3,1.2-1.3s1.9,0.4,2.5-0.2
		c0.7-0.7,0.3-1.8,0.3-2.7c0-3.7,0-3.7-3.7-3.7c-1.8,0-3.7,0-5.5,0c-1.6,0-1.6,0-1.6,1.5c0,4.1,0,8.2,0,12.3c0,1.5,0.1,1.5,1.6,1.5
		c5,0,9.9,0,14.9,0c0.5,0,1,0,1.5,0c0.6,0,0.9,0.3,0.9,0.9c0,6.9,0,13.9,0,20.8c0,1.1-0.8,1-1.5,1c-3.8,0-7.6,0-11.4,0
		c-1.2,0-2.3,0-3.5,0c-0.9,0-1.3-0.3-1.3-1.3c0-3.7,0-7.3,0-11c0-0.7,0.3-1.1,1-1.1c1.8,0,3.7,0,5.5,0c0.6,0,0.9,0.2,1,0.9
		c0.3,2,0,2.4-2.1,2.4c-2,0-2,0-2,2.1c0,1.1,0,2.2,0,3.3c0,1,0.4,1.3,1.3,1.3c2.8,0,5.6,0,8.3,0c1,0,1.2-0.5,1.2-1.3
		c0-4.5,0-8.9,0-13.4c0-0.9-0.2-1.3-1.2-1.3c-5.9,0-11.8,0-17.7,0c-0.1,0-0.3,0.1-0.4,0.1C262.9,285.4,262.9,277.9,262.9,270.5z"/>
	<path fill="#C78C1C" d="M262.9,294.6c5.4,0,10.8,0,16.2,0c1.8,0,1.8,0,1.8,1.8c0,3.4,0,6.9,0,10.3c0,1-0.3,1.4-1.4,1.4
		c-1.6-0.1-3.2,0-4.8,0c-0.9,0-1.4-0.3-1.3-1.3c0-0.3,0-0.6,0-0.9c-0.1-0.9,0.3-1.3,1.2-1.3c2.8-0.1,2.8-0.2,2.8-3
		c0-3.7,0-3.7-3.7-3.7c-1.8,0-3.7,0-5.5,0c-1.6,0-1.6,0-1.6,1.6c0,4.1,0,8.2,0,12.3c0,1.5,0.1,1.5,1.7,1.5c4.9,0,9.8,0,14.7,0
		c3,0,2.6-0.3,2.7,2.7c0,6,0,12,0,18c0,2.3,0,2.1-2.2,2.1c-4.5,0-9.1,0-13.6,0c-1.9,0-1.9,0-1.9-2c0-3.3,0-6.6,0-9.9
		c0-1.2,0.4-1.5,1.5-1.5c1.6,0.1,3.2,0,4.8,0c1.4,0,1.1,1,1.2,1.8c0,0.9,0,1.5-1.2,1.5c-2.9,0.1-2.9,0.2-2.9,3.1c0,0.7,0.1,1.3,0,2
		c-0.1,1.2,0.5,1.5,1.5,1.5c2.6-0.1,5.3-0.1,7.9,0c1,0,1.4-0.3,1.4-1.4c0-4.5,0-8.9,0-13.4c0-0.9-0.3-1.3-1.2-1.3
		c-5.9,0-11.8,0-17.7,0.1c-0.1,0-0.3,0.1-0.4,0.2C262.9,309.5,262.9,302.1,262.9,294.6z"/>
	<path fill="#C78C1C" d="M262.9,246.4c5.4,0,10.8,0,16.2,0c1.8,0,1.8,0,1.8,1.8c0,3.4,0,6.9,0,10.3c0,1-0.3,1.4-1.4,1.4
		c-1.6-0.1-3.2,0-4.8,0c-0.9,0-1.4-0.3-1.3-1.3c0-0.3,0-0.6,0-0.9c-0.1-0.9,0.2-1.3,1.2-1.3c0.9,0,1.9,0.4,2.5-0.2
		c0.7-0.7,0.3-1.8,0.3-2.7c0-3.7,0-3.7-3.6-3.7c-1.9,0-3.8,0-5.7,0c-1,0-1.5,0.2-1.5,1.3c0,4.2,0.1,8.5,0,12.7
		c0,1.3,0.7,1.4,1.6,1.4c5,0,9.9,0,14.9,0c0.5,0,1,0,1.5,0c0.6,0,1,0.2,0.9,0.9c0,0.3,0,0.6,0,0.9c0,6.4,0,12.9,0,19.3
		c0,1.7,0,1.7-1.7,1.7c-4.8,0-9.6,0-14.5,0c-1.1,0-1.6-0.3-1.6-1.5c0.1-3.5,0.1-7,0-10.5c0-1.1,0.4-1.4,1.4-1.3
		c1.5,0.1,3.1,0.1,4.6,0c1.1,0,1.5,0.4,1.5,1.5c-0.1,1.7,0,1.8-1.6,1.8c-2.7,0-2.5-0.3-2.5,2.7c0,0.9,0,1.9,0,2.8
		c0,0.7,0.3,1.1,1,1.1c2.9,0,5.8,0,8.8,0c0.8,0,1-0.4,1-1.1c0-4.6,0-9.2,0-13.8c0-0.7-0.2-1.1-1-1.1c-6.1,0.1-12.3-0.2-18.4,0.1
		C262.9,261.3,262.9,253.8,262.9,246.4z"/>
	<path fill="#C78C1C" d="M792,499.3c-5.3,0-10.7,0-16,0c-1.8,0-1.8,0-1.8-1.8c0-3.3,0-6.6,0-9.9c0-1.8,0-1.8,1.9-1.8
		c1.5,0,2.9,0,4.4,0c0.9,0,1.3,0.2,1.4,1.2c0.1,2.1,0.1,2.2-2.1,2.2c-0.4,0-0.7,0-1.1,0c-0.7,0-1.1,0.3-1,1c0,1.5,0,2.9,0,4.4
		c0,1,0.5,1.2,1.3,1.2c2.8,0,5.6,0,8.3,0c0.9,0,1.3-0.3,1.3-1.2c0-4.2-0.1-8.5,0-12.7c0-1.2-0.5-1.4-1.6-1.4c-5.2,0-10.4,0-15.6,0
		c-2,0-2,0.2-2-2.1c0-6.2,0-12.4,0-18.6c0-0.4,0-0.9,0-1.3c0-0.5,0.3-0.8,0.8-0.8c0.6,0,1.2,0,1.8,0c4.5,0,8.9,0,13.4,0
		c1.7,0,1.7,0,1.7,1.6c0,3.4,0,6.7,0,10.1c0,1.1-0.3,1.6-1.5,1.5c-1.6-0.1-3.2-0.1-4.8,0c-1.4,0.1-1.2-0.9-1.2-1.8
		c-0.1-0.9,0.1-1.5,1.3-1.5c2.8-0.1,2.8-0.1,2.8-3c0-3.5,0-3.5-3.6-3.5c-1.9,0-3.8,0-5.7,0c-1.1,0-1.6,0.2-1.6,1.4
		c0.1,4.4,0,8.8,0,13.1c0,0.8,0.1,1.4,1.2,1.4c6-0.1,12,0.2,17.9-0.1C792,484.4,792,491.9,792,499.3z"/>
	<path fill="#C78C1C" d="M262.9,415.2c5.5,0,11,0,16.4,0c1.6,0,1.6,0,1.6,1.5c0,3.4,0,6.9,0,10.3c0,1.1-0.2,1.6-1.4,1.6
		c-1.7-0.1-3.4,0-5,0c-0.7,0-1-0.3-1-1.1c-0.2-2.1-0.1-2.2,2-2.3c2,0,2,0,2.1-2c0-1.1,0-2.2,0-3.3c0-0.9-0.2-1.4-1.2-1.4
		c-2.8,0-5.7,0-8.5,0c-0.7,0-1,0.3-1,1.1c0,4.4,0,8.8,0,13.1c0,1.3,0.9,1.1,1.7,1.1c4.7,0,9.3,0,14,0c3.3,0,3.3,0,3.3,3.4
		c0,5.8,0,11.7,0,17.5c0,1.9,0,1.9-1.7,1.9c-4.7,0-9.5,0-14.2,0c-1.7,0-1.7,0-1.7-1.7c0-3.4,0-6.7,0-10.1c0-1.1,0.3-1.6,1.5-1.5
		c1.5,0.1,3.1,0.1,4.6,0c1.2-0.1,1.5,0.5,1.4,1.6c0,1.8,0,1.8-1.8,1.8c-0.2,0-0.4,0-0.7,0c-1.6,0-1.6,0-1.6,1.5c0,1.2,0,2.5,0,3.7
		c0,0.9,0.2,1.4,1.2,1.3c2.8,0,5.7,0,8.5,0c0.7,0,1.1-0.2,1.1-1c0-4.7,0-9.3,0-14c0-1.3-0.8-1.1-1.6-1.1c-4.8,0-9.6,0-14.5,0
		c-1.1,0-2.2,0-3.3-0.1C262.9,429.8,262.9,422.5,262.9,415.2z"/>
	<path fill="#C78C1C" d="M262.9,125.8c2,0.4,3.9,0.1,5.9,0.2c3.5,0,7,0,10.5,0c1.6,0,1.6,0,1.6,1.6c0,3.5,0,7,0,10.5
		c0,1-0.3,1.4-1.4,1.4c-1.6-0.1-3.2,0-4.8,0c-0.9,0-1.3-0.2-1.3-1.2c-0.1-2.1,0-2.2,2.1-2.2c2,0,2,0,2-2.1c0-1.1,0-2.2,0-3.3
		c0-0.9-0.3-1.3-1.3-1.3c-2.8,0-5.5,0-8.3,0c-0.8,0-1.2,0.2-1.2,1.1c0,4.4,0,8.8,0,13.1c0,1.3,0.8,1.1,1.6,1.1c4.7,0,9.5,0,14.2,0
		c3.6,0,3.2-0.5,3.2,3.1c0,6,0,12,0,18c0,1.7,0,1.7-1.6,1.7c-4.8,0-9.6,0-14.5,0c-1.5,0-1.6,0-1.6-1.6c0-3.4,0-6.7,0-10.1
		c0-1,0.2-1.6,1.4-1.6c1.6,0.1,3.2,0.1,4.8,0c0.9,0,1.3,0.3,1.3,1.2c0,2,0,2.1-2,2.1c-0.4,0-0.7,0-1.1,0c-0.7,0-1.1,0.3-1,1.1
		c0,1.5,0,2.9,0,4.4c0,0.7,0.4,1.1,1.1,1.1c2.9,0,5.8,0,8.8,0c0.8,0,1-0.5,1-1.1c0-1.2,0-2.5,0-3.7c0-3.1,0-6.1,0-9.2
		c0-1.9,0-2-1.9-2c-5.8,0-11.7,0-17.5,0C262.9,140.7,262.9,133.3,262.9,125.8z"/>
	<path fill="#C78C1C" d="M262.9,198.2c5.1,0.2,10.2,0,15.3,0.1c3,0,2.7-0.3,2.7,2.7c0,3.1,0,6.3,0,9.4c0,1-0.3,1.4-1.4,1.4
		c-1.6-0.1-3.2,0-4.8,0c-0.9,0-1.3-0.2-1.3-1.2c-0.1-2.1-0.1-2.2,2.1-2.2c2,0,2,0,2-2.1c0-1.1,0-2.2,0-3.3c0-0.9-0.2-1.3-1.2-1.3
		c-2.8,0-5.7,0-8.5,0c-0.7,0-1,0.3-1,1c0,4.5,0,8.9,0,13.4c0,1.2,0.8,1,1.5,1c4.6,0,9.2,0,13.8,0c3.7,0,3.7,0,3.7,3.7
		c0,5.8,0,11.7,0,17.5c0,1.6,0,1.6-1.5,1.6c-4.9,0-9.8,0-14.7,0c-1.2,0-1.5-0.4-1.5-1.5c0-3.4,0-6.9,0-10.3c0-1,0.2-1.5,1.3-1.4
		c1.7,0.1,3.4,0.1,5,0c1.1,0,1.2,0.6,1.1,1.4c-0.1,0.8,0.4,1.9-1,1.9c-0.9,0-2.1-0.4-2.7,0.3c-0.7,0.8-0.3,2-0.3,3
		c0,3.7-0.5,3.2,3.2,3.3c2,0,4.1,0,6.1,0c1,0,1.5-0.3,1.4-1.4c0-4.5,0-8.9,0-13.4c0-1.1-0.5-1.3-1.4-1.3c-6,0.1-12,0.1-18,0.1
		C262.9,213.1,262.9,205.6,262.9,198.2z"/>
	<path fill="#C78C1C" d="M262.9,149.9c3.6,0.3,7.3,0.1,10.9,0.1c2,0,3.9,0,5.9,0c0.8,0,1.2,0.3,1.2,1.1c0,3.7,0,7.4,0,11.2
		c0,0.8-0.3,1.2-1.1,1.2c-1.8,0-3.5,0-5.3,0c-0.9,0-1.2-0.3-1.1-1.2c0-0.4,0-0.7,0-1.1c-0.1-0.8,0.3-1.1,1.2-1.2
		c0.9,0,2.1,0.4,2.7-0.4c0.6-0.7,0.2-1.8,0.2-2.8c0-3.5,0-3.5-3.4-3.5c-2,0-4.1,0-6.1,0c-1,0-1.3,0.4-1.3,1.3c0,4.2,0.1,8.5,0,12.7
		c0,1.3,0.6,1.4,1.6,1.4c4.7,0,9.5,0,14.2,0c3.2,0,3.2,0,3.2,3.3c0,5.9,0,11.8,0,17.7c0,1.8,0,1.8-1.8,1.8c-4.7,0-9.5,0-14.2,0
		c-1.6,0-1.6,0-1.6-1.5c0-3.4,0-6.9,0-10.3c0-1,0.3-1.4,1.4-1.4c1.7,0.1,3.4,0,5,0c0.9,0,1.1,0.4,1.1,1.2c0.1,2,0,2.1-2,2.2
		c-0.4,0-0.7,0-1.1,0c-0.7,0-1.1,0.4-1,1.1c0,1.5,0,2.9,0,4.4c0,0.7,0.3,1.1,1.1,1.1c2.9,0,5.8,0,8.8,0c0.8,0,1-0.5,1-1.1
		c0-4.6,0-9.2,0-13.8c0-1.3-0.9-1.1-1.6-1.1c-5.9,0-11.8,0-17.7,0C262.9,164.8,262.9,157.4,262.9,149.9z"/>
	<path fill="#C78C1C" d="M262.9,174c4.8,0.3,9.6,0.1,14.4,0.1c3.6,0,3.6,0,3.6,3.5c0,2.8,0,5.7,0,8.5c0,1-0.3,1.4-1.4,1.4
		c-1.6-0.1-3.2,0-4.8,0c-0.9,0-1.3-0.2-1.4-1.2c-0.1-2.1,0-2.2,2.1-2.2c2,0,2,0,2-2.1c0-1.1,0-2.2,0-3.3c0-0.9-0.2-1.3-1.2-1.3
		c-2.8,0-5.5,0-8.3,0c-1,0-1.3,0.4-1.3,1.3c0,4.2,0.1,8.5,0,12.7c0,1.3,0.6,1.4,1.6,1.4c4.7,0,9.5,0,14.2,0c3.2,0,3.2,0,3.2,3.2
		c0,5.9,0,11.8,0,17.7c0,1.8,0,1.8-1.8,1.8c-4.7,0-9.3,0-14,0c-1.8,0-1.8,0-1.9-1.7c0-3.4,0-6.7,0-10.1c0-1,0.3-1.4,1.4-1.4
		c1.7,0.1,3.4,0.1,5,0c1.1,0,1.2,0.6,1.1,1.4c-0.1,0.8,0.4,1.9-1.1,1.9c-0.9,0-2.1-0.4-2.7,0.3c-0.7,0.8-0.3,2-0.3,3
		c0,3.7-0.5,3.2,3.2,3.3c2.1,0,4.2,0,6.4,0c0.8,0,1.2-0.3,1.2-1.1c0-4.6,0-9.2,0-13.8c0-1.1-0.7-1.1-1.4-1.1c-6,0-12,0-18,0
		C262.9,188.9,262.9,181.5,262.9,174z"/>
	<path fill="#C78C1C" d="M262.9,512c4,0,8,0,12.1,0c1.1,0,1.6,0.2,1.5,1.5c-0.1,1.6,0,3.2,0,4.8c0,0.8-0.2,1.2-1.1,1.2
		c-2.1,0.1-2.3,0.1-2.3-2.2c0-1.8,0-1.8-1.8-1.8c-1.2,0-2.3,0-3.5,0c-0.9,0-1.3,0.2-1.3,1.2c0,2.8,0,5.6,0,8.3
		c0,1.1,0.4,1.4,1.4,1.4c4.4,0,8.8,0,13.2,0c1.5,0,1.5,0,1.5-1.7c0-5,0-9.9,0-14.9c0-0.5,0-1,0-1.5c0-0.7,0.3-1.1,1-1.1
		c0.4,0,0.7,0,1.1,0c6.1,0,12.1,0,18.2,0c1.8,0,1.8,0,1.8,1.8c0,4.7,0,9.5,0,14.2c0,1.7,0,1.7-1.7,1.7c-3.4,0-6.9,0-10.3,0
		c-1,0-1.5-0.3-1.4-1.4c0.1-1.7,0.1-3.4,0-5c0-1.3,0.7-1.2,1.6-1.2c0.9,0,1.8-0.2,1.8,1.2c0,0.9-0.4,2.1,0.3,2.7
		c0.8,0.6,2,0.2,3,0.2c3.4,0,3.4,0,3.4-3.3c0-2-0.1-4.1,0-6.1c0.1-1.2-0.4-1.5-1.5-1.5c-4.1,0-8.2,0-12.3,0c-1.5,0-1.6,0-1.6,1.6
		c0,4.9,0,9.8,0,14.7c0,3,0.5,2.9-2.8,2.9c-6.1,0-12.1,0-18.2,0c-0.7,0-1.5-0.1-2.2,0.2C262.9,524,262.9,518,262.9,512z"/>
	<path fill="#C78C1C" d="M262.9,222.3c5,0,10.1,0.1,15.1,0.1c0.6,0,1.2,0,1.8,0c0.8,0,1.2,0.3,1.2,1.1c0,3.7,0,7.4,0,11.2
		c0,0.8-0.3,1.2-1.1,1.2c-1.8,0-3.5,0-5.3,0c-0.9,0-1.1-0.4-1.1-1.2c-0.1-2.1-0.1-2.2,2.1-2.2c2,0,2,0,2-2c0-1.1,0-2.2,0-3.3
		c0-0.9-0.2-1.3-1.2-1.3c-2.8,0-5.5,0-8.3,0c-0.9,0-1.3,0.3-1.3,1.2c0,4.3,0,8.6,0,12.9c0,0.8,0.3,1.2,1.1,1.2c0.7,0,1.5,0,2.2,0
		c4.7,0,9.3,0,14,0c1.6,0,1.7,0,1.7,1.7c0,6.5,0,13,0,19.5c0,1.5,0,1.6-1.6,1.6c-4.8,0-9.6,0-14.5,0c-1.6,0-1.6,0-1.6-1.6
		c0-3.4,0-6.9,0-10.3c0-1,0.4-1.4,1.4-1.4c1.7,0.1,3.4,0,5,0c1.3,0,1.1,0.9,1.1,1.7s0.1,1.6-1.2,1.6c-0.9,0-2.1-0.4-2.7,0.3
		c-0.6,0.7-0.2,1.8-0.2,2.8c0,3.4,0,3.4,3.5,3.4c2,0,3.9,0,5.9,0c1,0,1.4-0.2,1.4-1.3c0-4.5,0-8.9,0-13.4c0-0.9-0.2-1.3-1.2-1.3
		c-6.1,0.1-12.1-0.2-18.2,0.1C262.9,237.2,262.9,229.7,262.9,222.3z"/>
	<path fill="#C78C1C" d="M262.9,439.3c5.5,0,11,0,16.4,0c1.6,0,1.6,0,1.6,1.6c0,3.4,0,6.9,0,10.3c0,1.2-0.4,1.5-1.5,1.5
		c-1.6-0.1-3.2-0.1-4.8,0c-1.2,0-1.2-0.8-1.2-1.6c0-0.8-0.2-1.7,1.1-1.7c0.9,0,2.1,0.4,2.7-0.3c0.7-0.8,0.3-2,0.3-3
		c0-3.9,0.5-3.3-3.3-3.4c-1.9,0-3.8,0-5.7,0c-1.7,0-1.8,0-1.8,1.7c0,4,0,8,0,12.1c0,1.5,0.1,1.6,1.6,1.6c4.7,0,9.4,0,14,0
		c0.6,0,1.2,0,1.8,0c1.6,0,1.6,0,1.6,1.6c0,4.2,0,8.3,0,12.5c0,2.4,0,4.8,0,7.2c0,1.1-0.3,1.5-1.5,1.5c-4.9,0-9.8,0-14.7,0
		c-1.1,0-1.6-0.3-1.5-1.5c0.1-3.4,0.1-6.9,0-10.3c0-1.1,0.2-1.6,1.5-1.6c1.6,0.1,3.2,0.1,4.8,0c1.4-0.1,1.2,0.9,1.2,1.8
		s0.1,1.7-1.3,1.7c-2.8,0-2.8,0.1-2.8,3c0,3.5,0,3.5,3.6,3.5c2,0,3.9,0,5.9,0c0.9,0,1.3-0.2,1.3-1.2c0-4.5-0.1-9.1,0-13.6
		c0-1.3-0.7-1.4-1.7-1.4c-5.4,0-10.8,0-16.2,0c-0.5,0-1,0-1.5-0.1C262.9,453.9,262.9,446.6,262.9,439.3z"/>
	<path fill="#C78C1C" d="M792,330.5c-5.4,0-10.8,0-16.2,0c-1.5,0-1.6,0-1.6-1.6c0-3.4,0-6.9,0-10.3c0-1.1,0.4-1.6,1.5-1.5
		c1.6,0.1,3.2,0.1,4.8,0c1.3,0,1.3,0.8,1.3,1.7c0,1-0.1,1.6-1.4,1.7c-2.8,0.1-2.8,0.1-2.8,3c0,3.7,0,3.7,3.7,3.7c2,0,3.9,0,5.9,0
		c0.9,0,1.3-0.3,1.3-1.2c0-4.2,0-8.5,0-12.7c0-1.1-0.5-1.3-1.5-1.3c-5,0-9.9,0-14.9,0c-2.9,0-2.7,0.3-2.7-2.7c0-6.1,0-12.1,0-18.2
		c0-1.9,0-2,1.9-2c4.7,0,9.5,0,14.2,0c1.6,0,1.6,0,1.6,1.6c0,3.4,0,6.9,0,10.3c0,1.2-0.4,1.5-1.5,1.5c-1.6-0.1-3.2,0-4.8,0
		c-0.8,0-1.1-0.3-1.2-1.2c-0.1-2.1,0-2.2,2.1-2.2c0.4,0,0.7,0,1.1,0c0.7,0,0.9-0.3,0.9-0.9c0-1.6,0-3.2,0-4.8c0-0.5-0.3-0.8-0.8-0.8
		c-3.3,0.1-6.5-0.2-9.8,0.2c0,0-0.1,0.1-0.1,0.2c-0.1,0.2-0.2,0.4-0.2,0.6c0,4.6,0,9.2-0.1,13.8c0,1.1,0.4,1.4,1.4,1.3
		c5.8,0,11.5,0,17.3-0.1c0.1,0,0.3,0.1,0.4,0.1C792,315.9,792,323.2,792,330.5z"/>
	<path fill="#C78C1C" d="M792,354.7c-5.3,0-10.7,0-16,0c-1.8,0-1.8,0-1.8-1.8c0-3.4,0-6.7,0-10.1c0-1.1,0.4-1.6,1.5-1.5
		c1.6,0.1,3.2,0.1,4.8,0c1.4,0,1.2,0.9,1.3,1.8c0,1-0.1,1.6-1.4,1.6c-2.8,0-2.8,0.1-2.8,3c0,0.9,0,1.8,0,2.6c0,0.8,0.4,1,1.1,1
		c2.9,0,5.8,0,8.8,0c0.9,0,1.1-0.5,1.1-1.2c0-4.2,0-8.5,0-12.7c0-1.2-0.5-1.4-1.6-1.4c-4.9,0-9.8,0-14.7,0c-0.5,0-1,0-1.5,0
		c-0.9,0.1-1.4-0.3-1.3-1.2c0-0.2,0-0.4,0-0.7c0-6.3,0-12.6,0-18.8c0-2,0-2,2.1-2c4.6,0,9.2,0,13.8,0c1.8,0,1.9,0,1.9,1.8
		c0,3.4,0,6.7,0,10.1c0,1.2-0.4,1.5-1.5,1.5c-1.5-0.1-3.1-0.1-4.6,0c-1.1,0-1.4-0.4-1.4-1.4c0-1.9-0.1-1.9,1.9-2c0.4,0,0.9,0,1.3,0
		c0.5,0,0.9-0.2,0.9-0.7c0-1.7,0-3.4,0-5c0-0.5-0.3-0.8-0.8-0.8c-3.1,0-6.1,0-9.2,0c-0.5,0-0.8,0.3-0.8,0.8c0,0.4,0,0.9,0,1.3
		c0,3.9,0,7.7,0,11.6c0,2.3,0,2.3,2.4,2.3c4.7,0,9.4,0,14,0c0.9,0,1.7,0.1,2.6,0.1C792,340,792,347.4,792,354.7z"/>
	<path fill="#C78C1C" d="M262.9,77.6c0.8,0.4,1.6,0.2,2.4,0.2c4.7,0,9.4,0,14,0c1.6,0,1.6,0,1.6,1.5c0,3.5,0,7,0,10.5
		c0,1.1-0.4,1.4-1.4,1.4c-1.6-0.1-3.2,0-4.8,0c-0.9,0-1.3-0.2-1.3-1.2c0-2.1-0.1-2.1,2.2-2.2c1.9,0,1.9,0,1.9-1.9
		c0-1.1-0.1-2.2,0-3.3c0.1-1.2-0.5-1.5-1.6-1.5c-2.6,0.1-5.3,0.1-7.9,0c-1.1,0-1.4,0.4-1.4,1.4c0,4.2,0,8.3,0,12.5
		c0,1.1,0.4,1.5,1.5,1.5c5,0,10.1,0,15.1,0c2.5,0,2.4-0.3,2.4,2.3c0,6.2,0,12.4,0,18.6c0,1.8,0,1.8-1.8,1.8c-4.7,0-9.4,0-14,0
		c-1.8,0-1.8,0-1.9-1.7c0-3.4,0-6.7,0-10.1c0-1,0.3-1.4,1.4-1.4c1.6,0.1,3.2,0,4.8,0c0.9,0,1.3,0.2,1.3,1.2c0.1,2.1,0.1,2.1-2.1,2.2
		c-2,0-2,0-2,2.1c0,1.4-0.6,3.2,0.4,4.2c0.9,0.9,2.7,0.2,4,0.3c1.5,0.1,3.1,0,4.6,0c1.7,0,1.7,0,1.8-1.7c0-4.3,0-8.6,0-12.9
		c0-1.5,0-1.5-1.6-1.5c-5.9,0-11.8,0-17.8,0C262.9,92.5,262.9,85,262.9,77.6z"/>
	<path fill="#C78C1C" d="M262.9,101.7c1.3,0.4,2.6,0.2,3.9,0.2c4.2,0,8.3,0,12.5,0c1.6,0,1.6,0,1.6,1.6c0,3.5,0,7,0,10.5
		c0,1.1-0.4,1.4-1.4,1.3c-1.6-0.1-3.2,0-4.8,0c-0.9,0-1.4-0.2-1.3-1.2c0-0.3,0-0.6,0-0.9c-0.1-0.9,0.3-1.3,1.3-1.3
		c0.9,0,1.9,0.4,2.5-0.3c0.7-0.7,0.2-1.8,0.3-2.7c0-0.8,0-1.6,0-2.4c0-1-0.4-1.3-1.3-1.2c-2.8,0-5.6,0-8.3,0c-0.9,0-1.2,0.3-1.2,1.2
		c0,4.3,0,8.6,0,12.9c0,0.9,0.3,1.3,1.3,1.3c2.3,0,4.5,0,6.8,0c3.1,0,6.1,0,9.2,0c1.7,0,1.8,0,1.8,1.6c0,6.5,0,13,0,19.5
		c0,1.6,0,1.6-1.5,1.6c-4.9,0-9.8,0-14.7,0c-1.2,0-1.5-0.5-1.5-1.5c0-3.4,0-6.9,0-10.3c0-1,0.3-1.5,1.4-1.4c1.7,0.1,3.4,0,5,0
		c0.9,0,1.1,0.3,1.1,1.2c0.1,2.1,0.1,2.2-2.1,2.2c-2,0-2,0-2,2.1c0,1.4-0.6,3.2,0.4,4.2c0.9,0.9,2.7,0.2,4,0.3c1.5,0.1,3.1,0,4.6,0
		c1.7,0,1.8,0,1.8-1.7c0-4.3,0-8.6,0-12.9c0-1.5,0-1.5-1.6-1.5c-5.9,0-11.8,0-17.8,0C262.9,116.6,262.9,109.2,262.9,101.7z"/>
	<path fill="#C78C1C" d="M262.9,366.9c5.5,0,10.9,0,16.4,0c1.6,0,1.6,0,1.6,1.5c0,3.5,0,7,0,10.5c0,1-0.4,1.4-1.4,1.4
		c-1.6-0.1-3.2,0-4.8,0c-0.9,0-1.4-0.3-1.3-1.3c0-0.3,0-0.6,0-0.9c-0.1-1,0.3-1.2,1.3-1.3c2.8-0.1,2.8-0.2,2.8-3c0-0.7,0-1.3,0-2
		c0-1.6,0-1.6-1.5-1.7c-2.6,0-5.3,0-7.9,0c-1,0-1.4,0.4-1.4,1.4c0,4.2,0,8.3,0,12.5c0,1.5,0.1,1.5,1.7,1.5c4.9,0,9.8,0,14.7,0
		c3,0,2.6-0.3,2.6,2.7c0,6.1,0,12.1,0,18.2c0,1.8,0,1.9-1.8,1.9c-4.7,0-9.3,0-14,0c-1.8,0-1.9,0-1.9-1.8c0-3.4,0-6.7,0-10.1
		c0-1.1,0.4-1.6,1.5-1.5c1.5,0.1,3.1,0.1,4.6,0c1.2-0.1,1.5,0.5,1.4,1.6c0,1.8,0,1.8-1.8,1.8c-0.2,0-0.4,0-0.7,0
		c-1.6,0-1.6,0-1.6,1.5c0,1.2,0,2.5,0,3.7c0,0.9,0.2,1.4,1.2,1.3c2.8,0,5.7,0,8.5,0c0.9,0,1.1-0.5,1.1-1.2c0-4.5,0-9.1,0-13.6
		c0-1.3-0.7-1.3-1.7-1.3c-5.3,0-10.5,0-15.8,0c-0.7,0-1.3-0.1-2-0.1C262.9,381.6,262.9,374.2,262.9,366.9z"/>
	<path fill="#C78C1C" d="M262.9,342.8c5.5,0,11,0,16.4,0c1.6,0,1.6,0,1.6,1.5c0,3.5,0,7,0,10.5c0,1-0.3,1.4-1.4,1.4
		c-1.6-0.1-3.2,0-4.8,0c-0.9,0-1.4-0.3-1.3-1.3c0-0.3,0-0.6,0-0.9c-0.1-0.9,0.3-1.2,1.3-1.3c2.8-0.1,2.8-0.2,2.8-3
		c0-0.9,0-1.8,0-2.6c0-0.8-0.4-1-1.1-1c-2.8,0-5.7,0-8.5,0c-1,0-1.2,0.5-1.2,1.4c0,4.2,0,8.3,0,12.5c0,1.5,0.1,1.5,1.7,1.5
		c4.9,0,9.8,0,14.7,0c3,0,2.6-0.3,2.7,2.7c0,6,0,12,0,18c0,2.1,0,2.1-2.2,2.1c-4.6,0-9.2,0-13.8,0c-1.7,0-1.7,0-1.7-1.7
		c0-3.4,0-6.7,0-10.1c0-1.1,0.3-1.6,1.5-1.5c1.5,0.1,3.1,0,4.6,0c1.4,0,1.4,0.1,1.5,1.7c0,1,0,1.6-1.3,1.6c-2.8,0-2.8,0.1-2.8,2.8
		c0,1.2-0.5,2.6,0.2,3.4c0.8,0.9,2.4,0.3,3.6,0.3c1.9,0.1,3.8,0,5.7,0c0.9,0,1.3-0.2,1.3-1.2c0-4.5-0.1-9.1,0-13.6
		c0-1.3-0.7-1.3-1.7-1.3c-5.3,0-10.5,0-15.8,0c-0.7,0-1.3-0.1-2-0.1C262.9,357.4,262.9,350.1,262.9,342.8z"/>
	<path fill="#C78C1C" d="M262.9,391c5.5,0,11,0,16.4,0c1.6,0,1.6,0,1.6,1.5c0,3.4,0,6.9,0,10.3c0,1.1-0.2,1.6-1.4,1.6
		c-1.6-0.1-3.2,0-4.8,0c-0.9,0-1.3-0.4-1.3-1.3c0-2-0.1-2,2-2c2,0,2,0,2.1-2c0-1.1,0-2.2,0-3.3c0-0.9-0.2-1.4-1.2-1.4
		c-2.8,0-5.7,0-8.5,0c-0.7,0-1,0.3-1,1.1c0,4.4,0,8.8,0,13.1c0,1.2,0.8,1.2,1.6,1.2c4.3,0,8.6,0,12.9,0c1.4,0,3.2-0.7,4.2,0.4
		c0.9,0.9,0.3,2.7,0.3,4c0,5.5,0,11.1,0,16.7c0,1.7,0,1.7-1.7,1.7c-4.7,0-9.5,0-14.2,0c-1.7,0-1.7,0-1.7-1.7c0-3.4,0-6.7,0-10.1
		c0-1.1,0.3-1.6,1.5-1.5c1.5,0.1,3.1,0,4.6,0c1.4,0,1.4,0.1,1.4,1.8c0,1,0,1.6-1.3,1.6c-2.8,0-2.8,0.1-2.7,2.8
		c0,1.2-0.5,2.6,0.2,3.4c0.8,0.9,2.4,0.3,3.6,0.3c1.9,0.1,3.8,0,5.7,0c0.9,0,1.3-0.2,1.3-1.2c0-4.5-0.1-9.1,0-13.6
		c0-1.3-0.7-1.4-1.7-1.4c-5,0-10.1,0-15.1,0c-0.9,0-1.7-0.1-2.6-0.1C262.9,405.7,262.9,398.4,262.9,391z"/>
	<path fill="#C78C1C" d="M743.8,0c0,5.8,0,11.5,0,17.3c0,1.7,0,1.7,1.7,1.7c4,0,8,0,12,0c1.6,0,1.6,0,1.6-1.6c0-2.6,0-5.3,0-7.9
		c0-1.1-0.4-1.4-1.4-1.4c-1.3,0.1-2.6,0-3.9,0c-0.9,0-1.4,0.2-1.3,1.2c0,0.4,0,0.7,0,1.1c0,1.8,0,1.7-1.9,1.8c-1,0-1.6-0.1-1.6-1.4
		c0.1-1.7,0-3.4,0-5c0-0.7,0.3-1.1,1-1.1c3.8,0,7.6,0,11.4,0c1.1,0,1,0.7,1,1.5c0,3.4,0,6.9,0,10.3c0,1.4,0,2.8,0,4.2
		c0,1.7,0,1.7-1.7,1.7c-4.5,0-8.9,0-13.4,0c-1.9,0-3.8,0-5.7,0.1c-1.1,0-1.5-0.4-1.5-1.6c0.1-5.1,0-10.2,0-15.3
		c0-2.4,0.2-2.2-2.3-2.2c-4,0-8,0-12,0c-1.6,0-1.7,0-1.7,1.7c0,2.6,0,5.1,0,7.7c0,1.1,0.4,1.6,1.5,1.5c1.3-0.1,2.6,0,3.9,0
		c0.8,0,1.2-0.4,1.2-1.2c0-0.4,0-0.7,0-1.1c0-1.8,0.9-2.4,2.6-1.9c0.6,0.2,0.6,0.6,0.6,1c0,1.8,0,3.7,0,5.5c0,0.7-0.3,1.1-1,1.1
		c-3.7,0-7.3,0-11,0c-1,0-1.2-0.4-1.2-1.3c0-3.4,0-6.7,0-10.1c0-2.1,0-4.2,0-6.4C728.7,0,736.2,0,743.8,0z"/>
	<path fill="#C78C1C" d="M719.7,0c0,5.8,0,11.5,0,17.3c0,1.7,0,1.7,1.7,1.7c4,0,8,0,12,0c1.6,0,1.6,0,1.6-1.6c0-2.6,0-5.3,0-7.9
		c0-1.1-0.4-1.4-1.4-1.4c-1.3,0.1-2.6,0.1-3.9,0c-1.1-0.1-1.4,0.5-1.3,1.4c0,0.3,0,0.6,0,0.9c0,1.8,0,1.7-1.9,1.8
		c-1,0-1.6-0.1-1.6-1.4c0.1-1.7,0-3.4,0-5c0-0.7,0.3-1.1,1-1c3.8,0,7.6,0,11.4,0c1.1,0,1,0.7,1,1.5c0,3.4,0,6.7,0,10.1
		c0,1.4,0,2.8,0,4.2c0,1.9,0,2-1.9,2c-4.5,0-8.9,0-13.4,0c-1.8,0-3.6,0-5.5,0.1c-1.1,0-1.5-0.4-1.5-1.6c0.1-5.1,0-10.2,0-15.3
		c0-2.3,0.2-2.2-2.1-2.2c-4,0-8,0-12,0c-1.9,0-1.9,0-1.9,2c0,2.5,0,5,0,7.4c0,1.1,0.4,1.6,1.5,1.5c1.3-0.1,2.6,0,3.9,0
		c0.8,0,1.2-0.4,1.2-1.2c0-0.4,0-0.7,0-1.1c0-1.8,0.9-2.4,2.6-1.9c0.6,0.2,0.6,0.6,0.6,1c0,1.8,0,3.7,0,5.5c0,0.7-0.3,1.1-1,1.1
		c-3.7,0-7.3,0-11,0c-1,0-1.3-0.4-1.2-1.3c0-3.3,0-6.6,0-9.9c0-2.2,0-4.4,0-6.6C704.5,0,712,0,719.7,0z"/>
	<path fill="#C78C1C" d="M695.5,0c0,5.8,0,11.5,0,17.3c0,1.7,0,1.7,1.7,1.7c4,0,8,0,12,0c1.6,0,1.6,0,1.6-1.6c0-2.6,0-5.3,0-7.9
		c0-1.1-0.4-1.4-1.4-1.4c-1.3,0.1-2.6,0.1-3.9,0c-1.1-0.1-1.4,0.5-1.3,1.4c0,0.3,0,0.6,0,0.9c0,1.8,0,1.7-1.9,1.7
		c-1,0-1.6-0.2-1.6-1.4c0.1-1.7,0-3.4,0-5c0-0.7,0.3-1.1,1-1c3.8,0,7.6,0,11.4,0c1.1,0,1,0.7,1,1.5c0,3.3,0,6.6,0,9.9
		c0,1.5,0,2.9,0,4.4c0,1.9,0,2-1.9,2c-4.5,0-8.9,0-13.4,0c-1.8,0-3.6,0-5.5,0.1c-1.1,0-1.5-0.4-1.5-1.6c0.1-5.1,0-10.2,0-15.3
		c0-2.3,0.2-2.2-2.1-2.2c-3.9,0-7.9,0-11.8,0c-2.1,0-2.1,0-2.1,2.2c0,2.4,0,4.8,0,7.2c0,1.1,0.4,1.6,1.5,1.5c1.3-0.1,2.6,0,3.9,0
		c0.8,0,1.2-0.4,1.2-1.2c0-0.4,0-0.7,0-1.1c0-1.8,0.9-2.4,2.6-1.9c0.6,0.2,0.6,0.6,0.6,1c0,1.8,0,3.7,0,5.5c0,0.7-0.3,1.1-1,1.1
		c-3.7,0-7.3,0-11,0c-0.9,0-1.3-0.4-1.2-1.3c0-3.3,0-6.6,0-9.9c0-2.2,0-4.4,0-6.6C680.4,0,688,0,695.5,0z"/>
	<path fill="#C78C1C" d="M647.4,0c0,5.7,0,11.4,0,17.1c0,1.9,0,2,1.9,2c3.9,0,7.9,0,11.8,0c1.6,0,1.6,0,1.6-1.6c0-2.6,0-5.3,0-7.9
		c0-1.1-0.4-1.4-1.4-1.4c-1.3,0.1-2.6,0.1-3.9,0c-1.1-0.1-1.4,0.4-1.3,1.4c0,0.3,0,0.6,0,0.9c0,1.8,0,1.8-1.9,1.7
		c-1.5,0-1.5,0-1.5-1.6s0-3.2,0-4.8c0-0.7,0.3-1.1,1-1.1c3.8,0,7.6,0,11.4,0c0.9,0,1.1,0.5,1.1,1.2c0,3.1,0,6.1,0,9.2
		c0,1.8,0,3.7,0,5.5c0,1.7,0,1.7-1.9,1.8c-4.3,0-8.6,0-12.9,0c-1.9,0-3.8,0.1-5.7,0.1c-1.6,0-1.7-0.1-1.7-1.8c0-5.1,0-10.2,0-15.3
		c0-1.9,0-2-1.9-2c-4.1,0-8.2,0-12.3,0c-1.8,0-1.8,0-1.9,1.7c0,2.6,0,5.1,0,7.7c0,1.1,0.4,1.6,1.5,1.5c1.3-0.1,2.6,0,3.9,0
		c0.8,0,1.2-0.4,1.2-1.2c0-0.4,0-0.7,0-1.1c0-1.8,0.9-2.4,2.6-1.9c0.6,0.2,0.6,0.6,0.6,1c0,1.8,0,3.7,0,5.5c0,0.7-0.3,1.1-1,1.1
		c-3.7,0-7.3,0-11,0c-0.9,0-1.3-0.4-1.2-1.3c0-3.3,0-6.6,0-9.9c0-2.2,0-4.4,0-6.6C632.2,0,639.8,0,647.4,0z"/>
	<path fill="#C78C1C" d="M599.2,0c0,5.7,0,11.4,0,17.1c0,1.9,0,2,1.9,2c3.9,0,7.9,0,11.8,0c1.6,0,1.6,0,1.6-1.6c0-2.6,0-5.3,0-7.9
		c0-1.1-0.4-1.4-1.4-1.4c-1.3,0.1-2.6,0.1-3.9,0c-1.1-0.1-1.4,0.4-1.3,1.4c0,0.3,0,0.6,0,0.9c0,1.8,0,1.8-1.9,1.7
		c-1.5,0-1.5,0-1.6-1.6c0-1.6,0-3.2,0-4.8c0-0.7,0.3-1.1,1-1.1c3.8,0,7.6,0,11.4,0c1.1,0,1.1,0.7,1.1,1.5c0,3.4,0,6.9,0,10.3
		c0,1.4,0,2.8,0,4.2c0,1.7,0,1.7-1.9,1.7c-4.3,0-8.6,0-12.9,0c-2,0-3.9,0-5.9,0.1c-1.1,0-1.5-0.5-1.5-1.6c0.1-5.2,0-10.4,0-15.6
		c0-1.9,0-1.9-1.9-1.9c-4.2,0-8.3,0-12.5,0c-1.6,0-1.6,0-1.6,1.5c0,2.7,0,5.4,0,8.1c0,0.9,0.3,1.3,1.3,1.3c1.4,0,2.8,0,4.2,0
		c0.8,0,1.2-0.4,1.2-1.2c0-0.4,0-0.7,0-1.1c0-1.8,0.9-2.4,2.6-1.9c0.5,0.2,0.6,0.6,0.6,1c0,1.8,0,3.7,0,5.5c0,0.7-0.3,1.1-1,1.1
		c-3.7,0-7.3,0-11,0c-1,0-1.2-0.4-1.2-1.3c0-3.4,0-6.9,0-10.3c0-2,0-4.1,0-6.1C584,0,591.6,0,599.2,0z"/>
	<path fill="#C78C1C" d="M575.1,0c0,5.7,0,11.4,0,17.1c0,1.9,0,2,1.9,2c3.9,0,7.9,0,11.8,0c1.6,0,1.6,0,1.6-1.6c0-2.6,0-5.3,0-7.9
		c0-1.1-0.4-1.4-1.4-1.4c-1.3,0.1-2.6,0.1-3.9,0c-1.1-0.1-1.4,0.4-1.3,1.4c0,0.3,0,0.6,0,0.9c0,1.8,0,1.8-1.8,1.7
		c-1.5,0-1.5,0-1.6-1.6c0-1.6,0-3.2,0-4.8c0-0.7,0.3-1.1,1-1.1c3.8,0,7.6,0,11.4,0c1.1,0,1,0.7,1,1.5c0,3.7,0,7.4,0,11.2
		c0,1.1,0,2.2,0,3.3c0,1.7,0,1.7-1.9,1.7c-4.4,0-8.8,0-13.1,0c-1.9,0-3.8,0-5.7,0.1c-1.2,0-1.5-0.5-1.5-1.6c0-5.2,0-10.4,0-15.5
		c0-1.9,0-1.9-1.9-1.9c-4.2,0-8.3,0-12.5,0c-1.6,0-1.6,0-1.6,1.5c0,2.7,0,5.4,0,8.1c0,0.9,0.3,1.3,1.3,1.3c1.4,0,2.8,0,4.2,0
		c0.8,0,1.2-0.4,1.2-1.2c0-0.4,0-0.7,0-1.1c0-1.8,0.9-2.4,2.6-1.9c0.5,0.2,0.6,0.6,0.6,1c0,1.8,0,3.7,0,5.5c0,0.7-0.3,1.1-1,1.1
		c-3.7,0-7.3,0-11,0c-1,0-1.2-0.4-1.2-1.3c0-3.4,0-6.9,0-10.3c0-2,0-4.1-0.1-6.1C559.9,0,567.5,0,575.1,0z"/>
	<path fill="#C78C1C" d="M623.3,0c0,5.7,0,11.4,0,17.1c0,1.9,0,2,1.9,2c3.9,0,7.9,0,11.8,0c1.6,0,1.6,0,1.6-1.6c0-2.6,0-5.3,0-7.9
		c0-1.1-0.4-1.4-1.4-1.4c-1.3,0.1-2.6,0.1-3.9,0c-1.1-0.1-1.4,0.4-1.3,1.4c0,0.3,0,0.6,0,0.9c0,1.8,0,1.8-1.9,1.7
		c-1.5,0-1.5,0-1.5-1.6s0-3.2,0-4.8c0-0.7,0.3-1.1,1-1.1c3.8,0,7.6,0,11.4,0c0.9,0,1.1,0.5,1.1,1.2c0,2.6,0,5.3,0,7.9
		c0,2,0,4.1,0,6.1c0,2.5,0.3,2.4-2.3,2.4c-4.9,0-9.8,0-14.7,0c-1.2,0-2.5,0-3.7,0.1c-1.1,0-1.5-0.4-1.5-1.6c0.1-5.2,0-10.4,0-15.6
		c0-1.9,0-1.9-1.9-2c-4.1,0-8.2,0-12.3,0c-1.8,0-1.8,0-1.9,1.8c0,2.6,0,5.1,0,7.7c0,1.1,0.4,1.6,1.5,1.5c1.3-0.1,2.6,0,3.9,0
		c0.8,0,1.2-0.4,1.2-1.2c0-0.4,0-0.7,0-1.1c0-1.8,0.9-2.4,2.6-1.9c0.6,0.2,0.6,0.6,0.6,1c0,1.8,0,3.7,0,5.5c0,0.7-0.3,1.1-1,1.1
		c-3.7,0-7.3,0-11,0c-0.9,0-1.3-0.4-1.2-1.3c0-2.4,0-4.8,0-7.2c0-3.1,0-6.1,0-9.2C608.1,0,615.7,0,623.3,0z"/>
	<path fill="#C78C1C" d="M671.5,0c0,5.7,0,11.4,0,17.1c0,1.9,0,2,1.9,2c3.9,0,7.9,0,11.8,0c1.6,0,1.6,0,1.6-1.6c0-2.6,0-5.3,0-7.9
		c0-1.1-0.4-1.4-1.4-1.4c-1.3,0.1-2.6,0.1-3.9,0c-1.1-0.1-1.4,0.5-1.3,1.4c0,0.3,0,0.6,0,0.9c0,1.8,0,1.7-1.9,1.7
		c-1,0-1.6-0.1-1.6-1.4c0.1-1.7,0-3.4,0-5c0-0.7,0.3-1.1,1-1.1c3.8,0,7.6,0,11.4,0c0.9,0,1.1,0.5,1.1,1.3c0,3.1,0,6.1,0,9.2
		c0,1.8,0,3.7,0,5.5c0,1.7,0,1.7-1.9,1.7c-4.3,0-8.6,0-12.9,0c-1.9,0-3.8,0.1-5.7,0.1c-1.7,0-1.7-0.1-1.7-1.8c0-5,0-10.1,0-15.1
		c0-2.2,0-2.2-2.1-2.2c-4,0-8,0-12,0c-1.8,0-1.9,0-1.9,1.7c0,2.6,0,5.1,0,7.7c0,1.1,0.4,1.6,1.5,1.5c1.3-0.1,2.6,0,3.9,0
		c0.8,0,1.2-0.4,1.2-1.2c0-0.4,0-0.7,0-1.1c0-1.8,0.9-2.4,2.6-1.9c0.6,0.2,0.6,0.6,0.6,1c0,1.8,0,3.7,0,5.5c0,0.7-0.3,1.1-1,1.1
		c-3.7,0-7.3,0-11,0c-0.9,0-1.3-0.4-1.2-1.3c0-3.3,0-6.6,0-9.9c0-2.2,0-4.4,0-6.6C656.3,0,663.9,0,671.5,0z"/>
	<path fill="#C78C1C" d="M262.9,463.4c5.5,0,11.1,0,16.6-0.1c1,0,1.4,0.3,1.4,1.3c-0.1,3.6,0,7.2,0,10.7c0,0.9-0.3,1.3-1.3,1.3
		c-1.7,0-3.4-0.1-5,0c-1.4,0-1.1-1-1.2-1.8c-0.1-0.9,0.1-1.5,1.3-1.5c2.8-0.1,2.8-0.2,2.8-3c0-3.7,0-3.7-3.7-3.7c-1.9,0-3.8,0-5.7,0
		c-1,0-1.5,0.3-1.5,1.3c0,4.2,0.1,8.5,0,12.7c0,1.3,0.7,1.4,1.7,1.4c4.7,0,9.5,0,14.2,0c0.6,0,1.2,0,1.8,0c1-0.1,1.4,0.4,1.4,1.4
		c0,3.3,0,6.6,0,9.9c0,3.4,0,6.7,0,10.1c0,1.1-0.4,1.5-1.5,1.5c-4.9,0-9.8,0-14.7,0c-1.1,0-1.6-0.3-1.5-1.5c0.1-3.5,0.1-7,0-10.5
		c0-1.1,0.4-1.4,1.4-1.4c1.6,0.1,3.2,0.1,4.8,0c0.9,0,1.4,0.3,1.3,1.3c0,0.3,0,0.6,0,0.9c0.1,0.9-0.3,1.3-1.3,1.3
		c-0.9,0-2.1-0.5-2.7,0.3c-0.6,0.7-0.2,1.8-0.2,2.8c0,3.4,0,3.4,3.5,3.4c2,0,4.1,0,6.1,0c0.9,0,1.3-0.3,1.3-1.2
		c0-4.5-0.1-9.1,0-13.6c0-1.3-0.7-1.3-1.7-1.3c-5.5,0-11.1,0-16.6,0c-0.4,0-0.7,0-1.1,0C262.9,478,262.9,470.7,262.9,463.4z"/>
	<path fill="#C78C1C" d="M792,402.9c-5.4,0-10.8,0-16.2,0c-1.5,0-1.6,0-1.6-1.6c0-3.4,0-6.7,0-10.1c0-1.7,0-1.8,1.7-1.8
		c1.5,0,2.9,0,4.4,0c1.1,0,1.6,0.3,1.6,1.5c0,1.8,0,1.9-1.7,1.9c-2.7,0-2.5-0.3-2.5,2.5c0,1.3-0.5,2.9,0.3,3.8c0.9,1,2.6,0.3,4,0.4
		c1.7,0.1,3.4,0,5,0s1.6,0,1.6-1.5c0-4.1,0-8.2,0-12.3c0-1.5,0-1.6-1.6-1.6c-4.9,0-9.8,0-14.7,0c-0.5,0-1,0-1.5,0
		c-0.8,0-1.3-0.2-1.2-1.1c0-0.3,0-0.6,0-0.9c0-6.3,0-12.6,0-18.8c0-1.9,0-1.9,1.9-1.9c4.7,0,9.5,0,14.2,0c1.1,0,1.6,0.3,1.5,1.5
		c-0.1,3.5-0.1,7,0,10.5c0,1.1-0.4,1.4-1.4,1.4c-1.6-0.1-3.2,0-4.8,0c-0.9,0-1.3-0.3-1.3-1.3c-0.1-2-0.1-2,2-2.1c0.4,0,0.7,0,1.1,0
		c0.6,0,1-0.2,1-0.9c0-1.6,0-3.2,0-4.8c0-0.6-0.3-0.9-0.9-0.9c-3,0-6,0-9,0c-0.8,0-1,0.4-1,1.1c0,4.5,0,9.1,0,13.6
		c0,1.1,0.5,1.3,1.5,1.3c5.7,0,11.4,0,17.1,0c0.2,0,0.4-0.1,0.6-0.2C792,388,792,395.4,792,402.9z"/>
	<path fill="#C78C1C" d="M792,427c-5.3,0-10.7,0-16,0c-1.8,0-1.8,0-1.8-1.8c0-3.3,0-6.6,0-9.9c0-1.8,0-1.8,1.9-1.8
		c1.5,0,2.9,0,4.4,0c0.9,0,1.3,0.3,1.3,1.3c0.1,2,0.1,2.1-1.9,2.1c-0.4,0-0.7,0-1.1,0c-0.8,0-1.2,0.2-1.2,1.1c0,1.5,0,2.9,0,4.4
		c0,0.9,0.4,1.2,1.2,1.2c2.8,0,5.7,0,8.5,0c0.8,0,1.2-0.2,1.2-1.1c0-4.4,0-8.8,0-13.1c0-1.3-0.8-1.1-1.6-1.1c-4.9,0-9.8,0-14.7,0
		c-3.1,0-2.7,0.4-2.7-2.8c0-6,0-12,0-18c0-1.9,0-2,1.9-2c4.7,0,9.3,0,14,0c1.7,0,1.8,0,1.8,1.6c0,3.4,0,6.9,0,10.3
		c0,1-0.3,1.4-1.4,1.4c-1.6-0.1-3.2,0-4.8,0c-0.9,0-1.3-0.3-1.3-1.2c-0.1-2-0.1-2.1,2-2.1c0.4,0,0.7,0,1.1,0c0.6,0,1-0.2,1-0.9
		c0-1.6,0-3.2,0-4.8c0-0.6-0.3-0.9-0.9-0.9c-3,0-6,0-9,0c-0.8,0-1,0.4-1,1.1c0,4.5,0,9.1,0,13.6c0,0.9,0.3,1.3,1.3,1.3
		c5.9,0,11.8-0.1,17.7-0.1c0.1,0,0.1-0.1,0.2-0.1C792,412.1,792,419.5,792,427z"/>
	<path fill="#C78C1C" d="M262.9,53.9c0.3,0,0.6-0.1,0.9-0.1c5.2,0,10.4,0,15.5,0c1.6,0,1.6,0,1.6,1.5c0,3.5,0,7,0,10.5
		c0,0.9-0.3,1.3-1.3,1.3c-1.7-0.1-3.4-0.1-5,0c-1.2,0.1-1.3-0.7-1.2-1.5c0.1-0.8-0.4-1.8,1.1-1.9c0.9,0,2.1,0.4,2.7-0.3
		c0.6-0.8,0.2-2,0.2-3c0-3.3,0-3.3-3.4-3.3c-2,0-4.1,0-6.1,0c-0.9,0-1.3,0.3-1.3,1.3c0,4.2,0.1,8.5,0,12.7c0,1.3,0.6,1.4,1.6,1.4
		c4.8,0,9.6,0,14.5,0c0.5,0,1,0,1.5,0c1.2-0.1,1.5,0.4,1.5,1.5c0,6.6,0,13.1,0,19.7c0,1.5,0,1.5-1.6,1.5c-4.8,0-9.6,0-14.5,0
		c-1.5,0-1.6,0-1.6-1.6c0-3.4,0-6.7,0-10.1c0-1,0.2-1.6,1.4-1.6c1.6,0.1,3.2,0.1,4.8,0c0.9,0,1.3,0.3,1.3,1.3c0,2,0,2.1-2,2.1
		c-0.4,0-0.7,0-1.1,0c-0.7,0-1.1,0.3-1.1,1.1c0,1.5,0,2.9,0,4.4c0,0.8,0.4,1.2,1.2,1.2c2.8,0,5.5,0,8.3,0c0.9,0,1.4-0.3,1.3-1.3
		c0-0.4,0-0.7,0-1.1c0-3.8,0-7.6,0-11.4c0-2.7,0.2-2.4-2.3-2.4c-5.7,0-11.4,0-17.1,0C262.9,68.5,262.9,61.2,262.9,53.9z"/>
	<path fill="#C78C1C" d="M262.9,29.8c5.6-0.3,11.2,0,16.9-0.1c0.8,0,1.2,0.3,1.2,1.1c0,3.7,0,7.5,0,11.2c0,0.8-0.3,1-1.1,1
		c-1.8,0-3.5,0-5.3,0c-0.8,0-1.2-0.2-1.2-1.1c-0.1-2.1,0-2.2,2.1-2.3c2-0.1,2-0.1,2-2.1c0-1.2,0-2.3,0-3.5c0-0.7-0.3-1.1-1-1.1
		c-2.9,0-5.8,0-8.8,0c-0.8,0-1,0.5-1,1.1c0,4.4,0,8.8,0,13.2c0,1.1,0.7,1.1,1.5,1.1c5,0,9.9,0,14.9,0c3,0,2.6-0.3,2.6,2.7
		c0,6.1,0,12.1,0,18.2c0,1.8,0,1.8-1.8,1.8c-4.7,0-9.4,0-14,0c-1.8,0-1.9,0-1.9-1.8c0-3.4,0-6.7,0-10.1c0-1,0.3-1.4,1.4-1.4
		c1.6,0.1,3.2,0,4.8,0c0.9,0,1.3,0.2,1.3,1.2c0.1,2.1,0.1,2.1-2.1,2.2c-1.9,0-2,0-2,1.9c0,1.5-0.7,3.4,0.4,4.4
		c1,0.9,2.8,0.2,4.2,0.3c1.5,0.1,2.9,0,4.4,0c1.7,0,1.7,0,1.8-1.7c0-4.3,0-8.6,0-12.9c0-1.5,0-1.5-1.6-1.5c-5.3,0-10.5,0-15.8,0
		c-0.7,0-1.3,0-2,0C262.9,44.4,262.9,37.1,262.9,29.8z"/>
	<path fill="#C78C1C" d="M768,0c0,5.8,0,11.7,0,17.5c0,1.5,0,1.6,1.6,1.6c4.1,0,8.2,0,12.3,0c1.1,0,1.5-0.4,1.5-1.5
		c-0.1-2.7,0-5.4,0-8.1c0-0.9-0.3-1.3-1.3-1.3c-1.4,0-2.8,0.1-4.2,0c-1,0-1.3,0.4-1.2,1.3c0,0.4,0,0.9,0,1.3
		c0.2,1.2-0.4,1.5-1.5,1.5c-1.9,0-1.9,0-1.9-1.9c0-1.5,0-2.9,0-4.4c0-0.8,0.3-1.2,1.1-1.2c3.7,0,7.5,0,11.2,0c0.8,0,1.2,0.3,1.2,1.2
		c0,5.1,0,10.2,0,15.3c0,1-0.5,1.2-1.4,1.2c-2.9,0-5.8,0-8.8,0c-3.1,0-6.3,0.1-9.4,0.1c-0.4,0-0.9-0.1-1.3-0.1c-1,0-1.3-0.5-1.3-1.5
		c0-5,0-9.9,0-14.9c0-0.5,0-1,0-1.5c0.1-0.8-0.3-1.2-1.1-1.2c-4.5,0-9.1,0-13.6,0c-0.9,0-1.3,0.3-1.3,1.3c0,2.8,0,5.6,0,8.3
		c0,0.9,0.3,1.4,1.2,1.3c1.4,0,2.8,0,4.2,0c0.9,0,1.2-0.4,1.1-1.2c0-0.5,0-1,0-1.5c-0.1-1.2,0.5-1.5,1.6-1.4c1.7,0.1,1.7,0,1.7,1.7
		c0,1.6,0,3.2,0,4.8c0,0.9-0.5,1.1-1.2,1.1c-3.6,0-7.2,0-10.7,0c-0.9,0-1.3-0.4-1.3-1.3c0-3.1,0-6.3,0-9.4c0-2.3,0-4.7,0-7
		C752.8,0,760.4,0,768,0z"/>
	<path fill="#C78C1C" d="M551,0c0,5.3,0.1,10.5,0.1,15.8c0,0.6,0,1.2,0,1.8c-0.1,1.1,0.3,1.6,1.5,1.6c2-0.1,3.9,0,5.9,0
		c2.1,0,4.2,0,6.4,0c1,0,1.6-0.2,1.6-1.4c-0.1-2.7,0-5.4,0-8.1c0-0.9-0.3-1.3-1.2-1.3c-1.5,0.1-2.9,0-4.4,0c-0.7,0-1.1,0.3-1,1.1
		c0,0.4,0,0.9,0,1.3c0,1.7,0,1.7-1.7,1.7c-1.6,0-1.7,0-1.7-1.7c0-1.5,0-3.1,0-4.6c0-0.8,0.3-1.2,1.1-1.2c3.7,0,7.5,0,11.2,0
		c0.8,0,1.2,0.3,1.2,1.2c0,5.1,0,10.2,0,15.3c0,1-0.5,1.2-1.4,1.2c-3,0-6,0-9,0c-3.3,0-6.6,0-9.9,0c-1.6,0-1.8,0.2-1.8-1.8
		c0-4.8,0-9.6,0-14.5c0-0.4,0-0.7,0-1.1c0-1.6,0-1.6-1.8-1.6c-0.6,0-1.2,0-1.8,0c-3.6,0-7.2,0-10.7,0c-1.9,0-1.9,0-1.9,2
		c0,2.6,0,5.1,0,7.7c0,0.9,0.3,1.4,1.3,1.3c0.6,0,1.2,0,1.8,0c1.1-0.1,2.3,0.4,3.2-0.2c0.9-0.6,0.3-1.9,0.4-2.9
		c0.1-0.9,0.5-1,1.3-1.1c2-0.1,2.1,0,2.1,2c0,1.5,0,2.9,0,4.4c0,0.8-0.3,1.2-1.2,1.2c-3.7,0-7.3,0-11,0c-1.2,0-1.3-0.7-1.2-1.6
		c0-4.6,0-9.2,0-13.8c0-0.8-0.1-1.6-0.1-2.4C535.8,0,543.4,0,551,0z"/>
	<path fill="#C78C1C" d="M792,451.1c-5.3,0-10.7,0-16,0c-1.8,0-1.8,0-1.8-1.8c0-3.2,0-6.4,0-9.6c0-2,0-2,2.1-2c1.4,0,2.8,0,4.2,0
		c0.9,0,1.3,0.3,1.3,1.3c0.1,2,0.1,2.1-1.9,2.1c-0.3,0-0.6,0-0.9,0c-1-0.1-1.5,0.2-1.4,1.3c0.1,1.4,0,2.8,0,4.2
		c0,0.8,0.3,1.2,1.2,1.2c2.9,0,5.8,0,8.8,0c0.8,0,1-0.4,1-1.1c0-4.4,0-8.8,0-13.1c0-1.3-0.8-1.2-1.6-1.2c-4.9,0-9.8,0-14.7,0
		c-3.1,0-2.7,0.4-2.8-2.8c0-6,0-12,0-18c0-2,0-2,1.9-2c4.7,0,9.3,0,14,0c1.7,0,1.8,0,1.8,1.6c0,3.4,0,6.7,0,10.1
		c0,1.1-0.3,1.6-1.5,1.5c-1.6-0.1-3.2-0.1-4.8,0c-1.4,0.1-1.2-0.9-1.2-1.8s0.1-1.5,1.3-1.5c2.8-0.1,2.8-0.1,2.8-3
		c0-3.6,0-3.6-3.5-3.6c-2,0-3.9,0-5.9,0c-1,0-1.5,0.2-1.5,1.3c0,4.5,0,8.9,0,13.4c0,0.9,0.3,1.4,1.2,1.3c5.9,0,11.8-0.1,17.7-0.1
		c0.1,0,0.1-0.1,0.2-0.1C792,436.2,792,443.7,792,451.1z"/>
	<path fill="#C78C1C" d="M792,41.6c-5,0-10.1-0.1-15.1-0.1c-0.5,0-1,0-1.5,0c-0.9,0.1-1.2-0.3-1.2-1.2c0-3.7,0-7.4,0-11.2
		c0-0.8,0.3-1.2,1.2-1.2c1.7,0,3.4,0.1,5,0c1,0,1.4,0.3,1.4,1.4c0,2,0,2-2,2.1c-0.4,0-0.7,0-1.1,0c-0.7,0-1.1,0.2-1.1,1
		c0,1.6,0,3.2,0,4.8c0,0.5,0.3,0.8,0.8,0.8c3.1,0,6.1,0,9.2,0c0.6,0,0.9-0.3,0.9-0.9c0-0.4,0-0.9,0-1.3c0-10.1,0-20.1,0-30.2
		c0-0.4,0-0.7,0-1.1c0.1-0.9-0.3-1.1-1.2-1.1c-4.6,0-9.2,0-13.8,0c-0.9,0-1.2,0.4-1.1,1.2c0,2.8,0,5.7,0,8.5c0,0.8,0.3,1.2,1.1,1.2
		c1.5,0,2.9,0,4.4,0c0.8,0,1.2-0.3,1.2-1.2c0-0.4,0-0.7,0-1.1c0.1-1.8,0.7-2.2,2.5-1.9c0.5,0.1,0.8,0.4,0.8,0.9c0,1.9,0,3.8,0,5.7
		c0,0.7-0.4,0.9-1,0.9c-3.7,0-7.4,0-11.2,0c-0.7,0-1.1-0.3-1-1c0-0.2,0-0.4,0-0.7c0-5.3,0-10.7,0-16c7.6,0,15.2,0,22.8,0
		C792,13.9,792,27.8,792,41.6z"/>
	<path fill="#C78C1C" d="M792,210.4c-0.7-0.4-1.4-0.2-2.1-0.2c-4.6,0-9.2,0-13.8,0c-1.8,0-1.8,0-1.8-1.8c0-3.4,0-6.7,0-10.1
		c0-1.1,0.3-1.6,1.5-1.5c1.6,0.1,3.2,0.1,4.8,0c0.9,0,1.3,0.2,1.3,1.2c0,2,0,2.1-2,2.2c-0.4,0-0.7,0-1.1,0c-0.9,0-1.2,0.4-1.1,1.2
		c0,1.4,0,2.8,0,4.2c0,0.9,0.3,1.3,1.3,1.3c2.8,0,5.7,0,8.5,0c0.9,0,1.1-0.4,1.1-1.2c0-4.3,0-8.6,0-12.9c0-1.2-0.6-1.3-1.5-1.3
		c-5,0-10.1,0-15.1,0c-2.4,0-2.4,0.3-2.4-2.3c0-6.2,0-12.4,0-18.6c0-1.8,0-1.8,1.8-1.8c4.7,0,9.5,0,14.2,0c1.6,0,1.6,0,1.6,1.6
		c0,3.4,0,6.7,0,10.1c0,1.5,0,1.5-1.6,1.6c-1.5,0-3.1,0-4.6,0c-0.9,0-1.3-0.3-1.3-1.2c0-2,0-2.1,2-2.1c0.4,0,0.7,0,1.1,0
		c0.6,0,1-0.2,1-0.9c0-1.6,0-3.2,0-4.8c0-0.6-0.3-0.9-1-0.9c-2.9,0-5.8,0-8.8,0c-0.9,0-1.2,0.4-1.2,1.2c0,0.2,0,0.4,0,0.7
		c0,4.2,0,8.3,0,12.5c0,1.7,0,1.8,1.8,1.8c5.8,0,11.5,0,17.3,0C792,195.5,792,203,792,210.4z"/>
	<path fill="#C78C1C" d="M792,186.3c-0.7-0.4-1.4-0.2-2.1-0.2c-4.7,0-9.4,0-14,0c-1.6,0-1.6-0.1-1.6-1.6c0-3.4,0-6.9,0-10.3
		c0-1.1,0.3-1.6,1.5-1.5c1.6,0.1,3.2,0.1,4.8,0c0.9,0,1.3,0.2,1.3,1.2c0,2,0,2.1-2,2.2c-0.4,0-0.7,0-1.1,0c-0.8,0-1.2,0.4-1.1,1.2
		c0,1.4,0,2.8,0,4.2c0,0.9,0.3,1.3,1.2,1.3c2.8,0,5.7,0,8.5,0c0.9,0,1.2-0.3,1.2-1.2c0-4.3,0-8.6,0-12.9c0-0.9-0.3-1.4-1.3-1.3
		c-0.5,0-1,0-1.5,0c-4.9,0-9.8,0-14.7,0c-1.1,0-1.6-0.3-1.6-1.5c0-6.6,0-13.3,0-19.9c0-1,0.3-1.4,1.4-1.4c5,0,9.9,0,14.9,0
		c1,0,1.5,0.2,1.4,1.3c-0.1,3.6,0,7.2,0,10.7c0,0.8-0.3,1.2-1.1,1.2c-1.8,0-3.5,0-5.3,0c-0.7,0-1-0.2-1.1-1c-0.2-2.2,0-2.4,2.1-2.4
		c1.9,0,1.9,0,1.9-1.9c0-1.5,0.6-3.3-0.3-4.3c-1-1.1-2.9-0.3-4.4-0.4c-1.7-0.1-3.4,0-5,0c-0.8,0-1.2,0.4-1.2,1.2c0,4.6,0,9.2,0,13.8
		c0,0.9,0.4,1.2,1.2,1.1c0.2,0,0.4,0,0.7,0c5.8,0,11.5,0,17.3,0C792,171.4,792,178.9,792,186.3z"/>
	<path fill="#C78C1C" d="M267.3,12.3c0-2,0-3.9-0.1-5.9c0-1,0.2-1.6,1.4-1.6c3.6,0.1,7.2,0,10.7,0c0.9,0,1.3,0.3,1.3,1.3
		c0,2.5,0,5,0,7.4c0,2.3,0,4.7,0,7c0,1.9,0,2-1.9,2c-3.3,0-6.6,0-9.9,0c-0.5,0-1,0-1.5,0s-0.8,0.4-0.8,0.9s0.2,0.8,0.7,0.9
		c0.5,0,1,0,1.5,0c5,0,10.1,0,15.1,0c1.7,0,1.7,0,1.7,1.7c0,6.5,0,13,0,19.5c0,1.6,0,1.6-1.6,1.6c-4.9,0-9.8,0-14.7,0
		c-1,0-1.4-0.3-1.4-1.3c0.1-3.6,0-7.2,0-10.7c0-0.8,0.3-1.2,1.2-1.2c1.8,0,3.5,0,5.3,0c0.7,0,1,0.2,1.1,1c0.2,2.2,0,2.4-2.1,2.4
		c-0.3,0-0.6,0-0.9,0c-0.8-0.1-1.2,0.3-1.2,1.1c0,1.5,0,2.9,0,4.4c0,0.7,0.3,1.1,1,1.1c2.9,0,5.8,0,8.8,0c0.9,0,1.1-0.5,1.1-1.2
		c0-2.6,0-5.1,0-7.7c0-1.8,0-3.5,0-5.3c0-2,0-2-2.1-2c-5,0-10.1,0-15.1,0c-0.7,0-1.5,0-2.2,0c0-2.8,0-5.6,0-8.3
		c0.8-0.3,1.6-0.2,2.4-0.2c3.5,0,7,0,10.5,0c1,0,1.6-0.2,1.6-1.4c-0.1-2.5-0.1-5.1-0.1-7.6c0-1.8,0-1.8-1.4-1.8c-1.2,0-2.3,0-3.5,0
		c-1.6,0-1.6,0-1.7,1.7c0,0.8,0.3,1.6-0.3,2.3C269.4,12.3,268.3,12.3,267.3,12.3L267.3,12.3z"/>
	<path fill="#C78C1C" d="M502.7,0c0.3,5.3,0.1,10.5,0.1,15.8c0,3.4,0,3.4,3.4,3.4c3.4,0,6.9,0,10.3,0c1.8,0,1.8,0,1.8-1.9
		c0-2.5,0-5,0-7.4c0-1.5-0.1-1.5-1.6-1.6c-1.3,0-2.6,0-3.9,0c-0.8,0-1.2,0.3-1.2,1.2c0,0.4,0,0.9,0,1.3c0,1.6,0,1.6-1.6,1.6
		c-1.7,0-1.7,0-1.7-1.7c0-1.5,0-3.1,0-4.6c0-0.8,0.2-1.2,1.1-1.2c3.7,0,7.4,0,11.2,0c1.1,0,1.1,0.7,1.1,1.5c0,3.5,0,7,0,10.5
		c0,1.3,0,2.6,0,3.9c0,1.7,0,1.8-1.9,1.8c-4.6,0-9.2,0-13.8,0c-1.6,0-3.2,0.1-4.8,0.1c-1.5-0.1-1.5-0.1-1.6-1.7c0-4.8,0-9.6,0-14.5
		c0-0.5,0-1,0-1.5c0.1-1-0.2-1.4-1.3-1.4c-4.5,0-9.1,0-13.6,0c-1,0-1.2,0.4-1.2,1.3c0,2.8,0,5.6,0,8.3c0,0.9,0.4,1.3,1.3,1.3
		c1.4,0,2.8,0,4.2,0c0.9,0,1.2-0.4,1.1-1.2c0-0.4,0-0.7,0-1.1c0-1.9,0.1-1.9,2-1.9c1,0,1.5,0.3,1.4,1.4c-0.1,1.7,0,3.4,0,5
		c0,0.8-0.3,1.2-1.2,1.2c-3.7,0-7.3,0-11,0c-1.2,0-1.2-0.7-1.2-1.6c0-4.6,0-9.2,0-13.8c0-0.8,0.1-1.6-0.1-2.4
		C487.5,0,495.1,0,502.7,0z"/>
	<path fill="#C78C1C" d="M774.2,293.5c2.2-0.5,4.4-0.1,6.5-0.2c0.9,0,1.1,0.5,1.1,1.2c0.1,1.8,0,2-1.9,2c-2.6,0-2.3,0.1-2.3,2.3
		c0,0.9,0,1.9,0,2.8c0,1.6,0,1.6,1.5,1.7c2.7,0,5.4,0,8.1,0c0.9,0,1.3-0.3,1.3-1.3c0-4.2-0.1-8.5,0-12.7c0-1.3-0.6-1.4-1.6-1.4
		c-4,0-8,0-12.1,0c-1.4,0-2.8,0-4.2,0c-1,0-1.3-0.4-1.3-1.3c0-6.7,0-13.4,0-20.2c0-0.9,0.3-1.3,1.3-1.3c5,0,10.1,0,15.1,0
		c0.9,0,1.3,0.3,1.3,1.2c0,3.6,0,7.2,0,10.7c0,0.9-0.3,1.3-1.3,1.3c-1.6-0.1-3.2-0.1-4.8,0c-1,0-1.4-0.3-1.4-1.4c0-2-0.1-2,2-2.1
		c0.4,0,0.7,0,1.1,0c0.6,0,0.9-0.3,0.9-0.9c0-1.5,0-3.1,0-4.6c0-0.7-0.3-1.1-1-1.1c-2.9,0-5.8,0-8.8,0c-0.9,0-1.1,0.4-1.1,1.2
		c0,4.5,0,9.1,0,13.6c0,1.1,0.4,1.4,1.4,1.4c4.7,0,9.3,0,14,0c1.2,0,2.5,0,3.7,0c0,7.3,0,14.6,0,21.9c-0.9,0-1.9,0.1-2.8,0.1
		c-4.9,0-9.8,0-14.7,0c-0.4-0.7-0.2-1.5-0.3-2.3C774.2,300.6,774.2,297,774.2,293.5z"/>
	<path fill="#C78C1C" d="M526.8,0c0,5.5,0.1,11,0.1,16.4c0,2.7-0.2,2.6,2.6,2.6c3.7,0,7.5,0,11.2,0c1.6,0,1.6-0.1,1.6-1.6
		c0-2.6,0-5.1,0-7.7c0-1.1-0.2-1.6-1.5-1.6c-1.3,0.1-2.6,0.1-3.9,0c-0.9,0-1.4,0.3-1.3,1.3c0,0.4,0,0.7,0,1.1c0,1.7,0,1.7-1.7,1.7
		s-1.7,0-1.7-1.7c0-1.5,0-3.1,0-4.6c0-0.8,0.3-1.2,1.1-1.2c3.7,0,7.5,0,11.2,0c1.1,0,1.1,0.6,1.1,1.4c0,5,0,9.9,0,14.9
		c0,1-0.3,1.4-1.4,1.4c-3.9,0-7.7,0-11.6,0c-2.4,0-4.8,0.1-7.2,0.1c-1.8,0-1.8-0.1-1.8-1.9c0-5.1,0-10.2,0-15.3c0-1.9,0-1.9-1.9-1.9
		c-4.2,0-8.5,0-12.7,0c-1.1,0-1.5,0.4-1.5,1.5c0.1,2.6,0.1,5.3,0,7.9c0,1.1,0.3,1.7,1.5,1.5c0.7-0.1,1.3,0,2,0c0.9,0,2,0.4,2.8-0.2
		c0.8-0.6,0.4-1.8,0.4-2.7c0-1.2,0.6-1.3,1.6-1.3c0.9,0,1.8-0.1,1.8,1.3c0,1.7,0,3.4,0,5c0,0.8-0.4,1.2-1.2,1.2c-3.6,0-7.2,0-10.7,0
		c-0.7,0-1.3-0.2-1.3-1.1c0.1-5.5-0.2-10.9,0.1-16.4c0-0.1,0.1-0.1,0.1-0.2C511.9,0,519.4,0,526.8,0z"/>
	<path fill="#C78C1C" d="M285.7,0c0.5,0.6,0.3,1.4,0.3,2.1c0,5,0,10.1,0,15.1c0,1.9,0,1.9,2,1.9c3.9,0,7.9,0,11.8,0
		c1.6,0,1.6,0,1.6-1.6c0-2.6,0-5.3,0-7.9c0-1-0.3-1.5-1.3-1.4c-1.4,0.1-2.8,0.1-4.2,0c-1,0-1.3,0.4-1.3,1.3c0,0.4,0,0.9,0,1.3
		c0.1,1.2-0.4,1.5-1.5,1.4c-1.8,0-1.8,0-1.8-1.8c0-1.5,0-2.9,0-4.4c0-0.9,0.2-1.3,1.2-1.3c3.7,0,7.3,0,11,0c0.8,0,1.2,0.3,1.2,1.1
		c0,5.1,0,10.2,0,15.3c0,1.2-0.7,1.2-1.6,1.2c-5,0-10.1,0-15.1,0c-1.3,0-2.6,0-3.9,0c-1.1,0-1.5-0.5-1.5-1.6c0-5,0-9.9,0-14.9
		c0-0.5,0-1,0-1.5c0-0.7-0.3-1.1-1-1.1c-4.7,0-9.3,0-14,0c-0.9,0-1.1,0.5-1.1,1.2c0.1,2.6-0.1,5.1,0.1,7.7c0,1.9,0,1.9,1.6,2
		c1.4,0.1,2.9,0.2,4.3-0.1c0.2,0.1,0.3,0,0.3-0.2c0.1-0.3,0.2-0.6,0.2-0.8c0.1-3,0.1-3,3.3-3c0.3,2.1,0.1,4.2,0.1,6.3
		c0,0.8-0.3,1.2-1.1,1.2c-4.1-0.1-8.3,0.2-12.4-0.2c0-5.8,0-11.7,0-17.5C270.5,0,278.1,0,285.7,0z"/>
	<path fill="#C78C1C" d="M792,282.3c-5.5,0-10.9,0.1-16.4,0.1c-0.9,0-1.3-0.3-1.3-1.3c0-3.6,0-7.2,0-10.7c0-0.9,0.2-1.4,1.2-1.3
		c1.7,0,3.4,0.1,5,0c1.2,0,1.2,0.7,1.2,1.6s0.1,1.8-1.3,1.8c-0.9,0-1.9-0.4-2.5,0.2c-0.7,0.7-0.3,1.8-0.3,2.7c0,3.8,0,3.8,3.8,3.8
		c1.8,0,3.7,0,5.5,0c1.6,0,1.6,0,1.6-1.5c0-4.1,0-8.2,0-12.3c0-1.5,0-1.6-1.6-1.6c-4.8,0-9.6,0-14.5,0c-0.5,0-1,0-1.5,0
		c-1,0.1-1.4-0.3-1.4-1.4c0-6.7,0-13.4,0-20.1c0-1,0.4-1.3,1.3-1.3c5,0,10.1,0,15.1,0c0.9,0,1.3,0.3,1.3,1.3c0,3.6,0,7.2,0,10.7
		c0,1-0.4,1.3-1.3,1.3c-1.6,0-3.2-0.1-4.8,0c-1,0-1.4-0.3-1.4-1.4c0-2-0.1-2,2-2c0.4,0,0.7,0,1.1,0c0.6,0,0.9-0.3,0.9-0.9
		c0-1.5,0-3.1,0-4.6c0-0.7-0.3-1.1-1-1.1c-2.9,0-5.8,0-8.8,0c-0.9,0-1.1,0.5-1.1,1.2c0,4.5,0,9.1,0,13.6c0,1.1,0.4,1.4,1.4,1.3
		c4.6,0,9.2,0,13.8,0c1.3,0,2.6,0,3.9,0C792,267.7,792,275,792,282.3z"/>
	<path fill="#C78C1C" d="M478.6,0c0.3,4,0.1,8,0.1,12c0,1.9,0,3.8,0,5.7c0,1,0.4,1.4,1.4,1.4c4.2,0,8.5,0,12.7,0
		c0.9,0,1.3-0.4,1.3-1.3c0-2.8,0-5.5,0-8.3c0-1-0.4-1.3-1.3-1.3c-1.4,0-2.8,0-4.2,0c-1,0-1.3,0.4-1.2,1.3c0,0.3,0,0.6,0,0.9
		c0,1.9,0,1.9-2,1.9c-0.9,0-1.4-0.2-1.3-1.2c0.1-1.8,0-3.5,0-5.3c0-0.7,0.3-1,1-1c3.7,0,7.4,0,11.2,0c0.9,0,1.1,0.4,1.1,1.2
		c0,5,0,10.1,0,15.1c0,1-0.3,1.4-1.4,1.4c-3.5,0-7,0-10.5,0c-2.8,0-5.5,0.1-8.3,0c-1.8,0-1.8-0.1-1.8-1.8c0-5.1,0-10.2,0-15.3
		c0-1.8,0-1.9-1.7-1.9c-4.3,0-8.6,0-12.9,0c-1.1,0-1.5,0.4-1.5,1.5c0.1,2.6,0.1,5.3,0,7.9c0,1.1,0.3,1.7,1.5,1.5c0.7-0.1,1.3,0,2,0
		c0.9,0,2,0.3,2.8-0.2c0.8-0.6,0.4-1.8,0.4-2.7c0-1.2,0.7-1.3,1.6-1.3c0.9,0,1.8-0.1,1.8,1.3c0,1.7,0,3.4,0,5c0,0.8-0.4,1.2-1.2,1.2
		c-3.6,0-7.2,0-10.7,0c-0.9,0-1.3-0.4-1.3-1.3c0-2.2,0-4.4,0-6.6c0-3,0-6,0-9c0-0.3,0.1-0.6,0.2-0.8C463.7,0,471.2,0,478.6,0z"/>
	<path fill="#C78C1C" d="M792,234.1c-4.8,0.3-9.6,0.1-14.4,0.1c-0.7,0-1.5,0-2.2,0s-1.1-0.3-1.1-1c0-3.8,0-7.6,0-11.4
		c0-0.7,0.4-0.9,1-0.9c1.8,0,3.7,0,5.5,0c1,0,1.1,0.6,1,1.3s0.4,1.7-0.8,1.9c-0.2,0-0.4,0-0.7,0c-2.6,0.2-2.7,0.2-2.6,2.7
		c0,1.3-0.6,2.9,0.4,3.8c0.9,0.8,2.4,0.2,3.6,0.2c1.8,0,3.5,0,5.3,0c1.6,0,1.7,0,1.7-1.5c0-4.2,0-8.3,0-12.5c0-1.2-0.5-1.4-1.6-1.4
		c-4.7,0-9.5,0-14.2,0c-0.4,0-0.7,0-1.1,0c-2.1,0-2.2,0-2.2-2.2c0-6.3,0-12.6,0-18.8c0-1.7,0-1.7,1.7-1.7c4.7,0,9.5,0,14.2,0
		c1.7,0,1.7,0,1.8,1.6c0,3.4,0,6.7,0,10.1c0,1.1-0.3,1.6-1.5,1.5c-1.6-0.1-3.2-0.1-4.8,0c-1.2,0.1-1.3-0.7-1.2-1.5s-0.4-1.9,1.1-1.9
		c0.9,0,2.1,0.4,2.7-0.3c0.6-0.8,0.2-2,0.2-3c0-3.3,0-3.3-3.2-3.3c-2,0-4.1,0-6.1,0c-1.1,0-1.6,0.3-1.6,1.5c0,4.5,0.1,8.9,0,13.4
		c0,1.4,0.7,1.3,1.7,1.3c5.8,0,11.7,0,17.5,0C792,219.5,792,226.8,792,234.1z"/>
	<path fill="#C78C1C" d="M792,258.2c-5.5,0.3-10.9,0-16.4,0.1c-0.9,0-1.3-0.3-1.3-1.3c0-3.6,0-7.3,0-10.9c0-0.9,0.4-1.1,1.2-1.1
		c1.7,0,3.4,0.1,5,0c1.2,0,1.3,0.7,1.2,1.5c0,0.9,0.1,1.8-1.3,1.8c-0.9,0-1.9-0.4-2.5,0.2c-0.7,0.7-0.3,1.8-0.3,2.7
		c0,3.8,0,3.8,3.8,3.8c1.7,0,3.4,0,5,0c2.1,0,2.1,0,2.1-2c0-3.9,0-7.7,0-11.6c0-1.8,0-1.8-1.8-1.8c-4.7,0-9.3,0-14,0
		c-0.5,0-1,0-1.5,0c-1.6,0-1.7-0.1-1.7-1.7c0-6.4,0-12.8,0-19.3c0-0.1,0-0.3,0-0.4c-0.1-1,0.3-1.3,1.3-1.3c5,0,10.1,0,15.1,0
		c0.9,0,1.3,0.3,1.3,1.2c0,3.6,0,7.2,0,10.7c0,0.9-0.3,1.3-1.3,1.3c-1.6-0.1-3.2-0.1-4.8,0c-1,0-1.4-0.3-1.4-1.4c0-2,0-2,2-2
		c0.4,0,0.7,0,1.1,0c0.6,0,0.9-0.3,0.9-0.9c0-1.5,0-3.1,0-4.6c0-0.7-0.3-1.1-1-1.1c-2.9,0-5.8,0-8.8,0c-0.9,0-1.1,0.5-1.1,1.2
		c0,4.5,0,9.1,0,13.6c0,1.1,0.5,1.3,1.4,1.3c3.5,0,7,0,10.5,0c2.4,0,4.8,0,7.2,0C792,243.6,792,250.9,792,258.2z"/>
	<path fill="#C78C1C" d="M382.2,0c0.4,0.8,0.2,1.6,0.2,2.4c0,5,0,9.9,0,14.9c0,1.8,0,1.8,1.8,1.9c3.9,0,7.9,0,11.8,0
		c1.8,0,1.8,0,1.8-1.8c0-2.6,0-5.1,0-7.7c0-1-0.3-1.5-1.4-1.4c-1.5,0.1-2.9,0-4.4,0c-0.7,0-1.1,0.3-1,1.1c0,0.4,0,0.9,0,1.3
		c0,1.7,0,1.7-1.7,1.7c-1.5,0-1.6,0-1.6-1.6c0-1.5,0-3.1,0-4.6c0-0.9,0.2-1.4,1.2-1.3c3.7,0,7.3,0,11,0c0.8,0,1.2,0.2,1.2,1.1
		c0,5.1,0,10.2,0,15.3c0,1.2-0.7,1.2-1.5,1.2c-4.8,0-9.6,0-14.5,0c-2,0-3.9,0.4-5.9-0.1c-0.3-1-0.2-1.9-0.2-2.9c0-4.7,0-9.5,0-14.2
		c0-1.7,0-1.8-1.6-1.8c-4.3,0-8.6,0-12.9,0c-1.5,0-1.6,0-1.6,1.6c0,2.6,0,5.3,0,7.9c0,1,0.3,1.5,1.4,1.4c1.3-0.1,2.6,0,3.9,0
		c0.9,0,1.4-0.3,1.3-1.3c0-0.3,0-0.6,0-0.9c0-2,0.2-2.1,2.1-2c0.9,0,1.3,0.4,1.3,1.3c0,1.6-0.1,3.2,0,4.8c0,1.1-0.5,1.4-1.4,1.4
		c-3.5,0-7,0-10.5,0c-0.9,0-1.3-0.3-1.3-1.3c0-2.6,0-5.1,0-7.7c0-2.9-0.2-5.8,0.1-8.8C367.3,0,374.7,0,382.2,0z"/>
	<path fill="#C78C1C" d="M358.1,0c0.4,0.8,0.2,1.6,0.2,2.4c0,5,0,9.9,0,14.9c0,1.8,0,1.9,1.8,1.9c4,0,8,0,12,0c1.5,0,1.6,0,1.6-1.6
		c0-2.6,0-5.3,0-7.9c0-1-0.3-1.5-1.3-1.4c-1.5,0.1-2.9,0-4.4,0c-0.7,0-1.1,0.3-1,1.1c0,0.4,0,0.9,0,1.3c0,1.7,0,1.7-1.7,1.7
		c-1.6,0-1.6,0-1.6-1.5c0-1.6,0-3.2,0-4.8c0-0.9,0.3-1.1,1.2-1.1c3.7,0,7.3,0,11,0c1,0,1.2,0.4,1.2,1.3c0,5,0,9.9,0,14.9
		c0,1.2-0.4,1.5-1.5,1.5c-5,0-10.1,0-15.1,0c-1.2,0-2.5,0.1-3.7,0c-1.7,0-1.7-0.1-1.7-1.7c0-5,0-9.9,0-14.9c0-2.7,0.3-2.4-2.5-2.4
		c-4,0-8,0-12,0c-1.5,0-1.6,0-1.6,1.6c0,2.6,0,5.3,0,7.9c0,1,0.3,1.5,1.4,1.4c1.3-0.1,2.6,0,3.9,0c0.9,0,1.4-0.3,1.3-1.3
		c0-0.3,0-0.6,0-0.9c0-2,0.2-2.1,2.1-2c0.9,0,1.3,0.4,1.3,1.3c0,1.6-0.1,3.2,0,4.8c0,1.1-0.5,1.4-1.4,1.4c-3.5,0-7,0-10.5,0
		c-0.9,0-1.3-0.3-1.3-1.3c0-2.7,0-5.4,0-8.1c0-2.8-0.2-5.5,0.1-8.3C343.2,0,350.6,0,358.1,0z"/>
	<path fill="#C78C1C" d="M309.8,0c0.5,0.7,0.3,1.6,0.3,2.3c0,5,0,9.9,0,14.9c0,1.9,0,1.9,1.8,1.9c4,0,8,0,12,0c1.6,0,1.6,0,1.6-1.6
		c0-2.6,0-5.3,0-7.9c0-1-0.2-1.5-1.3-1.5c-1.4,0.1-2.8,0-4.2,0c-0.9,0-1.4,0.3-1.3,1.3c0,0.3,0,0.6,0,0.9c0,1.8-1,2.5-2.7,1.9
		c-0.4-0.1-0.5-0.4-0.5-0.8c0-1.9,0-3.8,0-5.7c0-0.6,0.3-0.9,0.9-0.9c3.9,0,7.7,0,11.6,0c0.5,0,0.8,0.3,0.8,0.8c0,0.3,0,0.6,0,0.9
		c0,4.7,0,9.5,0,14.2c0,1.7,0,1.7-1.7,1.7c-6.1,0-12.3,0.1-18.4,0c-2,0-2,0-2-2.1c0-5,0-10.1,0-15.1c0-1.8,0-1.8-1.8-1.8
		c-4.2,0-8.5,0-12.7,0c-1.6,0-1.6,0-1.6,1.6c0,2.6,0,5.1,0,7.7c0,1.6,0,1.6,1.7,1.7c1.2,0,2.5,0,3.7,0c0.8,0,1.2-0.3,1.2-1.2
		c0-0.4,0-0.7,0-1.1c0.1-1.7,1.1-2.4,2.7-1.8c0.4,0.1,0.6,0.4,0.6,0.8c0,1.9,0,3.8,0,5.7c0,0.7-0.4,0.9-1,0.9c-3.7,0-7.4,0-11.2,0
		c-0.9,0-1.1-0.5-1.1-1.3c0-2.4,0-4.8,0-7.2c0-3.1,0.1-6.1,0.1-9.2C294.9,0,302.4,0,309.8,0z"/>
	<path fill="#C78C1C" d="M333.9,0c0.4,0.7,0.3,1.4,0.3,2.1c0,5,0,9.9,0,14.9c0,2.1,0,2.1,2,2.1c3.9,0,7.9,0,11.8,0
		c1.6,0,1.6,0,1.6-1.6c0-2.6,0-5.1,0-7.7c0-1.6,0-1.6-1.5-1.7c-1.4,0-2.8,0-4.2,0c-0.7,0-1.1,0.3-1.1,1c0,0.4,0,0.9,0,1.3
		c0,1.7,0,1.7-1.7,1.7c-1.6,0-1.6,0-1.6-1.5c0-1.6,0-3.2,0-4.8c0-0.8,0.3-1.2,1.1-1.2c3.7,0,7.3,0,11,0c1.2,0,1.2,0.6,1.2,1.5
		c0,4.1,0,8.2,0,12.3c0,0.9,0,1.8,0,2.6c0,0.9-0.3,1.3-1.3,1.3c-1.6,0-3.2,0-4.8,0c-4.5,0-8.9,0-13.4,0c-0.3,0-0.6,0-0.9,0
		c-1.7-0.1-1.7-0.1-1.7-1.9c0-4.9,0-9.8,0-14.7c0-2.7,0.3-2.4-2.5-2.4c-4,0-8,0-12,0c-1.6,0-1.6,0-1.6,1.6c0,2.6,0,5.1,0,7.7
		c0,1.6,0,1.6,1.5,1.7c1.3,0,2.6,0,3.9,0c0.8,0,1.2-0.3,1.2-1.2c0-0.4,0-0.7,0-1.1c0.1-1.7,1.1-2.4,2.7-1.8c0.4,0.1,0.6,0.4,0.6,0.8
		c0,1.9,0,3.8,0,5.7c0,0.7-0.4,0.9-1,0.9c-3.7,0-7.4,0-11.2,0c-0.9,0-1.1-0.5-1.1-1.3c0-2.7,0-5.4,0-8.1c0-2.8,0.1-5.5,0.1-8.3
		C319,0,326.5,0,333.9,0z"/>
	<path fill="#C78C1C" d="M406.3,0c0.4,0.8,0.2,1.6,0.2,2.4c0,5,0,10.1,0,15.1c0,1.6,0,1.6,1.6,1.6c4.1,0,8.2,0,12.3,0
		c1.6,0,1.6,0,1.6-1.6c0-2.6,0-5.3,0-7.9c0-1.2-0.5-1.5-1.5-1.5c-1.3,0.1-2.6,0-3.9,0c-0.9,0-1.4,0.3-1.3,1.2c0,0.3,0,0.6,0,0.9
		c0,1.8-1,2.5-2.7,1.9c-0.4-0.1-0.5-0.4-0.5-0.8c0-1.9,0-3.8,0-5.7c0-1,0.7-1,1.3-1c3.5,0,7,0,10.5,0c1.1,0,1.5,0.4,1.5,1.5
		c-0.1,2.9,0,5.8,0,8.8c0,1.6,0,3.2,0,4.8c0,2.9,0.3,2.6-2.5,2.6c-4.8,0-9.6,0-14.5,0c-1.2,0-2.3,0.1-3.5,0
		c-1.5-0.1-1.5-0.1-1.6-1.6c0-4.8,0-9.6,0-14.5c0-0.5,0-1,0-1.5c0.1-1-0.3-1.5-1.3-1.4c-0.2,0-0.4,0-0.7,0c-4.1,0-8.2,0-12.3,0
		c-1.9,0-1.9,0-1.9,2c0,2.6,0,5.1,0,7.7c0,0.9,0.3,1.4,1.3,1.3c0.7,0,1.5,0,2.2,0c0.9,0,2,0.4,2.8-0.2c0.8-0.6,0.3-1.8,0.4-2.7
		c0-1.2,0.7-1.3,1.6-1.2c0.9,0,1.8-0.1,1.8,1.3c0,1.7,0,3.4,0,5c0,0.8-0.4,1.2-1.2,1.2c-3.6,0-7.2,0-10.7,0c-1.2,0-1.3-0.6-1.3-1.5
		c0-3.6,0-7.2,0-10.7c0-1.8-0.2-3.6,0.1-5.5C391.4,0,398.8,0,406.3,0z"/>
	<path fill="#C78C1C" d="M454.5,0c0.3,2.7,0.1,5.4,0.1,8.1c0,3.2,0,6.4,0,9.6c0,1,0.3,1.4,1.4,1.4c4.2,0,8.5,0,12.7,0
		c1,0,1.4-0.3,1.4-1.4c0-2.8,0-5.5,0-8.3c0-0.8-0.2-1.3-1.1-1.2c-1.5,0-3.1,0-4.6,0c-0.7,0-1.1,0.2-1.1,1c0,0.4,0,0.7,0,1.1
		c0,1.8-1,2.5-2.7,1.9c-0.4-0.1-0.5-0.4-0.5-0.8c0-1.9,0-3.8,0-5.7c0-0.6,0.3-0.9,0.9-0.9c3.9,0,7.7,0,11.6,0c0.5,0,0.8,0.3,0.8,0.8
		c0,0.3,0,0.6,0,0.9c0,4.7,0,9.5,0,14.2c0,1.7,0,1.7-1.6,1.7c-6.1,0-12.3,0.1-18.4,0c-2,0-2,0-2-2.1c0-5,0-10.1,0-15.1
		c0-1.8,0-1.8-1.8-1.9c-4.2,0-8.5,0-12.7,0c-1.6,0-1.6,0-1.7,1.7c0,2.6,0,5.3,0,7.9c0,0.9,0.3,1.4,1.3,1.3c0.7,0,1.5,0,2.2,0
		c0.9,0,2,0.4,2.8-0.2c0.8-0.6,0.3-1.8,0.4-2.7c0-1.2,0.7-1.3,1.6-1.2c0.9,0,1.8-0.1,1.8,1.3c0,1.7,0,3.4,0,5c0,0.9-0.4,1.1-1.2,1.1
		c-3.6,0-7.2,0-10.7,0c-0.9,0-1.3-0.4-1.3-1.3c0-2.7,0-5.4,0-8.1c0.1-2.8-0.2-5.5,0.2-8.3C439.6,0,447.1,0,454.5,0z"/>
	<path fill="#C78C1C" d="M430.4,0c0.3,1.9,0.1,3.8,0.2,5.7c0,3.9,0,7.9,0,11.8c0,1.6,0,1.6,1.6,1.6c4.1,0,8.2,0,12.3,0
		c1.6,0,1.6,0,1.6-1.6c0-2.6,0-5.3,0-7.9c0-1.2-0.5-1.5-1.5-1.5c-1.3,0.1-2.6,0-3.9,0c-0.9,0-1.4,0.3-1.3,1.2c0,0.3,0,0.6,0,0.9
		c0,1.8-1,2.5-2.7,1.9c-0.4-0.1-0.5-0.4-0.5-0.8c0-1.9,0-3.8,0-5.7c0-1,0.7-0.9,1.3-0.9c3.5,0,7,0,10.5,0c1.1,0,1.5,0.4,1.5,1.5
		c-0.1,4.1,0,8.2,0,12.3c0,1.2,0.5,2.7-0.3,3.6s-2.3,0.3-3.6,0.3c-5.3,0.1-10.5,0.1-15.8,0.1c-0.3,0-0.6,0-0.9,0
		c-1.5-0.1-1.5-0.1-1.6-1.7c0-4.9,0-9.8,0-14.7c0-3,0.4-2.7-2.6-2.7c-3.9,0-7.7,0-11.6,0c-1.9,0-1.9,0-1.9,2c0,2.6,0,5.1,0,7.7
		c0,0.9,0.3,1.3,1.3,1.3c0.7,0,1.5,0,2.2,0c0.9,0,2,0.4,2.8-0.2c0.8-0.6,0.3-1.8,0.3-2.7c0-1.2,0.7-1.3,1.6-1.2
		c0.9,0,1.8-0.1,1.8,1.3c0,1.7,0,3.4,0,5c0,0.9-0.4,1.1-1.2,1.1c-3.6,0-7.2,0-10.7,0c-0.9,0-1.3-0.4-1.3-1.3c0-2.8,0-5.5,0-8.3
		c0-2.7-0.2-5.4,0.2-8.1C415.5,0,422.9,0,430.4,0z"/>
	<path fill="#C78C1C" d="M262.9,487.5c5.5,0,11.1,0,16.6-0.1c1,0,1.4,0.3,1.4,1.3c-0.1,3.6,0,7.2,0,10.7c0,1-0.4,1.3-1.3,1.3
		c-1.7,0-3.4-0.1-5,0c-1.4,0-1.1-1-1.2-1.8c-0.1-0.9,0.1-1.5,1.3-1.5c2.8-0.1,2.8-0.2,2.8-3c0-0.7,0-1.5,0-2.2
		c0.1-1-0.3-1.5-1.3-1.5c-2.7,0-5.4,0-8.1,0c-1.1,0-1.4,0.4-1.4,1.4c0,4.5,0,9.1,0,13.6c0,1.1,0.4,1.5,1.5,1.5c3.5-0.1,7,0,10.5,0
		c1.9,0,2,0,2,1.9c0,4.7,0,9.3,0,14c0,1.9,0,1.9-1.8,1.9c-3.3,0-6.6,0-9.9,0c-1.7,0-1.8,0-1.8-1.9c0-1.5,0-3.1,0-4.6
		c0-0.7,0.3-1,1.1-1.1c2-0.2,2.3,0,2.3,2c0,0.4,0,0.7,0,1.1c0,0.6,0.2,1,0.9,1c1.6,0,3.2,0,4.8,0c0.8,0,1-0.5,1-1.1
		c0-2.9,0-5.8,0-8.8c0-0.8-0.3-1-1.1-1c-0.9,0-1.8,0-2.6,0c-3.6,0-7.2,0-10.7,0C262.9,503,262.9,495.2,262.9,487.5z"/>
	<path fill="#FEFDFC" d="M792,306.9c-5.1,0-10.1,0-15.2,0c-0.8,0-1.6,0.2-2.3-0.3c4.9,0,9.8,0,14.7,0c0.9,0,1.9-0.1,2.8-0.1
		C792,306.6,792,306.7,792,306.9z"/>
	<path fill="#FEFDFC" d="M791.5,308.5c0.1-0.1,0.3-0.2,0.4-0.4c0,0.1,0,0.3,0,0.4C791.9,308.6,791.8,308.6,791.5,308.5z"/>
	<path fill="#C78C1C" d="M754,431.8c-36.5-97.4-73-194.8-109.5-292.2c-1,0.1-1.5,0.7-2.1,1.1c-37.4,25.2-74.7,50.4-112.1,75.6
		c-0.3,0.2-0.6,0.4-0.9,0.6c-0.7,0.7-1.4,0.5-2.1,0c-4-2.6-8-5.1-12-7.6c-36.2-22.9-72.3-45.7-108.5-68.6c-0.6-0.4-1.2-0.8-2.1-1.3
		c-34.2,97.3-68.4,194.5-102.5,291.6c-0.2,0-0.3-0.1-0.5-0.1c0-0.8,0-1.7,0-2.5c0-120,0-240.1,0-360.1c0-9.4,0-18.8,0-28.3
		c0-0.7,0-1.3,0-2c0-0.9,0.4-1.2,1.2-1.1c0.6,0,1.2,0,1.8,0c149,0,298.1,0,447.1,0c2.8,0,2.9,0,3,2.8c0.1,6.1,0.2,12.3,0,18.4
		c-0.3,3.5-0.3,6.9-0.3,10.4c0,120.2,0,240.4,0,360.6c0,0.9,0,1.8,0,2.7C754.3,431.8,754.2,431.8,754,431.8z M672.4,167L672.4,167
		c-0.3-0.8,0-1.7,0.2-2.5c0.8-3.6,2.7-6.6,4.9-9.5c0.7-1,1.6-1.6,2.7-2c14.7-4.4,29.5-8.9,44.2-13.4c1.2-0.4,2-0.2,3,0.5
		c3.4,2.5,6.8,5.1,9.9,8c0.5,0.5,1.2,0.9,1.4,1.7c-1.7,0-3.4-0.4-5-0.1c-4.8,0.9-8.1,3.6-9.7,8.2c-1.6,4.7-0.5,9,3,12.5
		c3.5,3.4,7.7,4.4,12.3,2.9c2.5-0.8,2.6-0.9,2.2-3.8c-6.3,2.9-10.7,2.5-14.1-1.6c-3-3.5-3.3-8.6-0.6-12.4c1.3-1.9,3-3.1,5.2-3.9
		c3.4-1.2,6.6-0.3,9.8,1.7c0-2.2,0-4.1,0-6c0-1.8,0-3.7,0-5.5c0-1.9,0-3.8,0-5.7s0-3.8,0-5.7s0-3.8,0-5.7c0-1.8,0-3.7,0-5.5
		c0-1.9,0-3.8,0-5.7c0-1.9,0-3.8,0-5.7c0-1.9,0-3.8,0-5.7c0-1.8,0-3.7,0-5.5c0-1.9,0-3.8,0-5.7c0-1.9,0-3.8,0-5.7s0-3.8,0-5.7
		c0-1.8,0-3.7,0-5.5s0.2-3.7-0.2-5.7c-0.8,0.5-1.4,0.9-1.9,1.2c-27.7,19.4-55.4,38.8-83.1,58.1c-0.5,0.3-0.9,0.7-1.4,1
		c-0.5,0.3-0.6,0.7-0.3,1.3c0.2,0.4,0.3,0.8,0.5,1.2c4.7,12.6,9.5,25.3,14.2,37.9c0.3,0.8,0.5,1.6,1.1,2.3c4.5-5.8,9.1-7.3,14.1-4.8
		c4.4,2.2,6.6,7.3,5.1,12.1c-0.7,2.3-2.1,4.2-4.1,5.5c-3.1,2-6.4,2.1-9.9,0.8c0.3,2.4,0.4,2.7,3,3.1c0.6,0.1,1.3,0.1,2,0.1
		c6.6-0.1,11.9-5.6,11.9-12.1s-5.3-11.9-11.7-12.1C677.5,164.2,674.9,165.3,672.4,167z M508.8,95.6L508.8,95.6
		c0.1,0.7-0.4,1.1-0.6,1.7c-0.4,0.8-0.9,1.6-0.8,2.6c-0.2,0.1-0.3,0.3,0,0.4c0,0,0.2-0.1,0.3-0.2c1-0.2,1.6-1,2.5-1.4
		c1.1-0.6,1.7-1.4,1.9-2.7c0.2-1.4,0.6-2.9,1.2-4.2c0.4-0.8,0.7-1.6,1.7-1.8c0.2,2.1-1.1,3.9-0.7,6.1c2.9-1.5,5.6-3,8.4-4.1
		c1-0.4,1.7-0.9,2.3-1.9c0.6-1.1,1.3-2.1,2.6-2.3c0.6,0.8-0.3,1.6,0,2.4c2.5-0.8,5-0.7,7.3-1.8c1-0.5,2.1-0.5,3.2-0.1
		c0.2,0.7-0.8,1-0.4,1.7c2.4,0.7,4.9,1.7,7.2,3c0.8,0.5,1.7,0.7,2.7,0.8c1.5,0.1,3,0.7,4.4,1.7c-0.5,0.3-0.9,0.6-1.4,0.9
		c0.8,0.7,1.3,1.1,1.8,1.5c2.8,2.3,5.4,4.9,7.4,8c0.6,0.9,1.2,1.6,2,2.2c2.2,1.5,3.9,4.6,4,6.9c-0.7,0.3-1.4-0.4-2.2,0.1
		c0.7,3.6,1.2,7.2,1.7,10.9c0.1,0.8,0.5,1.1,1.3,1.1s1.6,0.2,2.1,0.9c-0.1,0.8-1.2,0.9-1.2,1.9c2.4,1.8,5.1,2.9,8,3.7
		c0.8,0.2,1.4-0.1,2-0.6c0.8-0.7,1.6-1.5,2.5-2.2c1-0.7,2-1.4,3.4-1.1c0,0.9-0.3,1.5-0.5,2.2c-0.2,0.8-0.5,1.5-0.7,2.3
		c3.4,0.2,5.2-1.8,4.4-4.9c-0.6-2.6-2.1-4.8-3.5-7c-0.2-0.3-0.4-0.6-0.7-0.8c-2.1-1.1-3.4-3.1-5.4-4.4c0.9-0.4,1.5,0.4,2.4,0
		c-1.9-2.3-3.7-4.6-5.5-6.8c-0.4-0.5-1.1-0.7-1.7-1c-1.5-0.7-3.1-1.4-4.4-2.5c-1-0.9-1.8-1.8-1.8-3.3c1-0.1,1.7,0.6,2.6,0.4
		c-0.4-0.5-0.7-1-1-1.4c-3.3-4.2-3.5-8.8-1.5-13.6c0.5-1.2,1-2.4,1.1-3.7c0.1-1.4,0.4-2.7,1.2-3.9c0.5-0.7,0.9-1.4,1.9-1.5
		c0.5,1-0.4,1.8,0,2.9c2.8-3.1,6.3-5.1,9.5-7.4c2.1-1.5,3.4-3.6,3.9-6.1c0.2-1.3,0.3-2.6,0.1-3.9c-0.2-1.8-0.4-3.6-0.5-5.4
		c-0.1-1.5,0.3-2.8,2-3.9c0.1,2.6,0.4,4.9,1,7.1c0.4,1.6,1,3.1,2.2,4.2c1.3,1.4,3,1.5,4.8,0.6c1.7-0.9,2.2-2,1.8-4
		c-0.2-1.1-0.7-2.1-1.2-3c-0.6-1.2-1.3-2.5-1.9-3.7c-0.3-0.7-0.7-1.6,0.2-2.2c0.8-0.6,1.8-0.5,2.7,0.1c0.8,0.6,1.2,1.4,1.5,2.4
		c0.6,2,0.9,4.1,1,6.3c0.1,1.5,0.2,3,0.6,4.6c1.3-0.7,1.5-1.8,1.9-2.8c1.4-3.1,2.5-6.4,4-9.5c1-2,2.3-3.9,4.2-5.2c0.4-0.3,1-0.3,1-1
		c-0.8-0.3-1.6-0.1-2.4-0.1c-37.5,0-75.1,0-112.6,0c-0.7,0-1.5,0-2.2,0c-1.1,0.1-2.1,0.5-3,1.2c-0.6,0.4-1.2,1-1.1,1.8
		c0.1,0.9,1,1.3,1.8,1.4c1.2,0.2,2.5,0.2,3.7-0.1c1.7-0.3,3.4,0,4.9,0.7c1.1,0.5,2,1.3,2.4,2.4c0.4,1-0.2,1.6-1.2,1.4
		c-0.5-0.1-0.9-0.4-1.4-0.6c-2.8-1.3-5.4-0.7-7.9,0.8c-0.5,0.3-1.1,0.7-0.9,1.4s0.8,0.7,1.4,0.7c0.9,0,1.8,0,2.6,0.1
		c1.1,0.2,2.5,0,3.6,1.2c-2.6,1-5.4,0.4-7.7,2c-2.2,1.6-4.1,3.4-5.8,5.8c2.1-0.6,3.9-0.8,5.5,0.4c0.9,0.7,1.9,1.1,3.1,1.2
		c-0.8,1.9-0.7,2,1,2.5c1.1,0.3,2.3,0.5,3.4,0.9c0.9,0.3,1.8,0.6,2,2c-1.3-0.5-2.6-0.6-3.9-0.6c-0.4,0-0.9-0.1-1.2,0.3
		c-0.2,0.5-0.1,1,0.3,1.4c0.3,0.4,0.8,0.6,1.2,0.9c1.2,0.8,2.4,1.6,3.5,2.7c0.5,0.6,1.1,1.1,0.8,2.2c-1.3-0.3-2.4-1-3.6-0.9
		c-0.3,0-0.6,0-0.7,0.3c-0.1,0.4-0.1,0.8,0.2,1c0.6,0.4,1.2,0.8,1.8,1.2c1.5,1.1,1.8,2,1.3,3.6c-1-0.1-1.7-1.1-2.8-1.1
		c-0.2,0.8-0.4,1.7,0.1,2.4c0.7,0.9,1.1,1.6-0.4,2c-0.1,0-0.2,0.5-0.2,0.8c-0.2,1.7-1.2,3.3-0.5,5.1c0.2,0.5,0,1-0.3,1.5
		c-0.4,0.6-0.8,0-1.1-0.1c-0.4-0.1-0.7,0.1-0.9,0.4c-0.7,0.8-1.5,1.6-1.1,2.9c0.2,0.6,0.2,1.5-0.5,2c-0.6,0-0.8-0.5-1.2-0.9
		c-0.2-0.2-0.4-0.3-0.8-0.2c-1,0.3-1.9,1.7-1.9,2.7c0,0.8,0.1,1.6-0.6,2.2c-1.2-0.4-1.6-2.3-3.6-1.2c-1.5,0.8-1.7,2-2.1,3.2
		c-0.5,0.1-0.9-0.1-1.1-0.4c-0.7-0.9-1.3-0.5-2.1-0.2c-0.8,0.3-1.1,0.7-1,1.6c0.2,1.1-0.3,2.1-1.1,2.9c-0.5-0.3-0.6-0.9-1-1.2
		c-0.4-0.5-0.7-1.3-1.5-1s-1.7,0.6-1.5,1.8c0.1,0.7-0.2,1.4-0.5,1.9c-0.6,0.1-0.9-0.1-1.2-0.4c-0.9-0.7-1.5-0.6-2.2,0.2
		c-0.6,0.7-1.5,1.1-0.5,2.3c0.7,0.7,0.7,1.9,0.4,2.9c-0.5,0.2-0.9-0.1-1.3-0.1c-0.5,0-0.9-0.5-1.5-0.2c-1.1,2.8-1.1,2.8,1.3,4.5
		c-0.3,0.3-0.7,0.1-1,0c-0.4-0.1-0.8-0.5-1.2,0c-0.2,1.1,0.2,2.1,0.4,3.2s0.8,1.4,1.9,1.1c1-0.3,2-0.5,2.9-0.8
		c0.6-0.2,1.1-0.2,1.6,0.4c-1.3,1.1-3,1.5-4.3,2.6c1.8,1.5,1.7,1.5,3.3,0.2c1-0.8,1.9-1.5,3-2.3c0.6-0.4,1.1-0.9,2.2-0.8
		c-0.8,1.6-1.6,3.1-2.3,4.6c3.9-0.1,4.8-0.8,5.5-4.2c0.1-0.4,0.1-0.9,0.2-1.3c0.3-0.8,0.6-1.5,1.6-1.7c0.8,0.8,0.2,2,0.9,2.9
		c1-0.7,1.6-1.7,2.3-2.6c2.9-3.8,5.5-7.7,8.6-11.4c2.3-2.7,4.8-5.3,6.3-8.6c0.1-0.1,0.2-0.2,0.2-0.3c0.3,0.4-0.1,0.9,0.4,1.3
		c0.6-0.5,1.1-1.1,1.8-1.5c1.3-0.9,2.1-2.1,2.3-3.7c0.1-1.4,0.8-2.7,2.1-3.4C505.7,98.4,507.3,97,508.8,95.6z M540.6,137.8
		c1.1-0.3,2.2-0.7,3.4-1c0.7-0.2,1.6-0.1,1.9,0.7c0.4,0.9-0.5,1.3-1.1,1.7c-1.1,0.7-2.4,1.1-3.6,1.6c-0.7,0.2-1.6,0.2-1.6,1.2
		c0,0.9,1,1,1.6,1.2c1.7,0.6,3.5,0.9,5.4,1.1c1.7,0.2,1.8,0.2,1.9-1.7c0.1-1,0.1-2,0.1-3.1c-0.2-3.1-0.5-6.3-1.2-9.3
		c-1.3-5.6-3.2-10.9-6.8-15.5c-4.8-6.3-11.4-7-17.8-3.9c-2.6,1.3-4.8,3.1-6.7,5.2c-4.3,4.6-7.3,10-9.8,15.7c-1.1,2.5-1.1,2.5,1.1,4
		c2.9,1.8,4.2,4.4,3.6,7.8c-0.2,1.3-0.5,2.6-0.5,3.9c-0.1,2-0.9,3.6-2.4,5c-1,0.9-1.9,1.8-2.8,2.7c-1.7,1.7-2.7,3.8-3.1,6.2
		c-0.3,1.8,0.1,2.2,1.8,2.6c0.7,0.1,1.5,0.2,2.2,0.4c0.9,0.3,1.6,0.9,1.5,1.9c-0.1,2-0.8,3.6-2.5,4.8c-0.4-0.3-0.6-0.5-0.6-0.8
		c-0.7-3.2-2.1-4-5.3-3c-0.4,0.1-0.9,0.1-1.3,0.1c-1.5,0-2.9,0-4.4,0c-5-0.2-5-0.2-9.1,2c-0.9-2-0.5-3,1.6-3.4
		c0.9-0.1,1.9-0.1,2.8-0.1c0.6,0,1.1-0.1,1.4-0.9c-2.1-0.9-4.3-0.6-6.7-0.8c0.8-1.3,1.6-1.7,2.7-1.4c0.8,0.2,1.7,0.5,2.5,0.8
		c1,0.3,1.3,0.1,1.1-1c-0.2-1.4-1.2-2.2-2.4-2.6c-1.3-0.5-2.7-0.8-4.2-1.2c0.9-1.4,2-1.1,3-0.9c1.2,0.3,2.3,0.9,3.3,1.6
		c0.4,0.3,0.9,0.6,1.4,0.1c0.5-0.4,0.6-1,0.4-1.6c-0.3-0.8-0.9-1.3-1.4-1.9c-0.3-0.4-1.5-0.6-0.7-1.5c0.6-0.7,1.4-0.3,2,0.1
		c0.5,0.4,1,0.9,1.4,1.4c0.6,0.9,1.2,1.8,1.7,2.8c0.7,1.2,0.9,1.2,2,0.5c2.1-1.4,3.4-3.4,3.6-5.9c0.2-2.7-0.6-3.9-3.3-4.2
		c-4.5-0.5-8.9,0.3-12.8,2.7c-0.7,0.4-1.4,0.7-2.2,0.9c-7.1,1.2-14.3,1-21.4-0.3c-2.9-0.5-5.7-1.3-8.2-2.8c-1.8-1.1-3.2-2.5-3.9-4.6
		c-0.5-1.7-0.5-1.8-2.3-1.9c-2.4-0.1-4.8-0.5-7.1-1c-2.1-0.5-4.2-1.2-6.1-2.4c-1.5-1-2.8-2.4-2.8-4.2c0-1.9-1-2.9-2.3-3.9
		c-0.9-0.7-1.7-1.4-2.5-2.1c-2.8-2.4-5.5-4.8-8.6-6.8c-1.1-0.7-2.2-1.4-3.5-1.8c-0.8-0.2-1.5-0.2-2,0.5c-1,1.2-2.2,2-3.5,2.6
		c0.1,0.6,0.5,0.7,0.8,0.9c14.9,10,29.6,20.3,44.7,30.1c24.2,15.6,48.6,30.8,72.9,46.2c1.5,0.9,2.4,0.9,3.8,0
		c15.5-10.5,31-20.9,46.5-31.4c16.7-11.3,33.4-22.5,50.1-33.8c0.6-0.4,1.5-0.7,1.7-1.3c0.3-1.3,1.2-2.1,2-3.1
		c0.6-0.8,0.4-1.3-0.5-1.6c-0.8-0.2-1.6,0.1-2.3,0.5c-0.9,0.5-1.6,1.3-2.2,2.1c-0.9,1.2-2,1.2-3.2,0.8c0.2-0.8,0.7-1,1.2-1.4
		c1.5-1.4,2.8-3,3.8-4.8c0.3-0.6,0.7-1.1,0.7-1.8c0.1-1-0.2-1.4-1.2-1.3c-1.2,0.1-2.2,0.7-3.2,1.3c-5.6,3-11.1,6.1-16.7,9.2
		c-0.4,0.2-0.9,0.3-1,0.8c0.2,0.4,0.6,0.3,0.9,0.5c1.3,0.9,1.5,1.8,0.7,3.2c-0.5,0.8-1.2,1.5-1.9,2.1c-1.2,0.9-2.5,1.8-3.8,2.7
		c-10.4,6.5-21.8,9.4-34,8.6c-1.4-0.1-2.7,0.1-4,0.7c-3.4,1.7-6.9,2.3-10.6,1.4c-2.2-0.5-4-1.5-4.6-3.8c-0.3-0.9-0.8-1.1-1.6-1.1
		c-1.9-0.1-3.5-0.8-5.1-1.8c-0.9-0.5-1.7-1.1-2.6-1.5c-1.7-0.9-3.5-0.9-5.3-0.2c-0.8,0.3-1.3,0.9-1.4,1.8c-0.3,2.4-0.3,2.4-2.7,1.8
		c-0.7-0.2-1.4-0.3-2.1-0.8c1.4-1.4,2.7-2.7,3.7-4.4c1.6-3,1.3-5.7-0.7-8.4c-0.7-0.9-1.6-1.7-2.5-2.4c-0.3-0.2-0.9-0.4-0.6-1
		c0.2-0.4,0.6-0.6,1.1-0.6c1-0.1,1.7,0.5,2.2,1.2c0.7,0.9,1.4,1.8,2.2,2.8c0.6-1.7,0.6-3.2,0.5-4.9c1.6,1.5,1.7,1.9,2,4
		c0.2,1.8,0.8,2.1,2.3,1c0.7-0.5,1.1-1.1,1.6-1.8c0.4-0.5,0.7-1.1,1.3-1.5c0.5-0.3,1-0.5,1.4-0.2c0.5,0.3,0.4,0.9,0.2,1.4
		c-0.6,1.2-1.3,2.3-1.9,3.5c-0.2,0.2-0.5,0.4-0.3,0.6C540.1,138.2,540.4,138,540.6,137.8z M616,89.2c-2.7,0.9-5.1,0.5-7.5,0
		c-6.1-1.2-11.7-3.5-17.3-6c-2.2-1-4.1-0.8-6,0.5c-2.8,1.8-4.8,4.3-6.1,7.3c-2.5,5.6-1.5,10.7,2.9,15c2.4,2.3,5.2,4.3,8,6.1
		c6.2,4,12.6,7.7,19.6,10c5.5,1.8,10.8,1.3,16-1.2c2.1-1,4.2-2.2,4.9-4.7c0.1-0.3,0.3-0.7,0.7-0.7c0.5,0,0.6,0.5,0.7,0.9
		c0.1,0.4,0.1,0.9-0.1,1.3c-0.5,1.1-0.2,2.2,0.3,3.2c1.3,2.8,3.4,4.7,6.3,5.7c0.8,0.3,1.5,0.2,2.3-0.3c3.9-2.6,8-5,11.9-7.7
		c28.7-19.9,57.2-40,85.9-59.9c2.4-1.7,3.4-3.3,3.2-6.2c-0.3-3.1,0.3-2.8-2.9-2.8c-39.8,0-79.6,0-119.4,0c-0.5,0-1,0-1.5,0
		s-1,0.2-1.3,0.6c-2.3,2.3-5.2,3.4-8.3,4.2c-0.8,0.2-1.5,0.4-2.2,0.9c-2.3,1.9-4,7.5-3.2,10.3c0.6,2,2.2,2.4,3.6,0.8
		c0.8-0.9,1.4-1.9,2-2.9c2-3,4.3-5.8,7.2-7.9c5.1-3.8,10.7-4.2,16.6-2.2c0.9,0.3,1.9,0.7,2.3,1.9c-0.9,0.6-1.9,0.8-2.9,1
		c-4.8,1.1-9.5,2.3-14,4.4c-4,1.8-7.6,4.3-10.6,7.6c-1.3,1.4-2.5,2.9-3,4.8c-0.4,1.4,0.1,2.1,1.5,2.2c1.1,0.1,2.2-0.2,3.2-0.7
		c2.5-1,4.7-2.6,7-4c1.5-0.9,3-1.8,4.5-2.7c0.5-0.3,1.2-0.5,1.6,0c0.6,0.6,0.2,1.2-0.2,1.8c-0.5,0.8-1.2,1.3-1.9,1.7
		c-1.3,0.8-2.7,1.5-4.1,2c-3,1.1-6.1,2.1-9.1,3.1c-1.7,0.6-3.3,1.1-4.9,2c-0.5,0.3-1.1,0.6-0.9,1.3c0.3,0.8,1,1.1,1.8,0.9
		c1.1-0.4,2.2-0.8,3.3-1.2c3.1-1.4,6.2-2.6,9.5-3.2c1.9-0.3,3.8-0.5,5.6,0.3c0.8,0.3,1.6,0.8,2,1.6c0.2,0.6,0.1,1-0.6,1
		c-0.3,0-0.6-0.1-0.9-0.1c-2.4-0.7-4.8-0.5-7.2,0c-2.5,0.5-4.8,1.3-7,2.3c-2.4,1.1-4.8,1.2-7.2,0.4c-0.4-0.1-0.8-0.5-1.3-0.1
		c-0.1,1,0.5,1.7,1.3,2.2c1.1,0.6,2.2,1.1,3.4,1.5c3.2,1.1,6.5,1.7,9.7,2.6C614.2,88.3,615,88.4,616,89.2z M314.7,73.4
		c-0.4,0.7-0.2,1.4-0.2,2.1c0,16.4,0,32.7,0,49.1c0,0.4,0,0.7,0,1.1c-0.1,0.9,0.2,1.4,1.2,1.4c2.3,0.2,4,1.6,5.6,3.2
		c1.4,1.4,2.5,3.1,3.5,4.8c2.8,4.8,4.8,10,6.5,15.3c0.7,2.3,0.7,2.3-1.6,2.9c-0.2,0.1-0.4,0.2-0.6,0.1c-1.2-0.1-1.6,0.5-1.6,1.7
		c0,12.3-0.6,24.5-1.4,36.8c-0.3,4.7-0.7,9.5-1.1,14.2c-0.4,5-1,10-1.4,15c-0.1,0.7-0.3,1.4,0.2,2.2c3.3-1.2,6.5-2.3,9.9-3
		c1.3-0.2,1.6-0.8,1.8-2c1.6-9,3.3-17.9,5-26.9c2.4-12.8,4.8-25.7,7.2-38.5c0.1-0.5,0.3-1.1,0-1.7c-0.7,0.1-1.1,0.7-1.6,1
		c-1.1,0.8-2.1,1.6-3.4,2c-1,0.4-2.1,0.8-3-0.2c-0.9-1,0-1.8,0.4-2.6c5.6-11,11.1-22,16.7-33c0.2-0.5,0.3-1.1,1-1.4
		c1,6.5,2.9,34.8,2.5,36.4c-1.9-3.9-2.6-4.7-4.6-5.3c-0.1,0.3-0.2,0.5-0.3,0.8c-1.1,6.6-2.1,13.3-3.2,19.9
		c-1.7,10.5-3.4,21-5.1,31.5c-1,6.3-2,12.5-3,18.8c-0.2,0.9,0,1.3,0.9,1.6c1.9,0.5,3.6,1.5,5.5,2.4c0.5-3.2,1.2-6.3,2-9.3
		c3.4-12.1,7.7-23.9,11.7-35.8c1.9-5.7,4.1-11.3,5.7-17c0.6-2.1-0.1-3-2.3-3c-0.9,0-1.9,0.3-2.8-0.3c1.9-7.6,14.2-16.9,23.2-17.6
		c-1.7,1.9-3,4-4.1,6.3c-1.1,2.2-2.2,4.5-3.2,6.7c-6,13.9-10.7,28.2-15.2,42.7c-4.8,15.6-9,31.3-12.3,47.2c-0.1,0.6,0,1.4-0.7,2.1
		c-1.8-4.7-5.7-6.1-10-7c-1.4-0.3-1.5-0.1-1.7,1.2c-1.6,9.9-3.2,19.9-4.8,29.8c-2.1,13.3-4.3,26.5-6.4,39.8c-0.4,2.6-1,5.3-1.2,8.3
		c0.9-0.8,1-1.6,1.2-2.4c10.4-29.5,20.7-58.9,31.1-88.4c11.3-32.3,22.7-64.6,34-96.9c0.7-2,0.7-2.1-0.9-3.2
		c-25.8-17.5-51.6-34.9-77.5-52.4C315.7,73.7,315.4,73.2,314.7,73.4z M432.3,90c0.6,0.8,1.1,1.6,1.7,2.2c1.2,1.2,3.2,1.1,4-0.3
		c1.3-2.3,0.3-4.6-2.2-5.1c-0.9-0.2-1.7-0.3-2.6-0.5c-1-0.3-2.2-0.3-3.1-1c0.8-0.6,1.6-0.6,2.5-0.7c2.2-0.1,4.4,0.4,6.4,1.3
		c1.2,0.6,2.1,0.2,3-0.5c0.7-0.6,1.2-1.3,1.6-2.1c1-1.9,1.6-3.9,2.1-6c0.3-1.3-0.1-1.7-1.4-1.3c-1.8,0.5-3.6,0.7-5.4,0.8
		c-1.8,0.1-3.4,0.6-4.8,1.8c-4.2,3.3-9,5.3-14.3,6.1c-0.9,0.1-1.9,0.2-2.8,0.6c-1.4,0.6-2.1,2-1.9,3.4c0.2,1.3,1,2,2.6,2.3
		c0.2,0,0.4,0.1,0.7,0.1c3,0,4.6,1.8,5.6,4.4c0.4,1.2,0.8,2.4,1.3,3.5s1.2,1.3,2.3,1c0.6-0.2,1-0.9,1.9-0.5
		c-0.4,2.8-0.7,5.7-1.2,8.8c-1.1-1.9-1.1-2-1.3-5c-0.1-1.2-0.4-1.9-1.7-2c-1.5-0.1-2.1-1.1-2.4-2.4c-0.2-0.7-0.2-1.4-0.4-2.1
		c-0.6-2.3-1.4-3-3.8-3.3c-1.6-0.2-3.2-0.2-4.8-0.4c-2.9-0.3-3.9-2.1-2.6-4.8c0.7-1.3,1.7-2.4,2.8-3.3c1.5-1.2,3.1-1.9,4.9-2.3
		c2.5-0.6,5.1-1.2,7.7-1.8c1.3-0.3,2.6-0.6,3.7-1.3c1.2-0.8,1.3-2.4,0-3.3c-0.4-0.3-0.9-0.5-1.4-0.5c-1.5-0.2-3.1-0.3-4.6-0.1
		c-1.3,0.1-1.7,0.9-1.3,2.2c0.2,0.7,0.6,1.3,1.1,2.1c-2.2-0.5-3.9-1.1-4.1-3.5c-0.1-0.6-0.3-0.9-0.9-0.9c-0.6-0.1-1.3-0.2-1.9-0.4
		c-1.4-0.5-2.9-1-3.8-2.4c0.8-0.2,1.4,0.3,2,0.3c0.7,0,1.5,0.2,2.2,0.1c0.6,0,1.5,0.2,1.7-0.5c0.2-0.8-0.7-1-1.2-1.3
		c-0.7-0.4-1.4-0.8-2.1-1.2c-0.4-0.2-0.7-0.6-0.5-1.1c0.4-1.1,2.7-2.2,3.8-1.9c0.9,0.3,1.8,0.7,2.7,1c0.5,0.2,1,0.2,1.4-0.3
		c0.8-1,0-3.5-1.2-3.8c-1.4-0.4-2.8-0.7-4.2-1.2c-1.7-0.6-3.3-1.3-4.6-2.5c-1.6-1.6-1.9-3.3-0.5-5.1c2-2.4,4.6-3.5,7.7-3.4
		c0.9,0,1.1,0.6,0.6,1.3c-0.8,1.1-2,1.8-3.4,2.4c-1,0.4-2.4,0.7-2.3,2c0,1.3,1.5,1.5,2.5,1.8c4,1.3,7.6,3.3,11.1,5.6
		c0.4,0.3,0.7,0.8,1.4,0.5c0.1-0.2,0.2-0.4,0.3-0.5c1.6-2.7,3.5-2.8,5.4-0.2c0.4,0.6,0.6,1.3,1.4,1.6c0.6-3.5,2.6-6.8,5-8.4
		c0,0.6,0,1.1,0,1.6c0,2.7,0.1,2.8,2.7,2.3c3.1-0.5,6.1-1.4,9.1-2.3c0.8-0.3,1.7-0.5,2.5-0.9c3-1.7,6.1-3.5,9.1-5.3
		c1.2-0.7,2.3-1.6,2.9-3.2c-1.1,0-1.9,0-2.8,0c-49.5,0-99.1,0-148.6,0c-0.4,0-0.9,0-1.3,0c-1.7,0-1.7,0-1.7,1.7c0,2.5,0.1,5,0,7.4
		c-0.1,1.6,0.5,2.5,1.8,3.4c10.7,7.1,21.3,14.4,32,21.6c0.6,0.4,1.1,0.9,2,1.1c1.6-3.7,4.2-6.4,8.1-7.7c4-1.3,7.8-0.7,11.3,1.7
		c3,2.1,4.8,5.1,5.3,8.7c0.6,4.4-1,8.1-4.2,11.4c11.8,8,23.4,15.8,35.2,23.8c0.8-1.9,1.8-3.3,2.7-4.8c1.3-2,1.1-2.7-0.9-3.8
		c-1-0.6-2.1-1-2.9-1.9c-1.3-1.5-1-2.7,0.9-3.3c0.7-0.2,1.5-0.6,2.4,0c-0.1,0.9-0.3,1.7-0.3,2.6c0,1.3,0.6,1.7,1.8,1.5
		c2.6-0.4,3.6-2.3,2.5-4.6c-0.1-0.2-0.1-0.4-0.3-0.7c1.1,0,2.2-0.6,3.3-0.2c-0.3,1-0.7,2-0.9,3c-0.2,1.2,0.4,1.8,1.6,1.6
		c1.1-0.2,2.1-0.8,2.7-1.7c0.8-1.3,1.8-1.3,2.9-0.8c0.4,0.2,1,0.2,1.4,0.7c-1.4,1.3-3.4,1.7-4.8,3.4c2.8,0.9,4.9,0,7-1.6
		c0.1,0.7,0.2,1.1,0.2,1.5c0.1,3.4,0,3.5-3.5,3.1c-1.7-0.2-3,0.5-3.8,2c-0.4,0.7-0.3,1.2,0.6,1.1c1.1-0.2,2,0.3,2.9,0.7
		c2.9,1.1,5.7,2.2,8.6,3.2c4.9,1.6,4.4,2.2,9.8-1.4c1.6-1.1,3-2.2,3.1-4.4c0-1.3,0.8-2.5,1.4-3.7c1.5-2.9,3.5-5.4,5.8-7.6
		c3.5-3.3,7.5-5.8,11.8-7.9c3.8-1.9,7.6-3.8,10.9-6.4c1.5-1.1,2.8-2.3,3.8-3.9c1.7-2.6,1.3-4.8-1.2-6.7c-2.1-1.6-4.5-2.1-7-1.7
		c-1.4,0.3-2.8,0.6-4.3,1c-2.3,0.6-4.6,1.5-7,1.7c-1.3,0.1-2.1,0.9-2.7,2c-0.8,1.3-1.2,2.8-1.7,4.3c-0.6,2.2-1.2,4.4-1.9,6.5
		c-0.7,2.3-2.3,3.4-4.6,3.7c-3.6,0.5-7.1,0.2-10.7,0c-1.7-0.1-2.8-1.1-3.4-2.7C431.5,94.3,431.7,92.3,432.3,90z M740.5,336
		c-0.6-0.7-0.6-1.4-0.8-2.1c-8.9-38.1-17.8-76.1-26.8-114.2c-0.9-4-1.3-8.3-4.1-11.6c-0.1-0.1,0-0.3,0-0.5c5.6-1.6,11.2-3.2,17-4.9
		c-0.6,3.1-0.5,5.8-0.3,8.6c0.6,8.5,1.9,16.8,3.5,25.1c3.3,17,7.3,33.8,11.7,50.5c0.2,0.6,0.2,1.2,0.8,1.8
		c0.5-8.4,0.2-104.5-0.3-106.4c-0.6,1.5-1.7,1.8-3,2.1c-15.8,4.6-31.6,9.2-47.5,13.8c-3.6,1-7.2,0.9-10.5-1.3
		c-0.2-0.1-0.3-0.2-0.6-0.1c0.7,3.1,60.9,163.2,61.8,164.5c0-9.9,0-19.8,0-29.7c-0.1,0-0.1,0-0.2,0C741,332.9,740.9,334.4,740.5,336
		z M314.6,129.3c0,66.2,0,132.5,0,198.7c0.1,0,0.2,0,0.3,0c5.6-30.1,11.2-60.2,16.8-90.5c-4.7-0.2-9.1,0.7-13.5,1.2
		c-0.1-2.2,0.2-4.3,0.3-6.3c0.6-12.5,1.1-25.1,1.3-37.7c0.3-19.2-0.8-38.4-3.4-57.4C316,134.6,315.6,131.9,314.6,129.3z
		 M707.9,156.1c-6.6,0-12.2,5.5-12.2,12.1s5.5,12.2,12.1,12.2c6.7,0.1,12.3-5.6,12.3-12.3C720,161.6,714.5,156.1,707.9,156.1z
		 M468.5,58.7c-2.8,0-5,2.2-5,5c0,2.7,2.4,5,5.1,5s5-2.3,5-5.1C473.5,60.9,471.3,58.7,468.5,58.7z M477,49.8c-1.9,0-3.2,0-4.6,0
		c-0.4,0-0.9,0.1-0.9,0.7c0,0.5,0.2,0.8,0.6,1c0.4,0.2,0.8,0.2,1.3,0.1C474.6,51.3,475.7,51,477,49.8z M480.9,50.2
		c0-0.1-0.1-0.2-0.2-0.1c-0.2,0.1-0.2,0.3-0.2,0.5s0.1,0.3,0.2,0.2C480.8,50.6,480.8,50.4,480.9,50.2z M328,317.6
		c0,0.1-0.1,0.2-0.1,0.3c0,0.2,0.1,0.2,0.2,0c0-0.1,0-0.2,0-0.3C328.1,317.6,328,317.6,328,317.6z"/>
	<path fill="#C78C1C" d="M639.9,194.4c0.9,2.3,1.8,4.3,2.6,6.3c14.1,35.1,28.2,70.3,42.3,105.4c22.3,55.6,44.6,111.2,67,166.7
		c1.8,4.5,3,8.9,2.6,13.8c-0.1,1.2,0.5,2.7-0.4,3.5c-0.8,0.7-2.2,0.2-3.4,0.2c-148.6,0-297.2,0-445.8,0c-3.7,0-3,0.4-3.3-3.3
		c-0.3-4.9,0.8-9.4,2.6-14c27.6-68,55-136,82.5-204c9.9-24.6,19.8-49.1,29.8-73.7c0.3-0.7,0.4-1.4,1.1-2c4.4,2.7,8.9,5.5,13.4,8.2
		c31.6,19.5,63.2,39.1,94.8,58.7c1.5,1,2.6,0.9,4.1,0c36-21.6,72-43.2,108-64.8C638.4,195.3,639,194.9,639.9,194.4z M611.1,337.5
		c-0.1-0.1-0.2-0.2-0.3-0.2c-0.2,0.1-0.1,0.3,0,0.5c0.4,2.3,1,4.6,1,6.9c0.2,15.2-9.5,28.3-24.2,32.4c-0.3,0.1-0.6,0.1-0.8,0.3
		c-0.2,0.1-0.7,0-0.7,0.5c20.9,1.3,41.5-0.7,62.1-5.8c-1-1.6-1.9-2.9-2.8-4.2c-4.2-6.1-8.7-12.1-14.7-16.7c-3.9-3-7.9-6-11.7-9.2
		C616.7,340,614.1,338.3,611.1,337.5z M739.8,477.5c-0.4-1.1-0.8-2-1.1-2.9c-19.1-47.5-38.1-94.9-57.2-142.4c-1-2.5-2-5-3-7.5
		c-0.2-0.4-0.3-1.1-0.7-0.9c-1.9,0.8-2.8-0.8-4-1.5c-18.1-10.5-36.4-20.7-55.6-29.2c-12.2-5.4-24.6-10.3-37.6-13.6
		c-9.7-2.5-19.4-4-29.5-3.3c-6.3,0.5-12.2,2-17.5,5.6c-8.1,5.6-16.7,10.1-25.7,14c-18.5,8.2-37.8,14.2-57.4,19.3
		c-16.2,4.3-32.6,7.8-49.1,10.9c-7.8,1.4-15.7,2.8-23.5,3.9c-1.6,0.2-2.2,0.8-2.7,2.1c-3.1,7.7-6.2,15.4-9.3,23.2
		c-0.2,0.5-0.6,1-0.3,1.6c0.7,0.3,1.5,0.1,2.2,0.1c7.8-0.2,15.6-0.2,23.4-0.4c15.2-0.4,30.4-0.7,45.6-1.4
		c10.8-0.4,21.6-0.9,32.3-2.3c10.5-1.3,20.4-4.3,29.3-10.1c2.4-1.6,4.8-3.1,7.1-4.7c4-2.8,8.3-5.2,12.8-7.1
		c25-10.7,51.1-14.5,78.2-11.9c11.2,1.1,21.1,5.3,29.9,12.3c7.1,5.7,13.6,12.2,19.8,18.9c3.5,3.7,7,7.5,10.5,11.2
		c1.7,1.8,3.5,3.3,5.8,4.3c1.6,0.7,3,1.7,4.3,2.9c4.6,4.1,5.1,9.5,2.2,14.9c-0.4,0.8-1,1.2-1.9,1.2c-3.9,0.2-7.7,0.5-11.6,0.9
		c-8.7,0.7-17.5,1.5-26.2,2.2c-1.2,0.1-1.6,0.7-1.7,1.7c-0.2,2.4-0.5,4.8-0.6,7.2c-0.2,5.7,0,11.4,0,17.1c0,1.2,0.3,2.3,1.1,3.2
		c1,1.3,2,2.5,3,3.8c1.1,1.4,2.3,2.9,3,4.6c0.6,1.6,0.6,3.1-0.7,4.4c-1.1,1.1-1.7,2.5-2.3,3.9c-1.1,2.6-1.9,5.2-2.8,7.8
		c-3.5,11.4-6.2,22.9-9.3,34.4c-0.1,0.4-0.4,0.8,0,1.3C659,477.5,699.2,477.5,739.8,477.5z M399.9,477.5c-0.2-0.3-0.2-0.4-0.3-0.4
		c-0.6-0.3-1.2-0.6-1.7-0.9c-10.9-6-19.3-14.3-25-25.4c-2.8-5.4-4.7-11-5.1-17.1c-0.5-8,2.2-15.1,7.2-21.3
		c6.1-7.6,15.9-8.8,23.6-2.8c7.5,5.8,10.2,13.7,8.8,22.9c-0.8,5.4-4.1,9.1-9.5,10.6c-1.9,0.6-3.9,0.7-5.9,0.6
		c-5.8-0.3-9.4-3-11.1-8.5c-0.1-0.4-0.3-0.8-0.4-1.3c-0.6-2.4-0.8-4.9-0.1-7.4c1-3.7,4-5.9,7.8-5.7c1.2,0.1,2.2,0.4,2.8,1.4
		c1.1,1.9,1.3,3.8,0.6,6.3c-0.7-0.8-1.1-1.3-1.6-1.7c-2-1.8-3.6-1.6-4.9,0.8c-1.4,2.5-1.2,4.9,0.3,7.2c1.7,2.5,3.9,3.9,7,3.7
		c2.7-0.2,4.8-1.6,6.7-3.4c3.7-3.5,4.2-7.5,1.6-11.9c-2-3.3-4.8-5.7-8.1-7.4c-1.5-0.8-3.1-0.9-4.7-0.7c-6.9,0.9-13.5,8-13.8,15
		c-0.5,10.8,3.4,19.9,11.8,26.8c5.1,4.2,11,6.8,17.4,8.5c6.7,1.8,13.5,2.6,20.3,2.9c7.7,0.4,15.4,0,22.9-1c6.9-1,13.4-3.5,19.8-6.1
		c15.9-6.5,30.9-14.9,45.3-24.3c20-13.1,38.3-28.3,56.2-44c0.3-0.2,0.6-0.4,0.4-1c-6.9-1-13.7-2.5-20.4-4.4
		c-19.9-5.6-38.8-13.5-57.3-22.6c-1.2-0.6-2.4-0.9-3.8-0.8c-7.4,0.1-14.7,0.4-22.1,0.8c-12.3,0.8-24.6,1.5-37,2.2
		c-12.2,0.7-24.3,1.5-36.5,2.2c-10.1,0.6-20.3,1.2-30.4,1.8c-1.3,0.1-1.8,0.5-2.2,1.6c-1.1,2.8-2.2,5.6-3.3,8.3
		c-12.7,31.3-25.3,62.7-38,94c-0.3,0.7-0.8,1.4-0.6,2.3C344.4,477.5,372.1,477.5,399.9,477.5z M383.9,310.2c0.9,0.3,1.4,0.1,2,0
		c13.2-2.3,26.4-4.8,39.5-7.8c19.8-4.5,39.4-9.7,58.5-16.6c10.8-3.9,21.5-8.4,31.5-14.1c0.6-0.4,1.5-0.6,1.8-1.5
		c-31.2-19.3-62.4-38.6-93.7-58C410.3,245,397.1,277.6,383.9,310.2z M463.1,477.1c0,0.1,0,0.3,0,0.4c0.7,0,1.3,0,2,0
		c46.7,0,93.4,0,140,0c2.8,0,2.5,0.1,2.4-2.5c-0.5-11.5-1-22.9-1.5-34.4c-0.2-3.5-0.4-7-0.5-10.5c0-1.7-0.6-2.9-2.3-3.5
		c-1.4-0.5-1.8-1.5-1.8-2.9c0-6.6-0.1-13.1-0.2-19.7c0-3.4-0.2-6.7-0.2-10.1c0-1.6-0.3-1.7-2-1.7c-0.8,0-1.2,0.5-1.7,0.9
		c-2.5,2.1-4.9,4.3-7.5,6.4c-21.8,17.9-44.8,34.1-69,48.8c-15.7,9.5-31.9,18.2-49,25.2C469.1,474.9,466.1,476,463.1,477.1z
		 M633.6,213.1c-24.8,14.9-49.3,29.6-73.8,44.3c0.4,0.4,0.7,0.4,1,0.5c9,0.6,17.8,2.2,26.5,4.6c15.9,4.3,31.1,10.5,45.9,17.5
		c10.7,5,21.2,10.5,31.5,16.2c0.8,0.4,1.5,1.1,2.8,1.1C656,269.1,644.9,241.2,633.6,213.1z M501.9,353.3
		c19.6,11.2,40.6,18.1,62.8,22c-0.1-0.3-0.1-0.4-0.1-0.4c-0.2-0.1-0.3-0.3-0.5-0.4c-10.9-6-16.8-15.2-17.7-27.6
		c-0.3-4.1,0.3-8,2.1-11.7c0.2-0.5,0.7-0.9,0.6-1.6c-0.6-0.1-1.3,0-1.9,0.1c-6,1.1-11.9,2.4-17.6,4.3c-9.1,3-17.8,7-25.3,13
		C503.4,351.7,502.5,352.2,501.9,353.3z"/>
	<path fill="#C78C1C" d="M292.1,596.3c1.1-2.4,2.1-4.4,3.1-6.5c3.8-8.1,7.6-16.1,11.3-24.2c0.8-1.7,1.8-2.5,3.7-2.3
		c1.7,0.2,3.5,0,5.3,0c1.9,0,2.3,0.4,2.3,2.3c0,6.2,0,12.4,0,18.6c0,7.8,0,15.6,0,23.4c0,3,0,3-3.1,3c-1.7,0-3.4,0-5,0
		c-2.1,0-2.3-0.2-2.3-2.3c0-5.9,0-11.8,0-17.7c0-0.7,0-1.3,0-2.1c-0.8,0.3-0.9,1-1.2,1.5c-2.7,5.4-5.5,10.8-8.1,16.3
		c-1,2-2.2,2.9-4.4,2.6c-1.3-0.2-2.6-0.1-3.9,0c-1.4,0.1-2.3-0.5-2.9-1.8c-2.9-5.7-5.9-11.4-8.9-17.1c-0.4-0.8-0.8-1.5-1.2-2.3
		c-0.7,0.3-0.4,0.9-0.4,1.3c0,6.2,0,12.4,0,18.6c0,0.5,0,1,0,1.5c0,1-0.5,1.5-1.5,1.5c-2.4,0-4.8,0-7.2,0c-1,0-1.5-0.4-1.5-1.5
		c0-0.4,0-0.9,0-1.3c0-13.9,0-27.9,0-41.8c0-0.4,0-0.7,0-1.1c0.1-1.4,0.3-1.7,1.7-1.7c2.3,0,4.5,0,6.8,0c1.3,0,1.8,0.7,2.3,1.7
		c2.1,4.3,4.2,8.5,6.3,12.8C286,583.8,288.9,589.9,292.1,596.3z"/>
	<path fill="#C78C1C" d="M578.7,587.4c0,6.9,0,13.9,0,20.8c0,2.3-0.2,2.5-2.5,2.5c-1.9,0-3.8,0-5.7,0c-1.9,0-2.1-0.2-2.1-2.2
		c0-4.8,0-9.6,0-14.5c0-1.9,0-1.9-1.9-1.9c-4.1,0-8.2,0-12.3,0c-1.8,0-1.8,0-1.8,1.9c0,4.6,0,9.2,0,13.8c0,0.5,0,1,0,1.5
		c0,0.9-0.5,1.4-1.4,1.4c-2.5,0-5,0-7.5,0c-1,0-1.5-0.6-1.4-1.5c0-0.4,0-0.9,0-1.3c0-13.7,0-27.5,0-41.2c0-0.4,0-0.9,0-1.3
		c0.1-1.4,0.3-1.7,1.7-1.7c2.2-0.1,4.4-0.1,6.6,0c1.7,0,2,0.3,2,2.1c0,4.6,0,9.2,0,13.8c0,3.1-0.3,2.6,2.7,2.7c3.9,0,7.7,0,11.6,0
		c1.6,0,1.7,0,1.7-1.7c0-4.7,0-9.5,0-14.2c0-2.5,0.1-2.6,2.6-2.6c1.6,0,3.2,0,4.8,0c2.8,0,2.9,0.1,2.9,2.8
		C578.7,573.4,578.7,580.4,578.7,587.4z"/>
	<path fill="#C78C1C" d="M429.2,594.8c-1.8,1.4-3,2.9-2.8,5.5c0.2,2.8,0.1,5.5,0,8.3c0,1.9-0.2,2.1-2.2,2.1c-1.8,0-3.7,0-5.5,0
		c-2.6,0-2.8-0.1-2.8-2.7c0-6.8,0-13.6,0-20.4c0-7.2,0-14.3,0-21.5c0-2.4,0.2-2.6,2.6-2.6c1.7,0,3.4,0,5,0c2.6,0,2.7,0.1,2.8,2.7
		c0,5,0,10.1,0,15.1c0,0.4,0,0.9,0,1.4c1-0.1,1.3-0.9,1.8-1.5c4.4-5.3,8.7-10.6,13-16c1.1-1.3,2.2-1.9,3.9-1.8c2.2,0.1,4.4,0,6.6,0
		c0.4,0,0.9,0,1.3,0c1.4,0.2,1.6,0.8,0.9,1.9c-0.2,0.4-0.5,0.7-0.8,1c-5.3,6.5-10.6,13-15.9,19.5c-1.4,1.7-1.3,1.3,0.1,3
		c5.3,6.2,10.6,12.5,15.9,18.7c0.1,0.1,0.2,0.2,0.3,0.3c0.4,0.6,1.2,1,0.9,1.9c-0.4,1-1.3,0.8-2.1,0.8c-2.6,0-5.3-0.1-7.9,0
		c-1.5,0-2.5-0.4-3.4-1.6c-3.3-4.2-6.7-8.3-10-12.4C430.5,596.1,430,595.3,429.2,594.8z"/>
	<path fill="#C78C1C" d="M486.1,596.1c1.1,0,2.2,0,3.3,0s1.7,0.5,1.9,1.6c0.8,3.3,3.9,4.8,7.2,3.5c3.4-1.3,4-5.4,1.3-7.8
		c-1.2-1-2.7-1.4-4.3-1.5s-3.2-0.4-4.7-0.9c-11.4-3.7-12-16.4-6.5-23c5.9-7,17.8-7.2,23.9-0.4c2.1,2.4,3.3,5.2,3.4,8.4
		c0,1.5-0.3,1.9-1.7,1.9c-2.2,0.1-4.4,0.1-6.6,0c-1,0-1.7-0.4-2-1.6c-1-3.3-4.2-4.6-7.3-3.2c-2,0.9-3,2.9-2.7,5.3
		c0.2,1.9,1.7,3.3,3.8,3.7c1.3,0.2,2.6,0.2,3.9,0.4c6,1,10.5,4.1,12.2,10.2c2.4,8.3-2.1,16.4-11.2,18.4c-4.2,0.9-8.1,0.3-11.9-1.6
		c-4.6-2.3-6.8-6.2-7.3-11.2c-0.2-1.7,0.2-2.1,1.9-2.2C483.9,596.1,485,596.1,486.1,596.1z"/>
	<path fill="#C78C1C" d="M625.7,605.4c-1.8,0-3.7,0-5.5,0c-0.9,0-1.3,0.3-1.6,1.1s-0.7,1.6-0.9,2.5c-0.3,1.2-1,1.8-2.3,1.8
		c-2.3-0.1-4.7,0-7,0c-1.9,0-2.2-0.5-1.5-2.3c2.4-6.2,4.8-12.4,7.2-18.6c3.2-8.2,6.4-16.5,9.6-24.7c0.3-0.7,0.5-1.4,0.9-2
		c0.6-1,1.9-1,2.5,0c0.3,0.4,0.4,0.9,0.6,1.4c5.6,14.3,11.2,28.7,16.8,43c1.1,2.9,1,3.1-2.1,3.1c-2,0-3.9,0-5.9,0
		c-1.3,0-2.2-0.3-2.4-1.6c-0.5-3.4-2.7-4.2-5.8-3.7C627.5,605.6,626.6,605.4,625.7,605.4z M625.9,585c-1,4.1-2.8,8-4,12.3
		c2.8,0,5.3,0.1,7.9-0.1C628.6,592.9,627,589.1,625.9,585z"/>
	<path fill="#C78C1C" d="M366.9,598.4c-9.9,0-18-8-18-17.7c0-9.9,8.3-17.9,18.4-17.8c9.8,0.1,17.9,8.2,17.9,17.9
		C385.2,590.6,377,598.4,366.9,598.4z M374.8,580.7c0-4.5-3.4-8.1-7.7-8.1c-4.3,0-7.8,3.6-7.8,8.1s3.5,8,7.9,7.9
		C371.5,588.6,374.8,585.2,374.8,580.7z"/>
	<path fill="#C78C1C" d="M774.5,573.5c-0.7-0.5-1.5-0.3-2.2-0.3c-3.4,0-6.7,0-10.1,0c-0.7,0-1.3,0-2-0.1s-1.2-0.6-1.2-1.3
		c0-2.2,0-4.4,0-6.6c0-1,0.5-1.5,1.5-1.5c0.5,0,1,0,1.5,0c8,0,15.9,0,23.9,0c0.4,0,0.7,0,1.1,0c1.7,0.1,2.1,0.6,1.5,2.2
		c-1.7,4.5-3.4,9-5.1,13.5c-3.6,9.5-7.2,19.1-10.8,28.6c-0.2,0.5-0.4,0.9-0.6,1.4c-0.3,1-1,1.3-2,1.3c-2.3,0-4.5,0-6.8,0
		c-2,0-2.4-0.5-1.7-2.4c1.4-3.9,2.9-7.8,4.4-11.7c2.6-7,5.3-13.9,7.9-20.9C774.2,575.1,774.5,574.5,774.5,573.5z"/>
	<path fill="#C78C1C" d="M721.5,575.2c-1.7,0.2-2.9,1-4.2,1.4c-1.6,0.5-2,0.4-2.8-1.1c-0.7-1.4-1.3-2.8-1.9-4.2
		c-0.4-0.9-0.4-1.5,0.5-2c3.3-1.8,6.7-3.6,10-5.4c0.3-0.2,0.7-0.2,1.1-0.2c2,0,3.9-0.1,5.9,0c1.4,0,1.6,0.3,1.7,1.7
		c0,0.4,0,0.9,0,1.3c0,13.7,0,27.4,0,41.2c0,0.4,0,0.9,0,1.3c0,1.1-0.5,1.6-1.6,1.6c-2.4,0-4.8,0-7.2,0c-1.1,0-1.6-0.6-1.5-1.7
		c0-0.5,0-1,0-1.5c0-9.9,0-19.9,0-29.8C721.5,577,721.5,576.2,721.5,575.2z"/>
	<path fill="#C78C1C" d="M491.6,529.8c-3.3,0-6.6,0-9.9,0c-1.6,0-1.6-0.1-1.7-1.6c0-4.9,0-9.8,0-14.7c0-1.1,0.2-1.6,1.5-1.6
		c3.5,0.1,7,0.1,10.5,0c1,0,1.5,0.3,1.4,1.4c-0.1,1.6,0,3.2,0,4.8c0,0.9-0.2,1.4-1.2,1.3c-0.3,0-0.6,0-0.9,0
		c-0.9,0.1-1.3-0.2-1.3-1.2c0-0.9,0.4-1.9-0.2-2.5c-0.7-0.7-1.8-0.3-2.7-0.3c-3.6,0-3.6,0-3.6,3.5c0,1.9,0,3.8,0,5.7
		c0,1.6,0,1.7,1.5,1.7c4.4,0,8.8,0,13.1,0c1.2,0,1.5-0.5,1.5-1.6c0-4.8,0-9.6,0-14.5c0-0.6,0-1.2,0-1.8c-0.1-1,0.3-1.4,1.3-1.4
		c6.5,0,13,0,19.5,0c1,0,1.2,0.5,1.2,1.3c0,5,0,10.1,0,15.1c0,1-0.4,1.4-1.4,1.4c-3.6,0-7.2,0-10.7,0c-0.9,0-1.3-0.4-1.3-1.3
		c0-1.7,0-3.4,0-5c0-1.4,0.9-1.3,1.8-1.3c1,0,1.6,0.1,1.6,1.4c0,2.8,0.1,2.8,3,2.8c0.7,0,1.5,0,2.2,0c1,0.1,1.5-0.2,1.5-1.3
		c0-2.8,0-5.5,0-8.3c0-0.9-0.3-1.3-1.3-1.3c-4.2,0-8.5,0.1-12.7,0c-1.3,0-1.4,0.6-1.4,1.6c0,4.6,0,9.2,0,13.8c0,3.7,0,3.7-3.6,3.7
		C496.7,529.8,494.2,529.8,491.6,529.8z"/>
	<path fill="#C78C1C" d="M467.5,529.8c-3.3,0-6.6,0-9.9,0c-1.6,0-1.6-0.1-1.6-1.6c0-4.9,0-9.8,0-14.7c0-1.1,0.3-1.5,1.5-1.5
		c3.5,0.1,7,0.1,10.5,0c1.1,0,1.4,0.4,1.4,1.4c-0.1,1.6-0.1,3.2,0,4.8c0,0.9-0.3,1.4-1.3,1.3c-0.3,0-0.6,0-0.9,0
		c-0.9,0.1-1.3-0.3-1.3-1.3c0-0.8,0.4-1.9-0.3-2.5s-1.8-0.2-2.7-0.3c-3.6,0-3.6,0-3.6,3.6c0,2,0,3.9,0,5.9c0,1,0.3,1.5,1.4,1.4
		c4.5,0,8.9,0,13.4,0c1.2,0,1.4-0.6,1.4-1.6c0-4.9,0-9.8,0-14.7c0-0.5,0-1,0-1.5c-0.1-1,0.3-1.4,1.4-1.4c2.6,0.1,5.3,0,7.9,0
		c3.7,0,7.4,0,11.2,0c1.6,0,1.6,0,1.6,1.6c0,4.9,0,9.8,0,14.7c0,1.1-0.2,1.6-1.4,1.6c-3.5-0.1-7,0-10.5,0c-1,0-1.5-0.2-1.5-1.3
		c0.1-1.7,0-3.4,0-5c0-1.4,0.9-1.2,1.8-1.2c0.8,0,1.6-0.1,1.6,1.2c0,0.9-0.4,2.1,0.3,2.7c0.8,0.7,2,0.3,3,0.3c3.4,0,3.4,0,3.4-3.3
		c0-2.1,0-4.2,0-6.4c0-1-0.4-1.3-1.3-1.3c-4.2,0-8.5,0.1-12.7,0c-1.3,0-1.4,0.7-1.4,1.7c0,4.8,0,9.6,0,14.5c0,0.5,0,1,0,1.5
		c0.1,1.1-0.4,1.5-1.5,1.5C474,529.8,470.7,529.8,467.5,529.8z"/>
	<path fill="#C78C1C" d="M563.7,529.8c-3.3,0-6.6,0-9.9,0c-1.1,0-1.5-0.4-1.5-1.5c0.1-5,0-9.9,0-14.9c0-1,0.3-1.4,1.4-1.4
		c3.6,0.1,7.2,0,10.7,0c0.8,0,1.2,0.3,1.2,1.1c0,1.8,0,3.5,0,5.3c0,0.8-0.3,1.2-1.2,1.1c-0.3,0-0.6,0-0.9,0
		c-0.9,0.1-1.3-0.3-1.3-1.2c-0.1-2.8-0.1-2.8-3-2.8c-3.6,0-3.6,0-3.6,3.5c0,2,0,3.9,0,5.9c0,0.9,0.2,1.5,1.3,1.5
		c4.5,0,8.9-0.1,13.4,0c1.3,0,1.4-0.7,1.4-1.7c0-4.9,0-9.8,0-14.7c0-0.5,0-1,0-1.5c-0.1-0.9,0.2-1.4,1.2-1.3c0.2,0,0.4,0,0.7,0
		c6.2,0,12.4,0,18.6,0c1.6,0,1.7,0,1.7,1.7c0,4.8,0,9.6,0,14.5c0,1.6,0,1.6-1.6,1.6c-3.5,0-7,0-10.5,0c-1,0-1.4-0.4-1.4-1.4
		c0.1-1.6,0-3.2,0-4.8c0-0.9,0.2-1.3,1.2-1.4c2-0.1,2.2,0,2.2,2.1c0,0.4,0,0.7,0,1.1c0,0.6,0.2,1,0.9,1c1.6,0,3.2,0,4.8,0
		c0.6,0,0.9-0.3,0.9-0.9c0-3.1,0-6.1,0-9.2c0-0.5-0.3-0.8-0.8-0.8c-0.4,0-0.9,0-1.3,0c-3.4,0-6.9,0-10.3,0c-3,0-3,0-3,3.1
		c0,4.7,0,9.3,0,14c0,2,0,2-2,2C569.9,529.9,566.8,529.8,563.7,529.8z"/>
	<path fill="#C78C1C" d="M732.4,529.8c-3.3,0-6.6,0-9.9,0c-1.1,0-1.6-0.3-1.6-1.5c0.1-5,0.1-9.9,0-14.9c0-1.2,0.4-1.5,1.5-1.5
		c3.4,0.1,6.9,0,10.3,0c1,0,1.5,0.3,1.4,1.3c-0.1,1.7-0.1,3.4,0,5c0,0.9-0.4,1.1-1.2,1.1c-2,0.1-2.1,0.1-2.1-1.9c0-0.4,0-0.9,0-1.3
		c0-0.5-0.3-0.8-0.8-0.8c-1.6,0-3.2,0-4.8,0c-0.7,0-0.9,0.4-0.9,1c0,2.9,0,5.8,0,8.8c0,0.9,0.4,1.1,1.2,1.1c4.5,0,9.1,0,13.6,0
		c1.2,0,1.2-0.7,1.2-1.6c0-4.9,0-9.8,0-14.7c0-0.5,0-1,0-1.5c-0.1-1,0.3-1.4,1.4-1.4c6.5,0,13,0,19.5,0c0.9,0,1.4,0.2,1.4,1.2
		c0,5.1,0,10.2,0,15.3c0,0.9-0.3,1.3-1.3,1.3c-3.7,0-7.3,0-11,0c-1,0-1.3-0.4-1.2-1.3c0-1.7,0.1-3.4,0-5c-0.1-1.4,0.9-1.2,1.8-1.2
		c0.9,0,1.7-0.1,1.7,1.3c0.1,2.9,0.1,2.9,2.9,2.9c3.7,0,3.7,0,3.7-3.7c0-2,0-3.9,0-5.9c0-1.1-0.4-1.4-1.4-1.4c-4.2,0-8.3,0-12.5,0
		c-1.1,0-1.5,0.3-1.5,1.5c0.1,2.9,0,5.8,0,8.8c0,2.4,0,4.8,0,7.2c0,1.6,0,1.7-1.7,1.7C738.9,529.9,735.7,529.8,732.4,529.8z"/>
	<path fill="#C78C1C" d="M756.5,529.8c-3.3,0-6.6,0-9.9,0c-1.1,0-1.5-0.3-1.5-1.5c0.1-5,0-9.9,0-14.9c0-1,0.3-1.4,1.3-1.4
		c3.5,0.1,7,0.1,10.5,0c1.1,0,1.4,0.3,1.4,1.4c-0.1,1.6,0,3.2,0,4.8c0,0.9-0.2,1.3-1.2,1.3c-2,0-2.1,0.1-2.1-2c0-0.3,0-0.6,0-0.9
		c0-0.8-0.2-1.2-1.1-1.2c-1.5,0-2.9,0-4.4,0c-0.7,0-1,0.3-1,1c0,2.9,0,5.8,0,8.8c0,0.9,0.5,1.1,1.3,1.1c4.5,0,9.1,0,13.6,0
		c1.3,0,1.2-0.8,1.2-1.6c0-4.5,0-9.1,0-13.6c0-1.3-0.6-2.9,0.4-3.8c0.9-0.7,2.4-0.2,3.6-0.2c5.5,0,11,0,16.4,0c1.7,0,1.7,0,1.7,1.7
		c0,4.8,0,9.6,0,14.5c0,1.6,0,1.7-1.5,1.7c-3.5,0-7,0-10.5,0c-1,0-1.5-0.3-1.4-1.4c0.1-1.6,0.1-3.2,0-4.8c0-1,0.3-1.4,1.4-1.4
		c2,0,2,0,2.1,2c0,0.4,0,0.7,0,1.1c0,0.7,0.3,1.1,1,1.1c1.5,0,3.1,0,4.6,0c0.8,0,1-0.4,1-1.1c0-2.9,0-5.8,0-8.8
		c0-0.9-0.4-1.1-1.2-1.1c-4.3,0-8.6,0-12.9,0c-1.2,0-1.2,0.6-1.2,1.5c0,4.7,0,9.5,0,14.2c0,0.5,0,1,0,1.5c0,1.8,0,1.8-1.8,1.9
		C762.9,529.9,759.7,529.8,756.5,529.8z"/>
	<path fill="#C78C1C" d="M708.2,529.8c-3.2,0-6.4,0-9.6,0c-1.6,0-1.6,0-1.6-1.6c0-4.9,0-9.8,0-14.7c0-1,0.2-1.6,1.4-1.6
		c3.5,0.1,7,0,10.5,0c0.9,0,1.3,0.3,1.3,1.2c-0.1,1.7-0.1,3.4,0,5c0.1,1.2-0.6,1.3-1.5,1.2c-0.8,0-1.7,0.2-1.8-1.2
		c-0.1-2.8-0.2-2.8-3-2.8c-3.6,0-3.6,0-3.6,3.5c0,1.9,0,3.8,0,5.7c0,1.6,0,1.6,1.5,1.7c4.3,0,8.6,0,12.9,0c1.5,0,1.5,0,1.5-1.7
		c0-5,0-9.9,0-14.9c0-0.5,0-1,0-1.5c0-0.7,0.3-1.1,1-1.1c0.9,0,1.9,0,2.8,0c5.5,0,11,0,16.4,0c1.8,0,1.9,0,1.9,1.8
		c0,4.8,0,9.6,0,14.5c0,1.5,0,1.6-1.6,1.6c-3.4,0-6.9,0-10.3,0c-1.1,0-1.6-0.2-1.6-1.4c0.1-1.6,0.1-3.2,0-4.8c0-0.9,0.2-1.3,1.2-1.4
		c2.1-0.1,2.2,0,2.2,2.1c0,0.4,0,0.7,0,1.1c0,0.6,0.2,1,0.9,1c1.6,0,3.2,0,4.8,0c0.8,0,0.9-0.5,0.9-1.1c0-2.9,0-5.8,0-8.8
		c0-0.8-0.3-1-1.1-1c-1.2,0-2.5,0-3.7,0c-3,0-6,0-9,0c-1.6,0-1.6,0-1.6,1.6c0,4.9,0,9.8,0,14.7c0,0.5,0,1,0,1.5
		c0.1,1.1-0.4,1.4-1.4,1.4c-3,0-6,0-9,0C709,529.8,708.5,529.8,708.2,529.8z"/>
	<path fill="#C78C1C" d="M684,529.8c-3.2,0-6.4,0-9.6,0c-1.6,0-1.6,0-1.6-1.6c0-4.9,0-9.8,0-14.7c0-1.1,0.2-1.6,1.4-1.6
		c3.5,0.1,7,0,10.5,0c0.9,0,1.3,0.3,1.3,1.2c-0.1,1.7-0.1,3.4,0,5c0.1,1.5-0.9,1.2-1.7,1.2c-0.9,0-1.5,0-1.5-1.2
		c-0.1-2.8-0.2-2.8-3-2.8c-3.6,0-3.6,0-3.6,3.5c0,2,0,3.9,0,5.9c0,1,0.2,1.5,1.3,1.5c4.5,0,8.9-0.1,13.4,0c1.4,0,1.3-0.8,1.3-1.7
		c0-5,0-9.9,0-14.9c0-2.7-0.4-2.6,2.6-2.6c5.9,0,11.8,0,17.8,0c1.8,0,1.9,0,1.9,1.7c0,4.8,0,9.6,0,14.5c0,1.5,0,1.6-1.6,1.6
		c-3.4,0-6.9,0-10.3,0c-1.5,0-1.5-0.1-1.6-1.6c0-1.5,0-3.1,0-4.6c0-0.9,0.2-1.3,1.2-1.4c2.1-0.1,2.2,0,2.2,2.1c0,0.4,0,0.7,0,1.1
		c0,0.6,0.2,1,0.9,1c1.6,0,3.2,0,4.8,0c0.8,0,0.9-0.5,0.9-1.1c0-2.9,0-5.8,0-8.8c0-0.8-0.3-1-1.1-1c-1.2,0-2.5,0-3.7,0c-3,0-6,0-9,0
		c-1.6,0-1.6,0-1.6,1.6c0,4.9,0,9.8,0,14.7c0,0.5,0,1,0,1.5c0.1,1.1-0.4,1.4-1.4,1.4c-3,0-6,0-9,0
		C684.8,529.8,684.5,529.8,684,529.8z"/>
	<path fill="#C78C1C" d="M636.1,529.8c-3.3,0-6.6,0-9.9,0c-1.5,0-1.6-0.1-1.6-1.6c0-4.9,0-9.8,0-14.7c0-1.1,0.4-1.5,1.5-1.5
		c3.4,0.1,6.9,0,10.3,0c1,0,1.5,0.2,1.4,1.3c-0.1,1.7-0.1,3.4,0,5c0,1.3-0.8,1.2-1.6,1.1c-0.7,0-1.7,0.3-1.7-1.1
		c0-0.9,0.4-2.1-0.3-2.7c-0.8-0.6-2-0.2-3-0.2c-3.3,0-3.3,0-3.3,3.4c0,2,0,4.1,0,6.1c0,1,0.3,1.4,1.4,1.4c4.4,0,8.8-0.1,13.1,0
		c1.2,0,1.5-0.4,1.5-1.5c0-4.7,0-9.5,0-14.2c0-0.6,0-1.2,0-1.8c0-1.6,0-1.7,1.7-1.7c6.3,0,12.6,0,18.8,0c1.5,0,1.6,0,1.6,1.6
		c0,4.9,0,9.8,0,14.7c0,1.1-0.3,1.6-1.5,1.5c-3.5-0.1-7-0.1-10.5,0c-1.1,0-1.6-0.4-1.5-1.5c0.1-1.7,0-3.4,0-5c0-0.7,0.3-1,1-1.1
		c1.9-0.2,2.3,0,2.4,1.5c0.1,2.7,0.1,2.7,2.7,2.7c1.2,0,2.7,0.5,3.6-0.3c0.9-0.8,0.3-2.3,0.3-3.6c0.1-2,0-3.9,0-5.9
		c0-0.8-0.3-1.2-1.1-1.2c-4.4,0-8.8,0-13.1,0c-1.1,0-1.1,0.6-1.1,1.4c0,4.7,0,9.5,0,14.2c0,0.4,0,0.9,0,1.3c0,2.1,0,2.1-2.1,2.2
		C642.2,529.8,639.1,529.8,636.1,529.8z"/>
	<path fill="#C78C1C" d="M660,529.8c-3.3,0-6.6,0-9.9,0c-1.1,0-1.6-0.3-1.6-1.5c0.1-5,0.1-9.9,0-14.9c0-1.2,0.5-1.5,1.5-1.4
		c3.4,0,6.9,0,10.3,0c1,0,1.4,0.3,1.4,1.4c-0.1,1.7-0.1,3.4,0,5c0,1.3-0.8,1.1-1.6,1.1s-1.6,0.2-1.6-1.1c0-0.9,0.4-2.1-0.3-2.7
		c-0.7-0.6-1.8-0.2-2.8-0.2c-3.5,0-3.5,0-3.5,3.4c0,2,0,3.9,0,5.9c0,1.1,0.2,1.6,1.4,1.6c4.4-0.1,8.8-0.1,13.1,0
		c1.2,0,1.5-0.5,1.4-1.6c0-4.9,0-9.8,0-14.7c0-0.5,0-1,0-1.5c-0.1-1,0.3-1.5,1.4-1.4c1.8,0.1,3.7,0,5.5,0c4.5,0,9.1,0,13.6,0
		c1.7,0,1.7,0,1.8,1.6c0,4.9,0,9.8,0,14.7c0,1.2-0.4,1.5-1.5,1.5c-3.5-0.1-7,0-10.5,0c-1,0-1.5-0.2-1.5-1.3c0.1-1.7,0.1-3.4,0-5
		c-0.1-1.4,0.9-1.2,1.8-1.2c0.9,0,1.7,0,1.7,1.3c0.1,2.9,0.1,2.9,2.9,2.9c3.7,0,3.7,0,3.7-3.7c0-2-0.1-3.9,0-5.9
		c0-1.1-0.4-1.4-1.4-1.4c-4.2,0-8.3,0-12.5,0c-1.1,0-1.6,0.3-1.5,1.5c0.1,2.8,0,5.6,0,8.3c0,2.5,0,5,0,7.5c0,1.9,0,1.9-2,1.9
		C666.4,529.9,663.3,529.8,660,529.8z"/>
	<path fill="#C78C1C" d="M611.9,529.8c-3.3,0-6.6,0-9.9,0c-1.1,0-1.5-0.3-1.5-1.5c0.1-5,0-9.9,0-14.9c0-1,0.3-1.4,1.3-1.4
		c3.6,0.1,7.2,0,10.7,0c0.9,0,1.2,0.3,1.1,1.2c0,1.8,0,3.5,0,5.3c0,0.7-0.2,1-1,1.1c-2,0.2-2.2,0.1-2.2-2s0.1-2-2.1-2
		c-1.2,0-2.3,0-3.5,0c-0.7,0-1.1,0.3-1,1c0,2.9,0,5.8,0,8.8c0,0.9,0.4,1.1,1.2,1.1c4.5,0,9.1,0,13.6,0c1,0,1.2-0.5,1.2-1.4
		c0-3.1,0-6.1,0-9.2c0-2.4,0-4.8,0-7.2c0-1,0.4-1.4,1.4-1.4c6.5,0,13,0,19.5,0c0.9,0,1.3,0.3,1.3,1.2c0,5.1,0,10.2,0,15.3
		c0,1-0.4,1.3-1.3,1.2c-3.6,0-7.2,0-10.7,0c-1,0-1.5-0.3-1.4-1.4c0.1-1.6,0.1-3.2,0-4.8c0-1,0.3-1.4,1.3-1.5c2,0,2,0,2.1,2
		c0,0.4,0,0.7,0,1.1c0,0.7,0.3,1.1,1,1.1c1.5,0,3.1,0,4.6,0c0.8,0,1-0.3,1-1.1c0-2.9,0-5.8,0-8.8c0-0.9-0.4-1.1-1.2-1.1
		c-4.3,0-8.6,0-12.9,0c-1.2,0-1.3,0.6-1.3,1.5c0,4.7,0,9.5,0,14.2c0,0.4,0,0.9,0,1.3c0,2.1,0,2.1-2,2.1
		C618.2,529.9,615,529.8,611.9,529.8z"/>
	<path fill="#C78C1C" d="M395.1,529.8c-3.3,0-6.6,0-9.9,0c-1.2,0-1.5-0.4-1.5-1.5c0-5,0-9.9,0-14.9c0-1,0.3-1.4,1.4-1.4
		c3.5,0.1,7,0,10.5,0c1,0,1.5,0.2,1.4,1.3c-0.1,1.7-0.1,3.4,0,5c0,0.9-0.4,1.1-1.2,1.1c-2.1,0.1-2.2,0.1-2.2-2.1c0-2.1,0.1-2-2.1-2
		c-1.2,0-2.3,0-3.5,0c-0.7,0-1,0.3-1,1.1c0,2.8,0,5.7,0,8.5c0,1.1,0.6,1.3,1.5,1.3c3,0,6,0,9,0c1.4,0,2.8-0.1,4.2,0
		c1.1,0.1,1.5-0.4,1.5-1.5c0-4.8,0-9.6,0-14.5c0-0.6,0.1-1.2,0-1.8c-0.1-1.2,0.5-1.5,1.5-1.5c6.4,0,12.7,0.1,19.1,0
		c1.2,0,1.5,0.4,1.5,1.5c0,5,0,9.9,0,14.9c0,1-0.3,1.4-1.4,1.4c-3.5-0.1-7,0-10.5,0c-1,0-1.5-0.2-1.5-1.3c0.1-1.7,0.1-3.4,0-5
		c0-1.2,0.7-1.3,1.6-1.2c0.9,0,1.7-0.1,1.8,1.3c0.1,2.9,0.2,2.9,3.1,2.9c3.5,0,3.5,0,3.5-3.6c0-2,0-4.1,0-6.1c0-0.8-0.3-1.2-1.2-1.2
		c-4.3,0-8.6,0-12.9,0c-1.2,0-1.2,0.7-1.2,1.5c0,4.9,0,9.8,0,14.7c0,0.5,0,1,0,1.5c0.1,1-0.4,1.4-1.4,1.4
		C401.8,529.8,398.4,529.8,395.1,529.8z"/>
	<path fill="#C78C1C" d="M419.2,529.8c-3.3,0-6.6,0-9.9,0c-1.1,0-1.6-0.3-1.6-1.5c0-5,0.1-9.9,0-14.9c0-1.2,0.5-1.4,1.6-1.4
		c3.4,0.1,6.9,0.1,10.3,0c1.1,0,1.5,0.4,1.5,1.5c-0.1,1.5-0.1,3.1,0,4.6c0,1-0.3,1.4-1.4,1.4c-2,0-2,0.1-2.1-2c0-0.4,0-0.7,0-1.1
		c0-0.6-0.3-0.9-0.9-0.9c-1.5,0-3.1,0-4.6,0c-0.7,0-1.1,0.3-1.1,1c0,2.9,0,5.8,0,8.8c0,0.9,0.4,1.1,1.2,1.1c4.5,0,9.1,0,13.6,0
		c1.4,0,1.3-0.8,1.3-1.7c0-5,0-9.9,0-14.9c0-2.8-0.4-2.6,2.6-2.6c5.9,0,11.8,0,17.8,0c1.7,0,1.7,0,1.7,1.7c0,4.8,0,9.6,0,14.5
		c0,1.6,0,1.7-1.5,1.7c-3.4,0-6.9,0-10.3,0c-1.1,0-1.6-0.4-1.5-1.5c0.1-1.7,0-3.4,0-5c0-1.1,0.7-1.1,1.5-1c0.7,0,1.7-0.3,1.8,1
		c0,0.3,0,0.6,0,0.9c0,2.6,0.1,2.3,2.5,2.3c1.3,0,2.9,0.5,3.8-0.3c1.1-0.9,0.3-2.6,0.4-4c0.1-1.7,0-3.5,0-5.3c0-1-0.2-1.5-1.3-1.4
		c-4.2,0.1-8.5,0.1-12.7,0c-1.1,0-1.3,0.5-1.3,1.5c0,4.7,0,9.4,0,14c0,0.4,0,0.9,0,1.3c0,2.3,0,2.3-2.2,2.3
		C425.3,529.8,422.3,529.8,419.2,529.8z"/>
	<path fill="#C78C1C" d="M443.3,529.8c-3.2,0-6.4,0-9.6,0c-1.7,0-1.8,0-1.8-1.7c0-4.9,0-9.8,0-14.7c0-1.2,0.4-1.5,1.5-1.5
		c3.4,0.1,6.9,0.1,10.3,0c1.1,0,1.6,0.3,1.5,1.5c-0.1,1.5-0.1,3.1,0,4.6c0,1-0.2,1.5-1.3,1.5c-2,0-2,0.1-2.1-2c0-0.4,0-0.7,0-1.1
		c0-0.6-0.2-1-0.9-0.9c-1.6,0-3.2,0-4.8,0c-0.7,0-0.9,0.4-0.9,1c0,2.9,0,5.8,0,8.8c0,0.9,0.4,1.1,1.2,1.1c4.5,0,9.1,0,13.6,0
		c1.3,0,1.4-0.7,1.3-1.7c0-4.8,0-9.6,0-14.5c0-3.4-0.6-3,3-3.1c5.8,0,11.5,0,17.3,0c1.7,0,1.7,0,1.7,1.6c0,4.8,0,9.6,0,14.5
		c0,1.7,0,1.7-1.7,1.7c-3.4,0-6.7,0-10.1,0c-1.1,0-1.6-0.3-1.6-1.5c0.1-1.6,0.1-3.2,0-4.8c-0.1-1.4,0.8-1.3,1.7-1.3
		c0.8,0,1.6-0.1,1.6,1.2c0,0.9-0.4,2.1,0.3,2.7c0.8,0.7,2,0.3,3,0.3c3.4,0,3.4,0,3.4-3.3c0-2,0-4.1,0-6.1c0-0.9-0.2-1.5-1.3-1.5
		c-4.2,0.1-8.5,0.1-12.7,0c-1.1,0-1.3,0.5-1.3,1.4c0,4.9,0,9.8,0,14.7c0,0.5,0,1,0,1.5c0.1,1.2-0.4,1.5-1.5,1.5
		C449.9,529.8,446.6,529.8,443.3,529.8z"/>
	<path fill="#C78C1C" d="M587.7,529.8c-3.2,0-6.4,0-9.6,0c-1.6,0-1.7,0-1.7-1.5c0-5,0-9.9,0-14.9c0-1.1,0.4-1.4,1.4-1.4
		c3.5,0,7,0,10.5,0c0.9,0,1.4,0.2,1.3,1.2c-0.1,1.7-0.1,3.4,0,5c0,0.9-0.3,1.3-1.3,1.3c-1.9,0-1.9,0.1-2-1.9c0-0.4,0-0.7,0-1.1
		c0-0.7-0.2-1.1-1-1.1c-1.5,0-3.1,0-4.6,0c-0.8,0-1,0.4-1,1.1c0,2.8,0,5.7,0,8.5c0,1.1,0.5,1.3,1.5,1.3c3.2,0,6.4,0,9.6,0
		c1.1,0,2.2,0,3.3,0c1.6,0,1.6,0,1.6-1.6c0-4.1,0-8.2,0-12.3c0-1.3,0.1-2.6,0-3.9c-0.1-1.1,0.4-1.4,1.4-1.4c3.2,0,6.4,0,9.6,0
		s6.4,0,9.6,0c1.2,0,1.5,0.4,1.5,1.5c0,5,0,9.9,0,14.9c0,1-0.3,1.5-1.4,1.4c-3.6,0-7.2,0-10.7,0c-1,0-1.4-0.3-1.4-1.4
		c0.1-1.6,0-3.2,0-4.8c0-0.9,0.2-1.3,1.2-1.4c2-0.1,2.2,0,2.2,2.1c0,0.4,0,0.9,0,1.3c0,0.5,0.3,0.8,0.8,0.8c1.6,0,3.2,0,4.8,0
		c0.8,0,1-0.5,1-1.1c0-2.9,0-5.8,0-8.8c0-0.7-0.3-1-1-1c-4.4,0-8.8,0-13.1,0c-1.3,0-1.2,0.7-1.2,1.6c0,4.4,0,8.8,0,13.1
		c0,1.4,0.6,3.1-0.2,4c-0.9,1-2.8,0.3-4.2,0.4C592.4,529.9,590.1,529.8,587.7,529.8z"/>
	<path fill="#C78C1C" d="M370.9,529.8c-3.3,0-6.6,0-9.9,0c-1,0-1.5-0.3-1.5-1.4c0-5.1,0-10.2,0-15.3c0-0.9,0.4-1.1,1.2-1.1
		c3.7,0,7.3,0,11,0c0.8,0,1.2,0.3,1.2,1.1c0,1.8,0,3.5,0,5.3c0,0.9-0.4,1.1-1.2,1.1c-0.3,0-0.6,0-0.9,0c-0.9,0.1-1.4-0.2-1.3-1.2
		c0-0.9,0.4-1.9-0.2-2.5c-0.7-0.7-1.8-0.2-2.7-0.3c-0.7,0-1.5,0-2.2,0c-1-0.1-1.5,0.2-1.4,1.3c0.1,2.7,0.1,5.4,0,8.1
		c0,1.2,0.4,1.5,1.5,1.5c4.4,0,8.8,0,13.1,0c1.2,0,1.5-0.5,1.5-1.6c0-5,0-9.9,0-14.9c0-0.5,0-1,0-1.5c0-0.8,0.2-1.3,1.1-1.2
		c0.2,0,0.4,0,0.7,0c6.2,0,12.4,0,18.6,0c1.6,0,1.7,0,1.7,1.7c0,4.8,0,9.6,0,14.5c0,1.6,0,1.6-1.6,1.6c-3.4,0-6.7,0-10.1,0
		c-1.6,0-1.6,0-1.7-1.5c0-1.6,0-3.2,0-4.8c-0.1-1.2,0.7-1.3,1.5-1.2c0.8,0,1.8-0.2,1.8,1.2c0,0.9-0.4,2.1,0.3,2.7
		c0.8,0.7,2,0.2,3,0.3c3.4,0,3.4,0,3.4-3.3c0-2-0.1-4.1,0-6.1c0-1.2-0.4-1.5-1.5-1.5c-4.1,0-8.2,0-12.3,0c-1.5,0-1.6,0-1.6,1.6
		c0,4.7,0,9.5,0,14.2c0,3.7,0.5,3.3-3.2,3.3C376.5,529.9,373.7,529.8,370.9,529.8z"/>
	<path fill="#C78C1C" d="M298.7,529.8c-3.2,0-6.4,0-9.6,0c-1.6,0-1.7,0-1.7-1.5c0-5,0-9.9,0-14.9c0-1,0.3-1.4,1.4-1.4
		c3.5,0.1,7,0.1,10.5,0c1.1,0,1.4,0.4,1.4,1.4c-0.1,1.6-0.1,3.2,0,4.8c0,0.9-0.3,1.3-1.3,1.3c-2,0.1-2.1,0-2.1-1.9
		c0-0.4,0-0.9,0-1.3c0-0.5-0.3-0.8-0.8-0.8c-1.6,0-3.2,0-4.8,0c-0.6,0-0.9,0.3-0.9,0.9c0,3,0,6,0,9c0,0.8,0.5,1,1.1,1
		c4.6,0,9.2,0,13.8,0c1,0,1.2-0.5,1.2-1.4c0-3.3,0-6.6,0-9.9c0-2.2,0-4.4,0-6.6c0-1.1,0.4-1.4,1.4-1.4c6.5,0,13,0,19.5,0
		c1,0,1.2,0.4,1.2,1.3c0,5,0,10.1,0,15.1c0,1-0.3,1.4-1.4,1.4c-3.6,0-7.2,0-10.7,0c-0.9,0-1.3-0.3-1.3-1.3c0-1.7,0-3.4,0-5
		c0-0.9,0.3-1.3,1.3-1.3c2-0.1,2.1,0,2.1,2c0,0.4,0,0.7,0,1.1c0,0.7,0.3,1.1,1,1.1c1.5,0,3.1,0,4.6,0c0.8,0,1-0.4,1-1.1
		c0-2.9,0-5.8,0-8.8c0-0.9-0.5-1.1-1.2-1.1c-4.3,0-8.6,0-12.9,0c-1.2,0-1.2,0.7-1.2,1.5c0,4.8,0,9.6,0,14.5c0,0.5,0,1,0,1.5
		c0,1.6-0.1,1.6-1.6,1.6C305.3,529.9,302,529.8,298.7,529.8z"/>
	<path fill="#C78C1C" d="M515.5,529.8c-3.2,0-6.4,0-9.6,0c-1.6,0-1.6-0.1-1.6-1.6c0-4.9,0-9.8,0-14.7c0-1.1,0.3-1.6,1.5-1.5
		c3.5,0.1,7,0.1,10.5,0c1,0,1.4,0.3,1.4,1.4c-0.1,1.6,0,3.2,0,4.8c0,0.9-0.3,1.4-1.2,1.3c-0.3,0-0.6,0-0.9,0
		c-0.9,0.1-1.3-0.3-1.3-1.2s0.4-1.9-0.2-2.5c-0.7-0.6-1.8-0.3-2.7-0.3c-3.6,0-3.6,0-3.6,3.5c0,1.8,0,3.5,0,5.3c0,2.1,0,2.1,2.2,2.1
		c3.9,0,7.7,0,11.6,0c2.3,0,2.3,0,2.3-2.2c0-4.7,0-9.5,0-14.2c0-0.4,0-0.9,0-1.3c-0.1-1,0.3-1.4,1.4-1.4c2.3,0.1,4.7,0,7,0
		c4,0,8,0,12,0c1.6,0,1.6,0,1.6,1.6c0,4.9,0,9.8,0,14.7c0,1.5,0,1.6-1.6,1.6c-3.4,0-6.9,0-10.3,0c-1.2,0-1.5-0.4-1.5-1.5
		c0-1.5,0-3.1,0-4.6c0-1.4,0.1-1.4,1.8-1.5c1,0,1.6,0.1,1.6,1.4c0,2.8,0.1,2.8,3,2.8c3.6,0,3.6,0,3.6-3.5c0-2,0-4.1,0-6.1
		c0-0.9-0.3-1.3-1.3-1.3c-4.2,0-8.5,0.1-12.7,0c-1.2,0-1.4,0.5-1.4,1.6c0,4.9,0,9.8,0,14.7c0,0.5,0,1,0,1.5c0.1,1.1-0.4,1.4-1.4,1.4
		C522.2,529.8,518.8,529.8,515.5,529.8z"/>
	<path fill="#C78C1C" d="M539.6,529.8c-3.1,0-6.3,0-9.4,0c-1.9,0-1.9,0-1.9-1.8c0-4.8,0-9.6,0-14.5c0-1,0.2-1.6,1.4-1.6
		c3.5,0.1,7,0,10.5,0c1,0,1.5,0.2,1.4,1.3c-0.1,1.6,0,3.2,0,4.8c0,0.9-0.2,1.3-1.2,1.4c-2.1,0.1-2.2,0.1-2.2-2.1
		c0-1.9,0.1-2-1.9-1.9c-1.5,0.1-3.4-0.7-4.4,0.4c-0.9,0.9-0.2,2.8-0.3,4.2c-0.1,1.7,0,3.4,0,5c0,0.9,0.4,1.3,1.3,1.3
		c4.5,0,8.9,0,13.4,0c1.2,0,1.5-0.4,1.5-1.6c0-4.7,0-9.5,0-14.2c0-0.6,0-1.2,0-1.8c0-1.6,0-1.6,1.5-1.6c6.4,0,12.7,0,19.1,0
		c1,0,1.4,0.3,1.4,1.4c0,5,0,10.1,0,15.1c0,0.9-0.2,1.4-1.2,1.3c-3.7,0-7.3,0-11,0c-0.9,0-1.3-0.3-1.3-1.3c0-1.7,0.1-3.4,0-5
		c-0.1-1.4,0.8-1.3,1.7-1.3s1.7-0.1,1.7,1.3c0.1,2.9,0.1,2.9,2.9,2.9c3.7,0,3.7,0,3.7-3.7c0-2,0-4.1,0-6.1c0-0.8-0.3-1.1-1.2-1.1
		c-4.3,0-8.6,0-12.9,0c-1.2,0-1.3,0.6-1.3,1.5c0,4.8,0,9.6,0,14.5c0,0.5,0,1,0,1.5c0,1.6,0,1.6-1.6,1.6
		C546.2,529.9,542.9,529.8,539.6,529.8z"/>
	<path fill="#C78C1C" d="M346.9,529.8c-3.2,0-6.4,0-9.6,0c-1.6,0-1.6,0-1.6-1.6c0-4.9,0-9.8,0-14.7c0-1.5,0-1.5,1.6-1.5
		c3.4,0,6.7,0,10.1,0c1.1,0,1.6,0.2,1.5,1.5c-0.1,1.6-0.1,3.2,0,4.8c0,1-0.4,1.2-1.3,1.2c-2,0.1-2.1,0.1-2.1-2c0-0.4,0-0.7,0-1.1
		c0-0.6-0.2-1-0.9-1c-0.2,0-0.4,0-0.7,0c-1.6,0.1-3.6-0.7-4.7,0.3c-1.1,1-0.3,3-0.4,4.6s0,3.2,0,4.8c0,0.8,0.4,1.2,1.2,1.2
		c4.6,0,9.2,0,13.8,0c1.2,0,1.1-0.8,1.1-1.6c0-4.6,0-9.2,0-13.8c0-3.8,0-3.7,3.8-3.7c5.4,0,10.8,0,16.2,0c2,0,2,0,2,1.9
		c0,4.7,0,9.5,0,14.2c0,1.7,0,1.7-1.7,1.7c-3.4,0-6.7,0-10.1,0c-1.1,0-1.6-0.3-1.5-1.5c0.1-1.6,0.1-3.2,0-4.8c0-0.9,0.3-1.3,1.2-1.3
		c2-0.1,2.1,0,2.1,2c0,0.4,0,0.7,0,1.1c0,0.7,0.3,1.1,1,1.1c1.5,0,3.1,0,4.6,0c0.7,0,1.1-0.3,1-1.1c0-2.9,0-5.8,0-8.8
		c0-1.1-0.7-1.1-1.4-1.1c-3.5,0-7,0-10.5,0c-3.4,0-3.4,0-3.4,3.5c0,4.6,0,9.2,0,13.8c0,1.8,0,1.8-1.8,1.8
		C353.3,529.9,350.1,529.8,346.9,529.8z"/>
	<path fill="#C78C1C" d="M322.9,529.8c-3.3,0-6.6,0-9.9,0c-1.1,0-1.6-0.3-1.6-1.5c0.1-5,0.1-9.9,0-14.9c0-1.2,0.5-1.5,1.5-1.4
		c3.4,0.1,6.9,0,10.3,0c1,0,1.5,0.3,1.4,1.3c-0.1,1.6,0,3.2,0,4.8c0,0.9-0.2,1.3-1.2,1.4c-2.1,0.1-2.2,0-2.2-2.1
		c0-1.9,0-1.9-1.9-1.9c-1,0-2,0-3.1,0c-1.6,0-1.6,0-1.6,1.5c0,2.6,0,5.3,0,7.9c0,1.2,0.4,1.5,1.5,1.5c4.4,0,8.8,0,13.1,0
		c1.2,0,1.5-0.5,1.5-1.6c0-5,0-10.1,0-15.1c0-0.5,0-1,0-1.5c0-0.6,0.2-1,0.9-1c0.4,0,0.7,0,1.1,0c6.1,0,12.1,0,18.2,0
		c1.8,0,1.9,0,1.9,1.8c0,4.8,0,9.6,0,14.5c0,1.5,0,1.6-1.6,1.6c-3.4,0-6.9,0-10.3,0c-1,0-1.5-0.3-1.4-1.4c0.1-1.7,0.1-3.4,0-5
		c0-1.2,0.7-1.2,1.6-1.2s1.8-0.2,1.8,1.2c0,0.9-0.4,2.1,0.3,2.7c0.8,0.6,2,0.2,3,0.2c3.8,0,3.3,0.6,3.3-3.4c0-2,0-4.1,0-6.1
		c0-1-0.3-1.4-1.3-1.4c-4.2,0-8.5,0.1-12.7,0c-1.1,0-1.3,0.4-1.3,1.4c0,4.9,0,9.8,0,14.7c0,0.5,0,1,0,1.5c0.1,1.2-0.4,1.5-1.5,1.5
		C329.5,529.8,326.2,529.8,322.9,529.8z"/>
	<path fill="#C78C1C" d="M366.9,601.1c4.6,0,9.2,0,13.8,0c2.2,0,2.4,0.2,2.4,2.4c0,1.9,0,3.8,0,5.7c0,1.1-0.5,1.6-1.5,1.7
		c-0.6,0-1.2,0.1-1.7,0.1c-8.6,0-17.2,0-25.9,0c-0.3,0-0.6,0-0.9,0c-2.1-0.1-2.4-0.3-2.4-2.4c0-1.8,0-3.5,0-5.3s0.4-2.2,2.2-2.2
		C357.5,601.1,362.2,601.1,366.9,601.1z"/>
	<path fill="#FEFDFC" d="M270.4,12.3c-1,0.6-2.1,0.7-3.1-0.1C268.3,12.3,269.4,12.3,270.4,12.3z"/>
	<path fill="#FEFDFC" d="M272.6,14.2c0.1-0.1,0.2-0.2,0.3-0.2C272.9,14.3,272.8,14.4,272.6,14.2z"/>
	<path fill="#FEFDFC" d="M717.5,168c0-5.7-4.5-10.2-10.1-10.2s-10,4.4-10.1,10c-0.1,5.7,4.4,10.2,10,10.3
		C713,178.1,717.5,173.6,717.5,168z"/>
	<path fill="#FEFDFC" d="M480.9,50.2c-0.1,0.2-0.2,0.4-0.3,0.6c-0.1,0.1-0.2,0-0.2-0.2s0-0.4,0.2-0.5C480.9,50,481,50.1,480.9,50.2z
		"/>
	<path fill="#FEFDFC" d="M328,317.6h0.1c0,0.1,0.1,0.2,0,0.3c-0.1,0.2-0.2,0.2-0.2,0C327.9,317.8,328,317.7,328,317.6z"/>
	<path fill="#FEFDFC" d="M540.6,137.8c-0.2,0.2-0.5,0.4-0.7,0.2c-0.3-0.3,0.1-0.4,0.3-0.6C540.3,137.5,540.4,137.7,540.6,137.8z"/>
	<path fill="#FEFDFC" d="M610.8,337.7c-0.2-0.2-0.3-0.3,0-0.5c0,0,0.2,0.1,0.3,0.2C611,337.6,610.9,337.7,610.8,337.7z"/>
	<path fill="#C78C1C" d="M508.8,95.6c0.1-0.1,0.1-0.2,0.1-0.1C509.1,95.5,509,95.5,508.8,95.6C508.8,95.5,508.8,95.6,508.8,95.6z"/>
	<path fill="#C78C1C" d="M724,138.2c-14.5,4.4-28.9,8.8-43.8,13.3c1.9-2.7,3.4-4.8,4.9-7c0.5-0.8,1.4-0.8,2.1-1
		c8.7-2.2,17.4-4.5,26-6.7c0.8-0.2,1.6-0.3,2.3-0.6C718.8,134.8,721.5,135.3,724,138.2z"/>
	<path fill="#C78C1C" d="M687.3,141.3c0.6-1,1.3-1.9,1.9-2.9c0.4-0.7,1.1-0.9,1.8-1.1c6.9-2,13.7-3.9,20.6-5.9
		c1-0.3,1.8-0.2,2.6,0.4c1,0.7,2.2,1.1,3.4,2.2c-10.2,2.6-20.1,5.2-30.1,7.7C687.5,141.6,687.4,141.4,687.3,141.3z"/>
	<path fill="#C78C1C" d="M691.5,135.2c2.4-3.5,4.7-7,7.1-10.5c0.3-0.5,0.7-0.7,1.3-0.4c3.6,1.7,7.2,3.5,11.1,5.7
		c-6.7,1.9-12.9,3.7-19.1,5.5C691.7,135.4,691.5,135.3,691.5,135.2z"/>
	<path fill="#C78C1C" d="M672.4,167c-0.1,0-0.1,0.1-0.2,0.1C672.2,167,672.2,167,672.4,167C672.4,167.1,672.4,167,672.4,167z"/>
	<path fill="#C78C1C" d="M701.7,201.5c10.6-3.1,20.9-6.1,31.7-9.2c-1.5,2-2.8,3.5-3.8,5.2c-1.3,2.2-3.1,3.4-5.6,4
		c-5,1.3-9.9,2.8-14.9,4.3c-1.2,0.4-2,0.4-2.9-0.6C705,203.8,703.5,202.8,701.7,201.5z"/>
	<path fill="#C78C1C" d="M738.3,186.3c-0.9,1.1-1.7,2.1-2.6,3.2c-0.5,0.7-1.4,0.8-2.1,1c-10.1,3-20.3,5.9-30.4,8.9
		c-0.6,0.2-1.1,0.3-1.7,0.5c-1.2,0.5-2.4,0.5-3.6-0.1c-0.9-0.4-1.9-0.7-3.3-1.1c14.7-4.3,29.1-8.5,43.5-12.6
		C738,186.1,738.2,186.2,738.3,186.3z"/>
	<path fill="#C78C1C" d="M717.5,168c0,5.7-4.5,10.1-10.2,10.1c-5.6,0-10.1-4.6-10-10.3c0.1-5.5,4.5-10,10.1-10
		C713,157.8,717.5,162.3,717.5,168z"/>
</g>
</svg>
