<?xml version="1.0" encoding="utf-8"?>
<!-- Generator: Adobe Illustrator 18.0.0, SVG Export Plug-In . SVG Version: 6.00 Build 0)  -->
<!DOCTYPE svg PUBLIC "-//W3C//DTD SVG 1.1//EN" "http://www.w3.org/Graphics/SVG/1.1/DTD/svg11.dtd">
<svg version="1.1" id="Layer_1" xmlns="http://www.w3.org/2000/svg" xmlns:xlink="http://www.w3.org/1999/xlink" x="0px" y="0px"
	 viewBox="0 0 361.6 365.3" enable-background="new 0 0 361.6 365.3" xml:space="preserve">
<path fill="#FFFFFF" stroke="#FFD015" stroke-miterlimit="10" d="M181.5,336.6c-84.7,0-153.7-68.9-153.7-153.7
	c0-84.7,68.9-153.7,153.7-153.7c84.7,0,153.7,68.9,153.7,153.7C335.2,267.6,266.3,336.6,181.5,336.6z"/>
<path fill="#FFFFFF" stroke="#FFD015" stroke-miterlimit="10" d="M181.5,332.6c-82.5,0-149.7-67.1-149.7-149.7
	c0-82.5,67.1-149.7,149.7-149.7c82.5,0,149.7,67.1,149.7,149.7C331.2,265.4,264.1,332.6,181.5,332.6z"/>
<path fill="#FFFFFF" stroke="#FFD015" stroke-miterlimit="10" d="M181.5,330.6c-81.4,0-147.7-66.2-147.7-147.7
	c0-81.4,66.2-147.7,147.7-147.7c81.4,0,147.7,66.2,147.7,147.7C329.2,264.3,263,330.6,181.5,330.6z"/>
<path fill="#FFFFFF" stroke="#FFD015" stroke-miterlimit="10" d="M181.5,327.6c-79.8,0-144.7-64.9-144.7-144.7
	S101.8,38.2,181.5,38.2c79.8,0,144.7,64.9,144.7,144.7S261.3,327.6,181.5,327.6z"/>
<path fill="none" stroke="#FFD015" stroke-miterlimit="10" d="M185.6,1.3c0,0-14.7,16.1-10.2,17.5c4.7,1.5,15.8,1.6,18.7,0
	C195,14.5,190.5,6,185.6,1.3z"/>
<ellipse fill="none" stroke="#FFD015" stroke-miterlimit="10" cx="185.2" cy="11.8" rx="3.1" ry="3.2"/>
<ellipse fill="none" stroke="#FFD015" stroke-miterlimit="10" cx="184.8" cy="11.5" rx="0.8" ry="1.2"/>
<path fill="none" stroke="#FFD015" stroke-miterlimit="10" d="M232.4,8.6c0,0-18.4,11.7-14.4,14.3c4.1,2.7,14.8,5.7,18,4.8
	C238.2,23.7,235.9,14.3,232.4,8.6z"/>
<ellipse transform="matrix(0.9659 0.2588 -0.2588 0.9659 12.6352 -58.7329)" fill="none" stroke="#FFD015" stroke-miterlimit="10" cx="229.4" cy="18.6" rx="3.1" ry="3.2"/>
<ellipse transform="matrix(0.9659 0.2588 -0.2588 0.9659 12.5132 -58.6657)" fill="none" stroke="#FFD015" stroke-miterlimit="10" cx="229.1" cy="18.2" rx="0.8" ry="1.2"/>
<path fill="none" stroke="#FFD015" stroke-miterlimit="10" d="M275.8,27.7c0,0-20.8,6.6-17.6,10c3.3,3.6,12.8,9.3,16.2,9.3
	C277.4,43.8,277.7,34.2,275.8,27.7z"/>
<ellipse transform="matrix(0.866 0.5 -0.5 0.866 54.5071 -130.2269)" fill="none" stroke="#FFD015" stroke-miterlimit="10" cx="270.3" cy="36.6" rx="3.1" ry="3.2"/>
<ellipse transform="matrix(0.866 0.5 -0.5 0.866 54.2326 -130.1964)" fill="none" stroke="#FFD015" stroke-miterlimit="10" cx="270.1" cy="36.1" rx="0.8" ry="1.2"/>
<path fill="none" stroke="#FFD015" stroke-miterlimit="10" d="M312.7,57.3c0,0-21.8,1-19.6,5.1c2.2,4.4,10,12.3,13.2,13.2
	C310.1,73.4,312.9,64.1,312.7,57.3z"/>
<ellipse transform="matrix(0.7071 0.7071 -0.7071 0.7071 135.0006 -196.8311)" fill="none" stroke="#FFD015" stroke-miterlimit="10" cx="305.1" cy="64.5" rx="3.1" ry="3.2"/>
<ellipse transform="matrix(0.7071 0.7071 -0.7071 0.7071 134.6083 -196.9448)" fill="none" stroke="#FFD015" stroke-miterlimit="10" cx="305" cy="64" rx="0.8" ry="1.2"/>
<path fill="none" stroke="#FFD015" stroke-miterlimit="10" d="M340.8,95.6c0,0-21.3-4.7-20.3-0.1c1,4.8,6.5,14.5,9.3,16.2
	C334.1,110.4,339.2,102.2,340.8,95.6z"/>
<ellipse transform="matrix(0.5 0.866 -0.866 0.5 252.8394 -236.8209)" fill="none" stroke="#FFD015" stroke-miterlimit="10" cx="331.5" cy="100.6" rx="3.1" ry="3.2"/>
<ellipse transform="matrix(0.5 0.866 -0.866 0.5 252.4228 -237.1542)" fill="none" stroke="#FFD015" stroke-miterlimit="10" cx="331.6" cy="100" rx="0.8" ry="1.2"/>
<path fill="none" stroke="#FFD015" stroke-miterlimit="10" d="M357.9,139.8c0,0-19.3-10-19.6-5.4c-0.2,4.9,2.5,15.7,4.8,18
	C347.7,152.3,354.7,145.7,357.9,139.8z"/>
<ellipse transform="matrix(0.2588 0.9659 -0.9659 0.2588 395.0456 -230.483)" fill="none" stroke="#FFD015" stroke-miterlimit="10" cx="347.7" cy="142.2" rx="3.1" ry="3.2"/>
<ellipse transform="matrix(0.2588 0.9659 -0.9659 0.2588 394.7323 -231.0521)" fill="none" stroke="#FFD015" stroke-miterlimit="10" cx="347.9" cy="141.7" rx="0.8" ry="1.2"/>
<path fill="none" stroke="#FFD015" stroke-miterlimit="10" d="M363.1,186.9c0,0-16.1-14.7-17.5-10.2c-1.5,4.7-1.6,15.8,0,18.7
	C349.9,196.4,358.4,191.8,363.1,186.9z"/>
<ellipse fill="none" stroke="#FFD015" stroke-miterlimit="10" cx="352.6" cy="186.6" rx="3.2" ry="3.1"/>
<ellipse fill="none" stroke="#FFD015" stroke-miterlimit="10" cx="352.9" cy="186.2" rx="1.2" ry="0.8"/>
<path fill="none" stroke="#FFD015" stroke-miterlimit="10" d="M355.9,233.7c0,0-11.7-18.4-14.3-14.4c-2.7,4.1-5.7,14.8-4.8,18
	C340.7,239.5,350.1,237.3,355.9,233.7z"/>
<ellipse transform="matrix(-0.2588 0.9659 -0.9659 -0.2588 658.145 -43.5896)" fill="none" stroke="#FFD015" stroke-miterlimit="10" cx="345.8" cy="230.7" rx="3.1" ry="3.2"/>
<ellipse transform="matrix(-0.2588 0.9659 -0.9659 -0.2588 658.3806 -44.4028)" fill="none" stroke="#FFD015" stroke-miterlimit="10" cx="346.2" cy="230.4" rx="0.8" ry="1.2"/>
<path fill="none" stroke="#FFD015" stroke-miterlimit="10" d="M336.8,277.1c0,0-6.6-20.8-10-17.6c-3.6,3.3-9.3,12.8-9.3,16.2
	C320.6,278.7,330.3,279,336.8,277.1z"/>
<ellipse transform="matrix(-0.5 0.866 -0.866 -0.5 726.9346 123.4913)" fill="none" stroke="#FFD015" stroke-miterlimit="10" cx="327.8" cy="271.6" rx="3.1" ry="3.2"/>
<ellipse transform="matrix(-0.5 0.866 -0.866 -0.5 727.5119 122.7697)" fill="none" stroke="#FFD015" stroke-miterlimit="10" cx="328.3" cy="271.4" rx="0.8" ry="1.2"/>
<path fill="none" stroke="#FFD015" stroke-miterlimit="10" d="M307.1,314.1c0,0-1-21.8-5.1-19.6c-4.4,2.2-12.3,10-13.2,13.2
	C291.1,311.5,300.3,314.2,307.1,314.1z"/>
<ellipse transform="matrix(-0.7071 0.7071 -0.7071 -0.7071 728.5923 311.0668)" fill="none" stroke="#FFD015" stroke-miterlimit="10" cx="299.9" cy="306.4" rx="3.1" ry="3.2"/>
<ellipse transform="matrix(-0.7071 0.7071 -0.7071 -0.7071 729.456 310.5912)" fill="none" stroke="#FFD015" stroke-miterlimit="10" cx="300.4" cy="306.4" rx="0.8" ry="1.2"/>
<path fill="none" stroke="#FFD015" stroke-miterlimit="10" d="M268.8,342.1c0,0,4.7-21.3,0.1-20.3c-4.8,1-14.5,6.5-16.2,9.3
	C254,335.4,262.3,340.5,268.8,342.1z"/>
<ellipse transform="matrix(-0.866 0.5 -0.5 -0.866 658.7957 489.1681)" fill="none" stroke="#FFD015" stroke-miterlimit="10" cx="263.9" cy="332.8" rx="3.1" ry="3.2"/>
<ellipse transform="matrix(-0.866 0.5 -0.5 -0.866 659.8203 489.0543)" fill="none" stroke="#FFD015" stroke-miterlimit="10" cx="264.4" cy="332.9" rx="0.8" ry="1.2"/>
<path fill="none" stroke="#FFD015" stroke-miterlimit="10" d="M224.7,359.3c0,0,10-19.3,5.4-19.6c-4.9-0.2-15.7,2.5-18,4.8
	C212.1,349,218.7,356,224.7,359.3z"/>
<ellipse transform="matrix(-0.9659 0.2588 -0.2588 -0.9659 527.2488 628.6699)" fill="none" stroke="#FFD015" stroke-miterlimit="10" cx="222.2" cy="349" rx="3.1" ry="3.2"/>
<ellipse transform="matrix(-0.9659 0.2588 -0.2588 -0.9659 528.2651 628.9645)" fill="none" stroke="#FFD015" stroke-miterlimit="10" cx="222.7" cy="349.3" rx="0.8" ry="1.2"/>
<path fill="none" stroke="#FFD015" stroke-miterlimit="10" d="M177.5,364.4c0,0,14.7-16.1,10.2-17.5c-4.7-1.5-15.8-1.6-18.7,0
	C168.1,351.3,172.6,359.8,177.5,364.4z"/>
<ellipse fill="none" stroke="#FFD015" stroke-miterlimit="10" cx="177.8" cy="353.9" rx="3.1" ry="3.2"/>
<ellipse fill="none" stroke="#FFD015" stroke-miterlimit="10" cx="178.3" cy="354.2" rx="0.8" ry="1.2"/>
<path fill="none" stroke="#FFD015" stroke-miterlimit="10" d="M130.7,357.2c0,0,18.4-11.7,14.4-14.3c-4.1-2.7-14.8-5.7-18-4.8
	C124.9,342,127.2,351.4,130.7,357.2z"/>
<ellipse transform="matrix(-0.9659 -0.2588 0.2588 -0.9659 173.0109 717.0364)" fill="none" stroke="#FFD015" stroke-miterlimit="10" cx="133.7" cy="347.1" rx="3.1" ry="3.2"/>
<ellipse transform="matrix(-0.9659 -0.2588 0.2588 -0.9659 173.5213 717.9633)" fill="none" stroke="#FFD015" stroke-miterlimit="10" cx="134" cy="347.6" rx="0.8" ry="1.2"/>
<path fill="none" stroke="#FFD015" stroke-miterlimit="10" d="M87.3,338.1c0,0,20.8-6.6,17.6-10c-3.3-3.6-12.8-9.3-16.2-9.3
	C85.7,321.9,85.4,331.6,87.3,338.1z"/>
<ellipse transform="matrix(-0.866 -0.5 0.5 -0.866 8.6343 660.6171)" fill="none" stroke="#FFD015" stroke-miterlimit="10" cx="92.8" cy="329.2" rx="3.1" ry="3.2"/>
<ellipse transform="matrix(-0.866 -0.5 0.5 -0.866 8.7481 661.6416)" fill="none" stroke="#FFD015" stroke-miterlimit="10" cx="93" cy="329.6" rx="0.8" ry="1.2"/>
<path fill="none" stroke="#FFD015" stroke-miterlimit="10" d="M50.3,308.4c0,0,21.8-1,19.6-5.1c-2.2-4.4-10-12.3-13.2-13.2
	C52.9,292.4,50.2,301.6,50.3,308.4z"/>
<ellipse transform="matrix(-0.7071 -0.7071 0.7071 -0.7071 -113.9947 555.1927)" fill="none" stroke="#FFD015" stroke-miterlimit="10" cx="58" cy="301.2" rx="3.1" ry="3.2"/>
<ellipse transform="matrix(-0.7071 -0.7071 0.7071 -0.7071 -114.2691 556.1397)" fill="none" stroke="#FFD015" stroke-miterlimit="10" cx="58" cy="301.7" rx="0.8" ry="1.2"/>
<path fill="none" stroke="#FFD015" stroke-miterlimit="10" d="M22.3,270.2c0,0,21.3,4.7,20.3,0.1c-1-4.8-6.5-14.5-9.3-16.2
	C29,255.4,23.9,263.6,22.3,270.2z"/>
<ellipse transform="matrix(-0.5 -0.866 0.866 -0.5 -182.3096 425.1337)" fill="none" stroke="#FFD015" stroke-miterlimit="10" cx="31.6" cy="265.2" rx="3.1" ry="3.2"/>
<ellipse transform="matrix(-0.5 -0.866 0.866 -0.5 -182.8869 425.8554)" fill="none" stroke="#FFD015" stroke-miterlimit="10" cx="31.5" cy="265.7" rx="0.8" ry="1.2"/>
<path fill="none" stroke="#FFD015" stroke-miterlimit="10" d="M5.1,226c0,0,19.3,10,19.6,5.4c0.2-4.9-2.5-15.7-4.8-18
	C15.4,213.4,8.4,220,5.1,226z"/>
<ellipse transform="matrix(-0.2588 -0.9659 0.9659 -0.2588 -196.6025 296.2911)" fill="none" stroke="#FFD015" stroke-miterlimit="10" cx="15.4" cy="223.6" rx="3.1" ry="3.2"/>
<ellipse transform="matrix(-0.2588 -0.9659 0.9659 -0.2588 -197.3441 296.6995)" fill="none" stroke="#FFD015" stroke-miterlimit="10" cx="15.2" cy="224.1" rx="0.8" ry="1.2"/>
<path fill="none" stroke="#FFD015" stroke-miterlimit="10" d="M0,178.9c0,0,16.1,14.7,17.5,10.2c1.5-4.7,1.6-15.8,0-18.7
	C13.2,169.4,4.7,174,0,178.9z"/>
<ellipse fill="none" stroke="#FFD015" stroke-miterlimit="10" cx="10.5" cy="179.2" rx="3.2" ry="3.1"/>
<ellipse fill="none" stroke="#FFD015" stroke-miterlimit="10" cx="10.2" cy="179.6" rx="1.2" ry="0.8"/>
<path fill="none" stroke="#FFD015" stroke-miterlimit="10" d="M7.2,132c0,0,11.7,18.4,14.3,14.4c2.7-4.1,5.7-14.8,4.8-18
	C22.4,126.3,13,128.5,7.2,132z"/>
<ellipse transform="matrix(0.2588 -0.9659 0.9659 0.2588 -117.6244 116.7861)" fill="none" stroke="#FFD015" stroke-miterlimit="10" cx="17.3" cy="135" rx="3.1" ry="3.2"/>
<ellipse transform="matrix(0.2588 -0.9659 0.9659 0.2588 -118.2484 116.6053)" fill="none" stroke="#FFD015" stroke-miterlimit="10" cx="16.9" cy="135.4" rx="0.8" ry="1.2"/>
<path fill="none" stroke="#FFD015" stroke-miterlimit="10" d="M26.3,88.6c0,0,6.6,20.8,10,17.6c3.6-3.3,9.3-12.8,9.3-16.2
	C42.5,87,32.8,86.7,26.3,88.6z"/>
<ellipse transform="matrix(0.5 -0.866 0.866 0.5 -63.9094 77.6185)" fill="none" stroke="#FFD015" stroke-miterlimit="10" cx="35.3" cy="94.2" rx="3.1" ry="3.2"/>
<ellipse transform="matrix(0.5 -0.866 0.866 0.5 -64.326 77.2852)" fill="none" stroke="#FFD015" stroke-miterlimit="10" cx="34.8" cy="94.4" rx="0.8" ry="1.2"/>
<path fill="none" stroke="#FFD015" stroke-miterlimit="10" d="M56,51.7c0,0,1,21.8,5.1,19.6c4.4-2.2,12.3-10,13.2-13.2
	C72,54.3,62.8,51.5,56,51.7z"/>
<ellipse transform="matrix(0.7071 -0.7071 0.7071 0.7071 -23.4316 62.0716)" fill="none" stroke="#FFD015" stroke-miterlimit="10" cx="63.2" cy="59.3" rx="3.1" ry="3.2"/>
<ellipse transform="matrix(0.7071 -0.7071 0.7071 0.7071 -23.6286 61.7138)" fill="none" stroke="#FFD015" stroke-miterlimit="10" cx="62.7" cy="59.4" rx="0.8" ry="1.2"/>
<path fill="none" stroke="#FFD015" stroke-miterlimit="10" d="M94.2,23.6c0,0-4.7,21.3-0.1,20.3c4.8-1,14.5-6.5,16.2-9.3
	C109,30.3,100.8,25.2,94.2,23.6z"/>
<ellipse transform="matrix(0.866 -0.5 0.5 0.866 -3.1589 54.0191)" fill="none" stroke="#FFD015" stroke-miterlimit="10" cx="99.2" cy="32.9" rx="3.1" ry="3.2"/>
<ellipse transform="matrix(0.866 -0.5 0.5 0.866 -3.1894 53.7446)" fill="none" stroke="#FFD015" stroke-miterlimit="10" cx="98.7" cy="32.8" rx="0.8" ry="1.2"/>
<path fill="none" stroke="#FFD015" stroke-miterlimit="10" d="M138.4,6.5c0,0-10,19.3-5.4,19.6c4.9,0.2,15.7-2.5,18-4.8
	C151,16.7,144.4,9.7,138.4,6.5z"/>
<ellipse transform="matrix(0.9659 -0.2588 0.2588 0.9659 0.4747 37.0219)" fill="none" stroke="#FFD015" stroke-miterlimit="10" cx="140.8" cy="16.7" rx="3.1" ry="3.2"/>
<ellipse transform="matrix(0.9659 -0.2588 0.2588 0.9659 0.5134 36.8881)" fill="none" stroke="#FFD015" stroke-miterlimit="10" cx="140.4" cy="16.5" rx="0.8" ry="1.2"/>
<path fill="none" stroke="#FFD015" stroke-miterlimit="10" d="M162.4,1.5c0,0-12.5,17.9-7.9,18.7c4.8,0.9,15.9-0.4,18.5-2.4
	C173.5,13.3,167.8,5.5,162.4,1.5z"/>
<ellipse transform="matrix(0.9914 -0.1309 0.1309 0.9914 -0.1556 21.5006)" fill="none" stroke="#FFD015" stroke-miterlimit="10" cx="163.4" cy="11.9" rx="3.1" ry="3.2"/>
<ellipse transform="matrix(0.9914 -0.1309 0.1309 0.9914 -0.1234 21.4384)" fill="none" stroke="#FFD015" stroke-miterlimit="10" cx="163" cy="11.7" rx="0.8" ry="1.2"/>
<path fill="none" stroke="#FFD015" stroke-miterlimit="10" d="M209.8,2.5c0,0-16.7,14-12.4,16c4.4,2.1,15.4,3.7,18.5,2.4
	C217.4,16.8,214,7.8,209.8,2.5z"/>
<ellipse transform="matrix(0.9915 0.1301 -0.1301 0.9915 3.4446 -26.9633)" fill="none" stroke="#FFD015" stroke-miterlimit="10" cx="208.1" cy="12.9" rx="3.1" ry="3.2"/>
<ellipse transform="matrix(0.9915 0.1301 -0.1301 0.9915 3.3914 -26.9185)" fill="none" stroke="#FFD015" stroke-miterlimit="10" cx="207.7" cy="12.5" rx="0.8" ry="1.2"/>
<path fill="none" stroke="#FFD015" stroke-miterlimit="10" d="M255.3,15.8c0,0-19.7,9.2-16.1,12.3c3.7,3.2,13.9,7.5,17.2,7.1
	C259,31.6,258,22,255.3,15.8z"/>
<ellipse transform="matrix(0.924 0.3823 -0.3823 0.924 28.7539 -94.014)" fill="none" stroke="#FFD015" stroke-miterlimit="10" cx="251" cy="25.3" rx="3.1" ry="3.2"/>
<ellipse transform="matrix(0.924 0.3823 -0.3823 0.924 28.5557 -93.951)" fill="none" stroke="#FFD015" stroke-miterlimit="10" cx="250.7" cy="24.9" rx="0.8" ry="1.2"/>
<path fill="none" stroke="#FFD015" stroke-miterlimit="10" d="M295.8,40.4c0,0-21.4,3.8-18.8,7.7c2.8,4,11.5,10.9,14.8,11.4
	C295.3,56.6,296.8,47,295.8,40.4z"/>
<ellipse transform="matrix(0.7936 0.6084 -0.6084 0.7936 89.1837 -165.919)" fill="none" stroke="#FFD015" stroke-miterlimit="10" cx="289.1" cy="48.5" rx="3.1" ry="3.2"/>
<ellipse transform="matrix(0.7936 0.6084 -0.6084 0.7936 88.8422 -165.9481)" fill="none" stroke="#FFD015" stroke-miterlimit="10" cx="289" cy="48" rx="0.8" ry="1.2"/>
<path fill="none" stroke="#FFD015" stroke-miterlimit="10" d="M328.6,74.6c0,0-21.7-1.9-20.1,2.5c1.7,4.6,8.3,13.5,11.4,14.8
	C323.9,90.1,327.9,81.3,328.6,74.6z"/>
<ellipse transform="matrix(0.6091 0.7931 -0.7931 0.6091 189.1428 -222.2744)" fill="none" stroke="#FFD015" stroke-miterlimit="10" cx="320.1" cy="80.7" rx="3.1" ry="3.2"/>
<ellipse transform="matrix(0.6091 0.7931 -0.7931 0.6091 188.7238 -222.4913)" fill="none" stroke="#FFD015" stroke-miterlimit="10" cx="320.1" cy="80.2" rx="0.8" ry="1.2"/>
<path fill="none" stroke="#FFD015" stroke-miterlimit="10" d="M351.4,116.1c0,0-20.5-7.4-20.1-2.8c0.4,4.9,4.5,15.2,7.2,17.2
	C342.9,129.9,349,122.5,351.4,116.1z"/>
<ellipse transform="matrix(0.3831 0.9237 -0.9237 0.3831 321.4515 -241.5498)" fill="none" stroke="#FFD015" stroke-miterlimit="10" cx="341.6" cy="119.9" rx="3.1" ry="3.2"/>
<ellipse transform="matrix(0.3831 0.9237 -0.9237 0.3831 321.0695 -242.0031)" fill="none" stroke="#FFD015" stroke-miterlimit="10" cx="341.7" cy="119.4" rx="0.8" ry="1.2"/>
<path fill="none" stroke="#FFD015" stroke-miterlimit="10" d="M362.7,162.2c0,0-17.9-12.5-18.7-7.9c-0.9,4.8,0.4,15.9,2.4,18.5
	C350.8,173.3,358.7,167.7,362.7,162.2z"/>
<ellipse transform="matrix(0.1309 0.9914 -0.9914 0.1309 467.9304 -207.2955)" fill="none" stroke="#FFD015" stroke-miterlimit="10" cx="352.2" cy="163.3" rx="3.1" ry="3.2"/>
<ellipse transform="matrix(0.1309 0.9914 -0.9914 0.1309 467.7173 -207.966)" fill="none" stroke="#FFD015" stroke-miterlimit="10" cx="352.5" cy="162.8" rx="0.8" ry="1.2"/>
<path fill="none" stroke="#FFD015" stroke-miterlimit="10" d="M361.6,209.6c0,0-14-16.7-16-12.4c-2.1,4.4-3.7,15.4-2.4,18.5
	C347.3,217.3,356.4,213.8,361.6,209.6z"/>
<ellipse transform="matrix(-0.1301 0.9915 -0.9915 -0.1301 603.0933 -113.319)" fill="none" stroke="#FFD015" stroke-miterlimit="10" cx="351.3" cy="207.9" rx="3.1" ry="3.2"/>
<ellipse transform="matrix(-0.1301 0.9915 -0.9915 -0.1301 603.1615 -114.1183)" fill="none" stroke="#FFD015" stroke-miterlimit="10" cx="351.6" cy="207.5" rx="0.8" ry="1.2"/>
<path fill="none" stroke="#FFD015" stroke-miterlimit="10" d="M348.4,255.1c0,0-9.2-19.7-12.3-16.1c-3.2,3.7-7.5,13.9-7.1,17.2
	C332.6,258.8,342.2,257.8,348.4,255.1z"/>
<ellipse transform="matrix(-0.3823 0.924 -0.924 -0.3823 700.0395 33.608)" fill="none" stroke="#FFD015" stroke-miterlimit="10" cx="338.8" cy="250.8" rx="3.1" ry="3.2"/>
<ellipse transform="matrix(-0.3823 0.924 -0.924 -0.3823 700.4474 32.8202)" fill="none" stroke="#FFD015" stroke-miterlimit="10" cx="339.3" cy="250.5" rx="0.8" ry="1.2"/>
<path fill="none" stroke="#FFD015" stroke-miterlimit="10" d="M323.8,295.6c0,0-3.8-21.4-7.7-18.8c-4,2.8-10.9,11.5-11.4,14.8
	C307.6,295.1,317.1,296.7,323.8,295.6z"/>
<ellipse transform="matrix(-0.6084 0.7936 -0.7936 -0.6084 737.0257 214.3096)" fill="none" stroke="#FFD015" stroke-miterlimit="10" cx="315.6" cy="289" rx="3.1" ry="3.2"/>
<ellipse transform="matrix(-0.6084 0.7936 -0.7936 -0.6084 737.7575 213.6928)" fill="none" stroke="#FFD015" stroke-miterlimit="10" cx="316.2" cy="288.9" rx="0.8" ry="1.2"/>
<path fill="none" stroke="#FFD015" stroke-miterlimit="10" d="M289.5,328.4c0,0,1.9-21.7-2.5-20.1c-4.6,1.7-13.5,8.3-14.8,11.4
	C274,323.7,282.8,327.7,289.5,328.4z"/>
<ellipse transform="matrix(-0.7931 0.6091 -0.6091 -0.7931 703.0048 400.9677)" fill="none" stroke="#FFD015" stroke-miterlimit="10" cx="283.4" cy="319.9" rx="3.1" ry="3.2"/>
<ellipse transform="matrix(-0.7931 0.6091 -0.6091 -0.7931 703.9678 400.6617)" fill="none" stroke="#FFD015" stroke-miterlimit="10" cx="283.9" cy="319.9" rx="0.8" ry="1.2"/>
<path fill="none" stroke="#FFD015" stroke-miterlimit="10" d="M248,351.2c0,0,7.4-20.5,2.8-20.1c-4.9,0.4-15.2,4.5-17.2,7.2
	C234.2,342.7,241.7,348.8,248,351.2z"/>
<ellipse transform="matrix(-0.9237 0.3831 -0.3831 -0.9237 600.6625 563.1719)" fill="none" stroke="#FFD015" stroke-miterlimit="10" cx="244.3" cy="341.4" rx="3.1" ry="3.2"/>
<ellipse transform="matrix(-0.9237 0.3831 -0.3831 -0.9237 601.7053 563.2609)" fill="none" stroke="#FFD015" stroke-miterlimit="10" cx="244.8" cy="341.5" rx="0.8" ry="1.2"/>
<path fill="none" stroke="#FFD015" stroke-miterlimit="10" d="M201.9,362.5c0,0,12.5-17.9,7.9-18.7c-4.8-0.9-15.9,0.4-18.5,2.4
	C190.8,350.7,196.5,358.5,201.9,362.5z"/>
<ellipse transform="matrix(-0.9914 0.1309 -0.1309 -0.9914 446.1364 674.7321)" fill="none" stroke="#FFD015" stroke-miterlimit="10" cx="200.9" cy="352" rx="3.1" ry="3.2"/>
<ellipse transform="matrix(-0.9914 0.1309 -0.1309 -0.9914 447.0821 675.2216)" fill="none" stroke="#FFD015" stroke-miterlimit="10" cx="201.3" cy="352.3" rx="0.8" ry="1.2"/>
<path fill="none" stroke="#FFD015" stroke-miterlimit="10" d="M154.6,361.5c0,0,16.7-14,12.4-16c-4.4-2.1-15.4-3.7-18.5-2.4
	C146.9,347.2,150.3,356.2,154.6,361.5z"/>
<ellipse transform="matrix(-0.9915 -0.1301 0.1301 -0.9915 265.4608 719.5187)" fill="none" stroke="#FFD015" stroke-miterlimit="10" cx="156.2" cy="351.1" rx="3.1" ry="3.2"/>
<ellipse transform="matrix(-0.9915 -0.1301 0.1301 -0.9915 266.1472 720.3329)" fill="none" stroke="#FFD015" stroke-miterlimit="10" cx="156.6" cy="351.5" rx="0.8" ry="1.2"/>
<path fill="none" stroke="#FFD015" stroke-miterlimit="10" d="M109,348.2c0,0,19.7-9.2,16.1-12.3c-3.7-3.2-13.9-7.5-17.2-7.1
	C105.3,332.4,106.3,342,109,348.2z"/>
<ellipse transform="matrix(-0.924 -0.3823 0.3823 -0.924 88.6384 694.847)" fill="none" stroke="#FFD015" stroke-miterlimit="10" cx="113.4" cy="338.6" rx="3.1" ry="3.2"/>
<ellipse transform="matrix(-0.924 -0.3823 0.3823 -0.924 88.9554 695.8446)" fill="none" stroke="#FFD015" stroke-miterlimit="10" cx="113.6" cy="339.1" rx="0.8" ry="1.2"/>
<path fill="none" stroke="#FFD015" stroke-miterlimit="10" d="M68.5,323.6c0,0,21.4-3.8,18.8-7.7c-2.8-4-11.5-10.9-14.8-11.4
	C69,307.4,67.5,316.9,68.5,323.6z"/>
<ellipse transform="matrix(-0.7936 -0.6084 0.6084 -0.7936 -57.1446 611.5615)" fill="none" stroke="#FFD015" stroke-miterlimit="10" cx="75.2" cy="315.5" rx="3.1" ry="3.2"/>
<ellipse transform="matrix(-0.7936 -0.6084 0.6084 -0.7936 -57.2305 612.5685)" fill="none" stroke="#FFD015" stroke-miterlimit="10" cx="75.3" cy="316" rx="0.8" ry="1.2"/>
<path fill="none" stroke="#FFD015" stroke-miterlimit="10" d="M35.7,289.4c0,0,21.7,1.9,20.1-2.5c-1.7-4.6-8.3-13.5-11.4-14.8
	C40.4,273.8,36.4,282.6,35.7,289.4z"/>
<ellipse transform="matrix(-0.6091 -0.7931 0.7931 -0.6091 -153.4263 490.8415)" fill="none" stroke="#FFD015" stroke-miterlimit="10" cx="44.3" cy="283.2" rx="3.1" ry="3.2"/>
<ellipse transform="matrix(-0.6091 -0.7931 0.7931 -0.6091 -153.8664 491.6916)" fill="none" stroke="#FFD015" stroke-miterlimit="10" cx="44.2" cy="283.8" rx="0.8" ry="1.2"/>
<path fill="none" stroke="#FFD015" stroke-miterlimit="10" d="M12.9,247.8c0,0,20.5,7.4,20.1,2.8c-0.4-4.9-4.5-15.2-7.2-17.2
	C21.5,234,15.4,241.5,12.9,247.8z"/>
<ellipse transform="matrix(-0.3831 -0.9237 0.9237 -0.3831 -194.0127 358.6039)" fill="none" stroke="#FFD015" stroke-miterlimit="10" cx="22.7" cy="244.1" rx="3.1" ry="3.2"/>
<ellipse transform="matrix(-0.3831 -0.9237 0.9237 -0.3831 -194.6913 359.1758)" fill="none" stroke="#FFD015" stroke-miterlimit="10" cx="22.6" cy="244.6" rx="0.8" ry="1.2"/>
<path fill="none" stroke="#FFD015" stroke-miterlimit="10" d="M1.6,201.8c0,0,17.9,12.5,18.7,7.9c0.9-4.8-0.4-15.9-2.4-18.5
	C13.5,190.7,5.6,196.3,1.6,201.8z"/>
<ellipse transform="matrix(-0.1309 -0.9914 0.9914 -0.1309 -185.3011 238.9965)" fill="none" stroke="#FFD015" stroke-miterlimit="10" cx="12.1" cy="200.7" rx="3.1" ry="3.2"/>
<ellipse transform="matrix(-0.1309 -0.9914 0.9914 -0.1309 -186.0659 239.2395)" fill="none" stroke="#FFD015" stroke-miterlimit="10" cx="11.8" cy="201.2" rx="0.8" ry="1.2"/>
<path fill="none" stroke="#FFD015" stroke-miterlimit="10" d="M2.7,154.4c0,0,14,16.7,16,12.4c2.1-4.4,3.7-15.4,2.4-18.5
	C17,146.7,7.9,150.1,2.7,154.4z"/>
<ellipse transform="matrix(0.1301 -0.9915 0.9915 0.1301 -143.3887 148.6973)" fill="none" stroke="#FFD015" stroke-miterlimit="10" cx="13" cy="156.1" rx="3.1" ry="3.2"/>
<ellipse transform="matrix(0.1301 -0.9915 0.9915 0.1301 -144.0899 148.6375)" fill="none" stroke="#FFD015" stroke-miterlimit="10" cx="12.7" cy="156.4" rx="0.8" ry="1.2"/>
<path fill="none" stroke="#FFD015" stroke-miterlimit="10" d="M15.9,108.9c0,0,9.2,19.7,12.3,16.1c3.2-3.7,7.5-13.9,7.1-17.2
	C31.7,105.1,22.1,106.1,15.9,108.9z"/>
<ellipse transform="matrix(0.3823 -0.924 0.924 0.3823 -88.8216 93.4925)" fill="none" stroke="#FFD015" stroke-miterlimit="10" cx="25.5" cy="113.2" rx="3.1" ry="3.2"/>
<ellipse transform="matrix(0.3823 -0.924 0.924 0.3823 -89.3483 93.2199)" fill="none" stroke="#FFD015" stroke-miterlimit="10" cx="25.1" cy="113.4" rx="0.8" ry="1.2"/>
<path fill="none" stroke="#FFD015" stroke-miterlimit="10" d="M40.5,68.3c0,0,3.8,21.4,7.7,18.8c4-2.8,10.9-11.5,11.4-14.8
	C56.7,68.8,47.2,67.3,40.5,68.3z"/>
<ellipse transform="matrix(0.6084 -0.7936 0.7936 0.6084 -40.4548 67.9814)" fill="none" stroke="#FFD015" stroke-miterlimit="10" cx="48.7" cy="75" rx="3.1" ry="3.2"/>
<ellipse transform="matrix(0.6084 -0.7936 0.7936 0.6084 -40.7591 67.6203)" fill="none" stroke="#FFD015" stroke-miterlimit="10" cx="48.1" cy="75.1" rx="0.8" ry="1.2"/>
<path fill="none" stroke="#FFD015" stroke-miterlimit="10" d="M74.8,35.6c0,0-1.9,21.7,2.5,20.1c4.6-1.7,13.5-8.3,14.8-11.4
	C90.3,40.2,81.5,36.3,74.8,35.6z"/>
<ellipse transform="matrix(0.7931 -0.6091 0.6091 0.7931 -10.1112 58.3987)" fill="none" stroke="#FFD015" stroke-miterlimit="10" cx="80.9" cy="44.1" rx="3.1" ry="3.2"/>
<ellipse transform="matrix(0.7931 -0.6091 0.6091 0.7931 -10.2151 58.0716)" fill="none" stroke="#FFD015" stroke-miterlimit="10" cx="80.4" cy="44.1" rx="0.8" ry="1.2"/>
<path fill="none" stroke="#FFD015" stroke-miterlimit="10" d="M116.3,12.8c0,0-7.4,20.5-2.8,20.1c4.9-0.4,15.2-4.5,17.2-7.2
	C130.1,21.3,122.6,15.2,116.3,12.8z"/>
<ellipse transform="matrix(0.9237 -0.3831 0.3831 0.9237 0.5088 47.7077)" fill="none" stroke="#FFD015" stroke-miterlimit="10" cx="120" cy="22.6" rx="3.1" ry="3.2"/>
<ellipse transform="matrix(0.9237 -0.3831 0.3831 0.9237 0.5265 47.5)" fill="none" stroke="#FFD015" stroke-miterlimit="10" cx="119.5" cy="22.4" rx="0.8" ry="1.2"/>
</svg>
